Istok-Regular.ufo
<glyph name="hyphen" format="2">
  <advance width="680"/>
  <unicode hex="002D"/>
  <outline>
    <contour>
      <point x="101.0" y="483.0" type="line" smooth="yes"/>
      <point x="56.0" y="483.0"/>
      <point x="56.0" y="518.0" type="qcurve" smooth="yes"/>
      <point x="56.0" y="588.0" type="line" smooth="yes"/>
      <point x="56.0" y="623.0"/>
      <point x="101.0" y="623.0" type="qcurve" smooth="yes"/>
      <point x="579.0" y="623.0" type="line" smooth="yes"/>
      <point x="624.0" y="623.0"/>
      <point x="624.0" y="588.0" type="qcurve" smooth="yes"/>
      <point x="624.0" y="518.0" type="line" smooth="yes"/>
      <point x="624.0" y="483.0"/>
      <point x="579.0" y="483.0" type="qcurve" smooth="yes"/>
    </contour>
  </outline>
</glyph>
<glyph name="slash" format="2">
  <advance width="840"/>
  <unicode hex="002F"/>
  <outline>
    <contour>
      <point x="24.0" y="-391.0" type="line" smooth="yes"/>
      <point x="-10.0" y="-377.0"/>
      <point x="7.0" y="-335.0" type="qcurve" smooth="yes"/>
      <point x="722.0" y="1436.0" type="line" smooth="yes"/>
      <point x="739.0" y="1478.0"/>
      <point x="773.0" y="1464.0" type="qcurve" smooth="yes"/>
      <point x="818.0" y="1446.0" type="line" smooth="yes"/>
      <point x="850.0" y="1433.0"/>
      <point x="833.0" y="1391.0" type="qcurve" smooth="yes"/>
      <point x="118.0" y="-380.0" type="line" smooth="yes"/>
      <point x="101.0" y="-422.0"/>
      <point x="69.0" y="-409.0" type="qcurve" smooth="yes"/>
    </contour>
  </outline>
</glyph>
<glyph name="four" format="2">
  <advance width="1110"/>
  <unicode hex="0034"/>
  <outline>
    <contour>
      <point x="109.0" y="354.0" type="line" smooth="yes"/>
      <point x="64.0" y="354.0"/>
      <point x="64.0" y="399.0" type="qcurve" smooth="yes"/>
      <point x="64.0" y="487.0" type="line" smooth="yes"/>
      <point x="64.0" y="519.0"/>
      <point x="88.0" y="556.0" type="qcurve" smooth="yes"/>
      <point x="637.0" y="1404.0" type="line" smooth="yes"/>
      <point x="660.0" y="1440.0"/>
      <point x="693.0" y="1440.0" type="qcurve" smooth="yes"/>
      <point x="784.0" y="1440.0" type="line" smooth="yes"/>
      <point x="830.0" y="1440.0"/>
      <point x="830.0" y="1395.0" type="qcurve" smooth="yes"/>
      <point x="830.0" y="518.0" type="line"/>
      <point x="1001.0" y="518.0" type="line" smooth="yes"/>
      <point x="1046.0" y="518.0"/>
      <point x="1046.0" y="473.0" type="qcurve" smooth="yes"/>
      <point x="1046.0" y="399.0" type="line" smooth="yes"/>
      <point x="1046.0" y="354.0"/>
      <point x="1002.0" y="354.0" type="qcurve" smooth="yes"/>
      <point x="830.0" y="354.0" type="line"/>
      <point x="830.0" y="45.0" type="line" smooth="yes"/>
      <point x="830.0" y="0.0"/>
      <point x="785.0" y="0.0" type="qcurve" smooth="yes"/>
      <point x="699.0" y="0.0" type="line" smooth="yes"/>
      <point x="654.0" y="0.0"/>
      <point x="654.0" y="45.0" type="qcurve" smooth="yes"/>
      <point x="654.0" y="354.0" type="line"/>
    </contour>
    <contour>
      <point x="243.0" y="518.0" type="line"/>
      <point x="654.0" y="518.0" type="line"/>
      <point x="654.0" y="1093.0" type="line" smooth="yes"/>
      <point x="654.0" y="1123.0"/>
      <point x="656.0" y="1153.0" type="qcurve"/>
      <point x="654.0" y="1153.0" type="line"/>
    </contour>
  </outline>
</glyph>
<glyph name="five" format="2">
  <advance width="1110"/>
  <unicode hex="0035"/>
  <outline>
    <contour>
      <point x="114.0" y="163.0" type="qcurve" smooth="yes"/>
      <point x="76.0" y="213.0"/>
      <point x="105.0" y="239.0" type="qcurve" smooth="yes"/>
      <point x="167.0" y="294.0" type="line" smooth="yes"/>
      <point x="201.0" y="324.0"/>
      <point x="246.0" y="269.0" type="qcurve" smooth="yes"/>
      <point x="273.0" y="236.0"/>
      <point x="409.0" y="120.0"/>
      <point x="518.0" y="120.0" type="qcurve" smooth="yes"/>
      <point x="661.0" y="120.0"/>
      <point x="806.0" y="296.0"/>
      <point x="806.0" y="441.0" type="qcurve" smooth="yes"/>
      <point x="806.0" y="578.0"/>
      <point x="682.0" y="736.0"/>
      <point x="558.0" y="736.0" type="qcurve" smooth="yes"/>
      <point x="481.0" y="736.0"/>
      <point x="379.0" y="706.0"/>
      <point x="324.0" y="658.0" type="qcurve" smooth="yes"/>
      <point x="286.0" y="625.0"/>
      <point x="244.0" y="625.0" type="qcurve" smooth="yes"/>
      <point x="197.0" y="625.0" type="line" smooth="yes"/>
      <point x="152.0" y="625.0"/>
      <point x="152.0" y="670.0" type="qcurve" smooth="yes"/>
      <point x="152.0" y="1377.0" type="line" smooth="yes"/>
      <point x="152.0" y="1422.0"/>
      <point x="197.0" y="1422.0" type="qcurve" smooth="yes"/>
      <point x="887.0" y="1422.0" type="line" smooth="yes"/>
      <point x="932.0" y="1422.0"/>
      <point x="932.0" y="1377.0" type="qcurve" smooth="yes"/>
      <point x="932.0" y="1303.0" type="line" smooth="yes"/>
      <point x="932.0" y="1258.0"/>
      <point x="887.0" y="1258.0" type="qcurve" smooth="yes"/>
      <point x="328.0" y="1258.0" type="line"/>
      <point x="328.0" y="863.0" type="line" smooth="yes"/>
      <point x="328.0" y="833.0"/>
      <point x="326.0" y="803.0" type="qcurve"/>
      <point x="330.0" y="803.0" type="line"/>
      <point x="386.0" y="850.0"/>
      <point x="536.0" y="886.0"/>
      <point x="600.0" y="886.0" type="qcurve" smooth="yes"/>
      <point x="786.0" y="886.0"/>
      <point x="1002.0" y="638.0"/>
      <point x="1002.0" y="437.0" type="qcurve" smooth="yes"/>
      <point x="1002.0" y="218.0"/>
      <point x="743.0" y="-30.0"/>
      <point x="520.0" y="-30.0" type="qcurve" smooth="yes"/>
      <point x="357.0" y="-30.0"/>
      <point x="158.0" y="105.0"/>
    </contour>
  </outline>
</glyph>
<glyph name="seven" format="2">
  <advance width="1100"/>
  <unicode hex="0037"/>
  <outline>
    <contour>
      <point x="133.0" y="1258.0" type="line" smooth="yes"/>
      <point x="88.0" y="1258.0"/>
      <point x="88.0" y="1303.0" type="qcurve" smooth="yes"/>
      <point x="88.0" y="1377.0" type="line" smooth="yes"/>
      <point x="88.0" y="1422.0"/>
      <point x="133.0" y="1422.0" type="qcurve" smooth="yes"/>
      <point x="967.0" y="1422.0" type="line" smooth="yes"/>
      <point x="1012.0" y="1422.0"/>
      <point x="1012.0" y="1377.0" type="qcurve" smooth="yes"/>
      <point x="1012.0" y="1308.0" type="line" smooth="yes"/>
      <point x="1012.0" y="1276.0"/>
      <point x="976.0" y="1236.0" type="qcurve" smooth="yes"/>
      <point x="776.0" y="1009.0"/>
      <point x="534.0" y="458.0"/>
      <point x="534.0" y="133.0" type="qcurve" smooth="yes"/>
      <point x="534.0" y="39.0" type="line" smooth="yes"/>
      <point x="534.0" y="-6.0"/>
      <point x="489.0" y="-6.0" type="qcurve" smooth="yes"/>
      <point x="398.0" y="-6.0" type="line" smooth="yes"/>
      <point x="353.0" y="-6.0"/>
      <point x="353.0" y="39.0" type="qcurve" smooth="yes"/>
      <point x="353.0" y="98.0" type="line" smooth="yes"/>
      <point x="353.0" y="459.0"/>
      <point x="627.0" y="1008.0"/>
      <point x="831.0" y="1258.0" type="qcurve"/>
      <point x="831.0" y="1260.0" type="line"/>
      <point x="801.0" y="1258.0"/>
      <point x="771.0" y="1258.0" type="qcurve" smooth="yes"/>
    </contour>
  </outline>
</glyph>
<glyph name="nine" format="2">
  <advance width="1110"/>
  <unicode hex="0039"/>
  <outline>
    <contour>
      <point x="90.0" y="962.0" type="qcurve" smooth="yes"/>
      <point x="90.0" y="1180.0"/>
      <point x="321.0" y="1452.0"/>
      <point x="547.0" y="1452.0" type="qcurve" smooth="yes"/>
      <point x="783.0" y="1452.0"/>
      <point x="1018.0" y="1077.0"/>
      <point x="1018.0" y="751.0" type="qcurve" smooth="yes"/>
      <point x="1018.0" y="311.0"/>
      <point x="712.0" y="-30.0"/>
      <point x="493.0" y="-30.0" type="qcurve" smooth="yes"/>
      <point x="368.0" y="-30.0"/>
      <point x="218.0" y="34.0"/>
      <point x="164.0" y="84.0" type="qcurve" smooth="yes"/>
      <point x="122.0" y="123.0"/>
      <point x="145.0" y="149.0" type="qcurve" smooth="yes"/>
      <point x="192.0" y="204.0" type="line" smooth="yes"/>
      <point x="220.0" y="236.0"/>
      <point x="265.0" y="198.0" type="qcurve" smooth="yes"/>
      <point x="302.0" y="166.0"/>
      <point x="406.0" y="120.0"/>
      <point x="502.0" y="120.0" type="qcurve" smooth="yes"/>
      <point x="637.0" y="120.0"/>
      <point x="837.0" y="390.0"/>
      <point x="837.0" y="679.0" type="qcurve"/>
      <point x="835.0" y="679.0" type="line"/>
      <point x="790.0" y="614.0"/>
      <point x="621.0" y="523.0"/>
      <point x="492.0" y="523.0" type="qcurve" smooth="yes"/>
      <point x="332.0" y="523.0"/>
      <point x="90.0" y="742.0"/>
    </contour>
    <contour>
      <point x="286.0" y="968.0" type="qcurve" smooth="yes"/>
      <point x="286.0" y="823.0"/>
      <point x="422.0" y="676.0"/>
      <point x="524.0" y="676.0" type="qcurve" smooth="yes"/>
      <point x="656.0" y="676.0"/>
      <point x="803.0" y="838.0"/>
      <point x="803.0" y="975.0" type="qcurve" smooth="yes"/>
      <point x="803.0" y="1099.0"/>
      <point x="666.0" y="1302.0"/>
      <point x="545.0" y="1302.0" type="qcurve" smooth="yes"/>
      <point x="420.0" y="1302.0"/>
      <point x="286.0" y="1114.0"/>
    </contour>
  </outline>
</glyph>
<glyph name="C" format="2">
  <advance width="1402"/>
  <unicode hex="0043"/>
  <outline>
    <contour>
      <point x="92.0" y="717.0" type="qcurve" smooth="yes"/>
      <point x="92.0" y="1067.0"/>
      <point x="439.0" y="1464.0"/>
      <point x="764.0" y="1464.0" type="qcurve" smooth="yes"/>
      <point x="954.0" y="1464.0"/>
      <point x="1202.0" y="1335.0"/>
      <point x="1256.0" y="1223.0" type="qcurve" smooth="yes"/>
      <point x="1284.1700439453125" y="1164.6400146484375"/>
      <point x="1247.0" y="1143.0" type="qcurve" smooth="yes"/>
      <point x="1168.0" y="1097.0" type="line" smooth="yes"/>
      <point x="1128.1099853515625" y="1073.780029296875"/>
      <point x="1097.0" y="1135.0" type="qcurve" smooth="yes"/>
      <point x="1064.0" y="1198.0"/>
      <point x="914.0" y="1308.0"/>
      <point x="774.0" y="1308.0" type="qcurve" smooth="yes"/>
      <point x="524.0" y="1308.0"/>
      <point x="297.0" y="997.0"/>
      <point x="297.0" y="717.0" type="qcurve" smooth="yes"/>
      <point x="297.0" y="437.0"/>
      <point x="524.0" y="126.0"/>
      <point x="774.0" y="126.0" type="qcurve" smooth="yes"/>
      <point x="918.0" y="126.0"/>
      <point x="1091.0" y="258.0"/>
      <point x="1130.0" y="330.0" type="qcurve" smooth="yes"/>
      <point x="1161.0899658203125" y="388.1659851074219"/>
      <point x="1202.0" y="365.0" type="qcurve" smooth="yes"/>
      <point x="1285.0" y="318.0" type="line" smooth="yes"/>
      <point x="1321.239990234375" y="297.47698974609375"/>
      <point x="1291.0" y="238.0" type="qcurve" smooth="yes"/>
      <point x="1232.0" y="123.0"/>
      <point x="966.0" y="-30.0"/>
      <point x="764.0" y="-30.0" type="qcurve" smooth="yes"/>
      <point x="439.0" y="-30.0"/>
      <point x="92.0" y="367.0"/>
    </contour>
  </outline>
</glyph>
<glyph name="D" format="2">
  <advance width="1436"/>
  <unicode hex="0044"/>
  <outline>
    <contour>
      <point x="220.0" y="0.0" type="line" smooth="yes"/>
      <point x="170.0" y="0.0"/>
      <point x="170.0" y="55.0" type="qcurve" smooth="yes"/>
      <point x="170.0" y="1379.0" type="line" smooth="yes"/>
      <point x="170.0" y="1434.0"/>
      <point x="220.0" y="1434.0" type="qcurve" smooth="yes"/>
      <point x="589.0" y="1434.0" type="line" smooth="yes"/>
      <point x="1013.0" y="1434.0"/>
      <point x="1344.0" y="1059.0"/>
      <point x="1344.0" y="719.0" type="qcurve" smooth="yes"/>
      <point x="1344.0" y="379.0"/>
      <point x="1013.0" y="0.0"/>
      <point x="589.0" y="0.0" type="qcurve" smooth="yes"/>
    </contour>
    <contour>
      <point x="362.0" y="164.0" type="line"/>
      <point x="580.0" y="164.0" type="line" smooth="yes"/>
      <point x="910.0" y="164.0"/>
      <point x="1139.0" y="444.0"/>
      <point x="1139.0" y="719.0" type="qcurve" smooth="yes"/>
      <point x="1139.0" y="994.0"/>
      <point x="910.0" y="1272.0"/>
      <point x="580.0" y="1272.0" type="qcurve" smooth="yes"/>
      <point x="362.0" y="1272.0" type="line"/>
    </contour>
  </outline>
</glyph>
<glyph name="M" format="2">
  <advance width="1708"/>
  <unicode hex="004D"/>
  <outline>
    <contour>
      <point x="220.0" y="0.0" type="line" smooth="yes"/>
      <point x="170.0" y="0.0"/>
      <point x="170.0" y="55.0" type="qcurve" smooth="yes"/>
      <point x="170.0" y="1379.0" type="line" smooth="yes"/>
      <point x="170.0" y="1434.0"/>
      <point x="220.0" y="1434.0" type="qcurve" smooth="yes"/>
      <point x="433.0" y="1434.0" type="line" smooth="yes"/>
      <point x="471.0" y="1434.0"/>
      <point x="490.0" y="1374.0" type="qcurve" smooth="yes"/>
      <point x="776.0" y="477.0" type="line" smooth="yes"/>
      <point x="820.0" y="339.0"/>
      <point x="836.0" y="282.0"/>
      <point x="851.0" y="206.0" type="qcurve"/>
      <point x="857.0" y="206.0" type="line"/>
      <point x="872.0" y="282.0"/>
      <point x="888.0" y="339.0"/>
      <point x="932.0" y="477.0" type="qcurve" smooth="yes"/>
      <point x="1218.0" y="1374.0" type="line" smooth="yes"/>
      <point x="1237.0" y="1434.0"/>
      <point x="1275.0" y="1434.0" type="qcurve" smooth="yes"/>
      <point x="1488.0" y="1434.0" type="line" smooth="yes"/>
      <point x="1538.0" y="1434.0"/>
      <point x="1538.0" y="1379.0" type="qcurve" smooth="yes"/>
      <point x="1538.0" y="55.0" type="line" smooth="yes"/>
      <point x="1538.0" y="0.0"/>
      <point x="1488.0" y="0.0" type="qcurve" smooth="yes"/>
      <point x="1396.0" y="0.0" type="line" smooth="yes"/>
      <point x="1346.0" y="0.0"/>
      <point x="1346.0" y="55.0" type="qcurve" smooth="yes"/>
      <point x="1346.0" y="1104.0" type="line" smooth="yes"/>
      <point x="1346.0" y="1144.0"/>
      <point x="1348.0" y="1184.0" type="qcurve"/>
      <point x="1344.0" y="1184.0" type="line"/>
      <point x="975.0" y="61.0" type="line" smooth="yes"/>
      <point x="955.0" y="0.0"/>
      <point x="909.0" y="0.0" type="qcurve" smooth="yes"/>
      <point x="799.0" y="0.0" type="line" smooth="yes"/>
      <point x="753.0" y="-0.0"/>
      <point x="733.0" y="61.0" type="qcurve" smooth="yes"/>
      <point x="364.0" y="1184.0" type="line"/>
      <point x="360.0" y="1184.0" type="line"/>
      <point x="362.0" y="1144.0"/>
      <point x="362.0" y="1104.0" type="qcurve" smooth="yes"/>
      <point x="362.0" y="55.0" type="line" smooth="yes"/>
      <point x="362.0" y="0.0"/>
      <point x="312.0" y="0.0" type="qcurve" smooth="yes"/>
    </contour>
  </outline>
</glyph>
<glyph name="O" format="2">
  <advance width="1524"/>
  <unicode hex="004F"/>
  <outline>
    <contour>
      <point x="92.0" y="717.0" type="qcurve" smooth="yes"/>
      <point x="92.0" y="1067.0"/>
      <point x="437.0" y="1464.0"/>
      <point x="762.0" y="1464.0" type="qcurve" smooth="yes"/>
      <point x="1087.0" y="1464.0"/>
      <point x="1432.0" y="1067.0"/>
      <point x="1432.0" y="717.0" type="qcurve" smooth="yes"/>
      <point x="1432.0" y="367.0"/>
      <point x="1087.0" y="-30.0"/>
      <point x="762.0" y="-30.0" type="qcurve" smooth="yes"/>
      <point x="437.0" y="-30.0"/>
      <point x="92.0" y="367.0"/>
    </contour>
    <contour>
      <point x="297.0" y="717.0" type="qcurve" smooth="yes"/>
      <point x="297.0" y="437.0"/>
      <point x="527.0" y="126.0"/>
      <point x="762.0" y="126.0" type="qcurve" smooth="yes"/>
      <point x="997.0" y="126.0"/>
      <point x="1227.0" y="437.0"/>
      <point x="1227.0" y="717.0" type="qcurve" smooth="yes"/>
      <point x="1227.0" y="997.0"/>
      <point x="997.0" y="1308.0"/>
      <point x="762.0" y="1308.0" type="qcurve" smooth="yes"/>
      <point x="527.0" y="1308.0"/>
      <point x="297.0" y="997.0"/>
    </contour>
  </outline>
</glyph>
<glyph name="backslash" format="2">
  <advance width="840"/>
  <unicode hex="005C"/>
  <outline>
    <contour>
      <point x="7.0" y="1391.0" type="line" smooth="yes"/>
      <point x="-10.0" y="1433.0"/>
      <point x="22.0" y="1446.0" type="qcurve" smooth="yes"/>
      <point x="67.0" y="1464.0" type="line" smooth="yes"/>
      <point x="101.0" y="1478.0"/>
      <point x="118.0" y="1436.0" type="qcurve" smooth="yes"/>
      <point x="833.0" y="-335.0" type="line" smooth="yes"/>
      <point x="850.0" y="-377.0"/>
      <point x="816.0" y="-391.0" type="qcurve" smooth="yes"/>
      <point x="771.0" y="-409.0" type="line" smooth="yes"/>
      <point x="739.0" y="-422.0"/>
      <point x="722.0" y="-380.0" type="qcurve" smooth="yes"/>
    </contour>
  </outline>
</glyph>
<glyph name="asciicircum" format="2">
  <advance width="866"/>
  <unicode hex="005E"/>
  <outline>
    <contour>
      <point x="90.0" y="923.0" type="line" smooth="yes"/>
      <point x="61.0" y="942.0"/>
      <point x="84.0" y="979.0" type="qcurve" smooth="yes"/>
      <point x="347.0" y="1400.0" type="line" smooth="yes"/>
      <point x="368.0" y="1434.0"/>
      <point x="412.0" y="1434.0" type="qcurve" smooth="yes"/>
      <point x="454.0" y="1434.0" type="line" smooth="yes"/>
      <point x="498.0" y="1434.0"/>
      <point x="519.0" y="1400.0" type="qcurve" smooth="yes"/>
      <point x="782.0" y="979.0" type="line" smooth="yes"/>
      <point x="805.0" y="942.0"/>
      <point x="776.0" y="923.0" type="qcurve" smooth="yes"/>
      <point x="727.0" y="891.0" type="line" smooth="yes"/>
      <point x="698.0" y="872.0"/>
      <point x="673.0" y="911.0" type="qcurve" smooth="yes"/>
      <point x="434.0" y="1290.0" type="line"/>
      <point x="432.0" y="1290.0" type="line"/>
      <point x="193.0" y="911.0" type="line" smooth="yes"/>
      <point x="168.0" y="872.0"/>
      <point x="139.0" y="891.0" type="qcurve" smooth="yes"/>
    </contour>
  </outline>
</glyph>
<glyph name="grave" format="2">
  <advance width="614"/>
  <unicode hex="0060"/>
  <outline>
    <contour>
      <point x="179.0" y="1383.0" type="line" smooth="yes"/>
      <point x="134.0" y="1435.0"/>
      <point x="193.0" y="1435.0" type="qcurve" smooth="yes"/>
      <point x="304.0" y="1435.0" type="line" smooth="yes"/>
      <point x="359.0" y="1435.0"/>
      <point x="385.0" y="1398.0" type="qcurve" smooth="yes"/>
      <point x="524.0" y="1203.0" type="line" smooth="yes"/>
      <point x="562.0" y="1150.0"/>
      <point x="512.0" y="1150.0" type="qcurve" smooth="yes"/>
      <point x="438.0" y="1150.0" type="line" smooth="yes"/>
      <point x="382.0" y="1150.0"/>
      <point x="357.0" y="1179.0" type="qcurve" smooth="yes"/>
    </contour>
  </outline>
</glyph>
<glyph name="f" format="2">
  <advance width="652"/>
  <unicode hex="0066"/>
  <outline>
    <contour>
      <point x="90.0" y="918.0" type="line" smooth="yes"/>
      <point x="45.0" y="918.0"/>
      <point x="45.0" y="953.0" type="qcurve" smooth="yes"/>
      <point x="45.0" y="1015.0" type="line" smooth="yes"/>
      <point x="45.0" y="1050.0"/>
      <point x="90.0" y="1050.0" type="qcurve" smooth="yes"/>
      <point x="197.0" y="1050.0" type="line"/>
      <point x="197.0" y="1199.0" type="line" smooth="yes"/>
      <point x="197.0" y="1366.0"/>
      <point x="377.0" y="1493.0"/>
      <point x="493.0" y="1493.0" type="qcurve" smooth="yes"/>
      <point x="562.0" y="1493.0"/>
      <point x="647.0" y="1479.0"/>
      <point x="705.0" y="1455.0" type="qcurve" smooth="yes"/>
      <point x="727.02099609375" y="1445.989990234375"/>
      <point x="718.0" y="1423.0" type="qcurve" smooth="yes"/>
      <point x="687.0" y="1344.0" type="line" smooth="yes"/>
      <point x="679.1279907226562" y="1323.93994140625"/>
      <point x="652.0" y="1336.0" type="qcurve" smooth="yes"/>
      <point x="630.0" y="1346.0"/>
      <point x="566.0" y="1363.0"/>
      <point x="529.0" y="1363.0" type="qcurve" smooth="yes"/>
      <point x="446.0" y="1363.0"/>
      <point x="373.0" y="1283.0"/>
      <point x="373.0" y="1170.0" type="qcurve" smooth="yes"/>
      <point x="373.0" y="1050.0" type="line"/>
      <point x="556.0" y="1050.0" type="line" smooth="yes"/>
      <point x="601.0" y="1050.0"/>
      <point x="601.0" y="1015.0" type="qcurve" smooth="yes"/>
      <point x="601.0" y="953.0" type="line" smooth="yes"/>
      <point x="601.0" y="918.0"/>
      <point x="556.0" y="918.0" type="qcurve" smooth="yes"/>
      <point x="373.0" y="918.0" type="line"/>
      <point x="373.0" y="45.0" type="line" smooth="yes"/>
      <point x="373.0" y="0.0"/>
      <point x="328.0" y="0.0" type="qcurve" smooth="yes"/>
      <point x="242.0" y="0.0" type="line" smooth="yes"/>
      <point x="197.0" y="0.0"/>
      <point x="197.0" y="45.0" type="qcurve" smooth="yes"/>
      <point x="197.0" y="918.0" type="line"/>
    </contour>
  </outline>
</glyph>
<glyph name="k" format="2">
  <advance width="1003"/>
  <unicode hex="006B"/>
  <outline>
    <contour>
      <point x="187.0" y="0.0" type="line" smooth="yes"/>
      <point x="142.0" y="0.0"/>
      <point x="142.0" y="45.0" type="qcurve" smooth="yes"/>
      <point x="142.0" y="1431.0" type="line" smooth="yes"/>
      <point x="142.0" y="1476.0"/>
      <point x="187.0" y="1476.0" type="qcurve" smooth="yes"/>
      <point x="273.0" y="1476.0" type="line" smooth="yes"/>
      <point x="318.0" y="1476.0"/>
      <point x="318.0" y="1431.0" type="qcurve" smooth="yes"/>
      <point x="318.0" y="599.0" type="line" smooth="yes"/>
      <point x="318.0" y="569.0"/>
      <point x="316.0" y="539.0" type="qcurve"/>
      <point x="318.0" y="539.0" type="line"/>
      <point x="723.0" y="1024.0" type="line" smooth="yes"/>
      <point x="745.0" y="1050.0"/>
      <point x="776.0" y="1050.0" type="qcurve" smooth="yes"/>
      <point x="867.0" y="1050.0" type="line" smooth="yes"/>
      <point x="943.0" y="1050.0"/>
      <point x="893.0" y="991.0" type="qcurve" smooth="yes"/>
      <point x="579.0" y="617.0" type="line"/>
      <point x="938.0" y="59.0" type="line" smooth="yes"/>
      <point x="976.0" y="0.0"/>
      <point x="912.0" y="0.0" type="qcurve" smooth="yes"/>
      <point x="814.0" y="0.0" type="line" smooth="yes"/>
      <point x="781.0" y="0.0"/>
      <point x="757.0" y="37.0" type="qcurve" smooth="yes"/>
      <point x="469.0" y="486.0" type="line"/>
      <point x="318.0" y="306.0" type="line"/>
      <point x="318.0" y="45.0" type="line" smooth="yes"/>
      <point x="318.0" y="0.0"/>
      <point x="273.0" y="0.0" type="qcurve" smooth="yes"/>
    </contour>
  </outline>
</glyph>
<glyph name="v" format="2">
  <advance width="986"/>
  <unicode hex="0076"/>
  <outline>
    <contour>
      <point x="45.0" y="1001.0" type="line" smooth="yes"/>
      <point x="28.0" y="1050.0"/>
      <point x="72.0" y="1050.0" type="qcurve" smooth="yes"/>
      <point x="181.0" y="1050.0" type="line" smooth="yes"/>
      <point x="213.0" y="1050.0"/>
      <point x="226.0" y="1011.0" type="qcurve" smooth="yes"/>
      <point x="438.0" y="351.0" type="line" smooth="yes"/>
      <point x="464.0" y="270.0"/>
      <point x="483.0" y="209.0"/>
      <point x="491.0" y="164.0" type="qcurve"/>
      <point x="495.0" y="164.0" type="line"/>
      <point x="503.0" y="209.0"/>
      <point x="522.0" y="270.0"/>
      <point x="548.0" y="351.0" type="qcurve" smooth="yes"/>
      <point x="760.0" y="1011.0" type="line" smooth="yes"/>
      <point x="773.0" y="1050.0"/>
      <point x="805.0" y="1050.0" type="qcurve" smooth="yes"/>
      <point x="914.0" y="1050.0" type="line" smooth="yes"/>
      <point x="958.0" y="1050.0"/>
      <point x="941.0" y="1001.0" type="qcurve" smooth="yes"/>
      <point x="613.0" y="61.0" type="line" smooth="yes"/>
      <point x="592.0" y="0.0"/>
      <point x="559.0" y="0.0" type="qcurve" smooth="yes"/>
      <point x="427.0" y="0.0" type="line" smooth="yes"/>
      <point x="394.0" y="0.0"/>
      <point x="373.0" y="61.0" type="qcurve" smooth="yes"/>
    </contour>
  </outline>
</glyph>
<glyph name="w" format="2">
  <advance width="1444"/>
  <unicode hex="0077"/>
  <outline>
    <contour>
      <point x="45.0" y="1001.0" type="line" smooth="yes"/>
      <point x="32.0" y="1050.0"/>
      <point x="72.0" y="1050.0" type="qcurve" smooth="yes"/>
      <point x="177.0" y="1050.0" type="line" smooth="yes"/>
      <point x="213.0" y="1050.0"/>
      <point x="222.0" y="1011.0" type="qcurve" smooth="yes"/>
      <point x="369.0" y="351.0" type="line" smooth="yes"/>
      <point x="376.0" y="322.0"/>
      <point x="405.0" y="198.0"/>
      <point x="411.0" y="169.0" type="qcurve"/>
      <point x="415.0" y="169.0" type="line"/>
      <point x="420.0" y="197.0"/>
      <point x="445.0" y="309.0"/>
      <point x="456.0" y="351.0" type="qcurve" smooth="yes"/>
      <point x="632.0" y="1011.0" type="line" smooth="yes"/>
      <point x="642.0" y="1050.0"/>
      <point x="677.0" y="1050.0" type="qcurve" smooth="yes"/>
      <point x="767.0" y="1050.0" type="line" smooth="yes"/>
      <point x="802.0" y="1050.0"/>
      <point x="812.0" y="1011.0" type="qcurve" smooth="yes"/>
      <point x="988.0" y="351.0" type="line" smooth="yes"/>
      <point x="999.0" y="309.0"/>
      <point x="1024.0" y="197.0"/>
      <point x="1029.0" y="169.0" type="qcurve"/>
      <point x="1033.0" y="169.0" type="line"/>
      <point x="1039.0" y="198.0"/>
      <point x="1068.0" y="322.0"/>
      <point x="1075.0" y="351.0" type="qcurve" smooth="yes"/>
      <point x="1222.0" y="1011.0" type="line" smooth="yes"/>
      <point x="1231.0" y="1050.0"/>
      <point x="1267.0" y="1050.0" type="qcurve" smooth="yes"/>
      <point x="1372.0" y="1050.0" type="line" smooth="yes"/>
      <point x="1412.0" y="1050.0"/>
      <point x="1399.0" y="1001.0" type="qcurve" smooth="yes"/>
      <point x="1151.0" y="61.0" type="line" smooth="yes"/>
      <point x="1135.0" y="0.0"/>
      <point x="1097.0" y="0.0" type="qcurve" smooth="yes"/>
      <point x="977.0" y="0.0" type="line" smooth="yes"/>
      <point x="939.0" y="-0.0"/>
      <point x="923.0" y="61.0" type="qcurve" smooth="yes"/>
      <point x="753.0" y="722.0" type="line" smooth="yes"/>
      <point x="735.0" y="792.0"/>
      <point x="726.0" y="848.0"/>
      <point x="723.0" y="873.0" type="qcurve"/>
      <point x="721.0" y="873.0" type="line"/>
      <point x="718.0" y="848.0"/>
      <point x="709.0" y="792.0"/>
      <point x="691.0" y="722.0" type="qcurve" smooth="yes"/>
      <point x="521.0" y="61.0" type="line" smooth="yes"/>
      <point x="505.0" y="0.0"/>
      <point x="467.0" y="0.0" type="qcurve" smooth="yes"/>
      <point x="347.0" y="0.0" type="line" smooth="yes"/>
      <point x="309.0" y="-0.0"/>
      <point x="293.0" y="61.0" type="qcurve" smooth="yes"/>
    </contour>
  </outline>
</glyph>
<glyph name="currency" format="2">
  <advance width="1110"/>
  <unicode hex="00A4"/>
  <outline>
    <contour>
      <point x="90.0" y="289.0" type="line" smooth="yes"/>
      <point x="64.0" y="313.0"/>
      <point x="95.0" y="346.0" type="qcurve" smooth="yes"/>
      <point x="226.0" y="486.0" type="line"/>
      <point x="152.0" y="592.0"/>
      <point x="152.0" y="728.0" type="qcurve" smooth="yes"/>
      <point x="152.0" y="864.0"/>
      <point x="226.0" y="970.0" type="qcurve"/>
      <point x="95.0" y="1110.0" type="line" smooth="yes"/>
      <point x="64.0" y="1143.0"/>
      <point x="90.0" y="1167.0" type="qcurve" smooth="yes"/>
      <point x="127.0" y="1201.0" type="line" smooth="yes"/>
      <point x="153.0" y="1225.0"/>
      <point x="183.0" y="1192.0" type="qcurve" smooth="yes"/>
      <point x="307.0" y="1059.0" type="line"/>
      <point x="411.0" y="1144.0"/>
      <point x="555.0" y="1144.0" type="qcurve" smooth="yes"/>
      <point x="699.0" y="1144.0"/>
      <point x="803.0" y="1059.0" type="qcurve"/>
      <point x="927.0" y="1192.0" type="line" smooth="yes"/>
      <point x="957.0" y="1225.0"/>
      <point x="983.0" y="1201.0" type="qcurve" smooth="yes"/>
      <point x="1020.0" y="1167.0" type="line" smooth="yes"/>
      <point x="1046.0" y="1143.0"/>
      <point x="1015.0" y="1110.0" type="qcurve" smooth="yes"/>
      <point x="884.0" y="970.0" type="line"/>
      <point x="958.0" y="864.0"/>
      <point x="958.0" y="728.0" type="qcurve" smooth="yes"/>
      <point x="958.0" y="592.0"/>
      <point x="884.0" y="486.0" type="qcurve"/>
      <point x="1015.0" y="346.0" type="line" smooth="yes"/>
      <point x="1046.0" y="313.0"/>
      <point x="1020.0" y="289.0" type="qcurve" smooth="yes"/>
      <point x="983.0" y="255.0" type="line" smooth="yes"/>
      <point x="957.0" y="231.0"/>
      <point x="927.0" y="264.0" type="qcurve" smooth="yes"/>
      <point x="803.0" y="397.0" type="line"/>
      <point x="699.0" y="312.0"/>
      <point x="555.0" y="312.0" type="qcurve" smooth="yes"/>
      <point x="411.0" y="312.0"/>
      <point x="307.0" y="397.0" type="qcurve"/>
      <point x="183.0" y="264.0" type="line" smooth="yes"/>
      <point x="153.0" y="231.0"/>
      <point x="127.0" y="255.0" type="qcurve" smooth="yes"/>
    </contour>
    <contour>
      <point x="285.0" y="728.0" type="qcurve" smooth="yes"/>
      <point x="285.0" y="611.0"/>
      <point x="435.0" y="442.0"/>
      <point x="555.0" y="442.0" type="qcurve" smooth="yes"/>
      <point x="675.0" y="442.0"/>
      <point x="825.0" y="611.0"/>
      <point x="825.0" y="728.0" type="qcurve" smooth="yes"/>
      <point x="825.0" y="845.0"/>
      <point x="675.0" y="1014.0"/>
      <point x="555.0" y="1014.0" type="qcurve" smooth="yes"/>
      <point x="435.0" y="1014.0"/>
      <point x="285.0" y="845.0"/>
    </contour>
  </outline>
</glyph>
<glyph name="registered" format="2">
  <advance width="1654"/>
  <unicode hex="00AE"/>
  <outline>
    <contour>
      <point x="80.0" y="717.0" type="qcurve" smooth="yes"/>
      <point x="80.0" y="869.0"/>
      <point x="199.0" y="1145.0"/>
      <point x="399.0" y="1345.0"/>
      <point x="675.0" y="1464.0"/>
      <point x="827.0" y="1464.0" type="qcurve" smooth="yes"/>
      <point x="979.0" y="1464.0"/>
      <point x="1255.0" y="1345.0"/>
      <point x="1455.0" y="1145.0"/>
      <point x="1574.0" y="869.0"/>
      <point x="1574.0" y="717.0" type="qcurve" smooth="yes"/>
      <point x="1574.0" y="565.0"/>
      <point x="1455.0" y="289.0"/>
      <point x="1255.0" y="89.0"/>
      <point x="979.0" y="-30.0"/>
      <point x="827.0" y="-30.0" type="qcurve" smooth="yes"/>
      <point x="675.0" y="-30.0"/>
      <point x="399.0" y="89.0"/>
      <point x="199.0" y="289.0"/>
      <point x="80.0" y="565.0"/>
    </contour>
    <contour>
      <point x="180.0" y="717.0" type="qcurve" smooth="yes"/>
      <point x="180.0" y="585.0"/>
      <point x="283.0" y="346.0"/>
      <point x="456.0" y="173.0"/>
      <point x="695.0" y="66.0"/>
      <point x="827.0" y="66.0" type="qcurve" smooth="yes"/>
      <point x="959.0" y="66.0"/>
      <point x="1198.0" y="173.0"/>
      <point x="1371.0" y="346.0"/>
      <point x="1474.0" y="585.0"/>
      <point x="1474.0" y="717.0" type="qcurve" smooth="yes"/>
      <point x="1474.0" y="849.0"/>
      <point x="1371.0" y="1088.0"/>
      <point x="1198.0" y="1261.0"/>
      <point x="959.0" y="1368.0"/>
      <point x="827.0" y="1368.0" type="qcurve" smooth="yes"/>
      <point x="695.0" y="1368.0"/>
      <point x="456.0" y="1261.0"/>
      <point x="283.0" y="1088.0"/>
      <point x="180.0" y="849.0"/>
    </contour>
    <contour>
      <point x="569.0" y="283.0" type="line" smooth="yes"/>
      <point x="540.0" y="283.0"/>
      <point x="540.0" y="315.0" type="qcurve" smooth="yes"/>
      <point x="540.0" y="1083.0" type="line" smooth="yes"/>
      <point x="540.0" y="1115.0"/>
      <point x="569.0" y="1115.0" type="qcurve" smooth="yes"/>
      <point x="849.0" y="1115.0" type="line" smooth="yes"/>
      <point x="1017.0" y="1115.0"/>
      <point x="1167.0" y="989.0"/>
      <point x="1167.0" y="887.0" type="qcurve" smooth="yes"/>
      <point x="1167.0" y="797.0"/>
      <point x="1050.0" y="672.0"/>
      <point x="934.0" y="658.0" type="qcurve"/>
      <point x="934.0" y="657.0" type="line"/>
      <point x="991.0" y="622.0"/>
      <point x="1031.0" y="574.0"/>
      <point x="1055.0" y="534.0" type="qcurve" smooth="yes"/>
      <point x="1186.0" y="322.0" type="line" smooth="yes"/>
      <point x="1210.0" y="283.0"/>
      <point x="1175.0" y="283.0" type="qcurve" smooth="yes"/>
      <point x="1099.0" y="283.0" type="line" smooth="yes"/>
      <point x="1073.0" y="283.0"/>
      <point x="1059.0" y="306.0" type="qcurve" smooth="yes"/>
      <point x="943.0" y="503.0" type="line" smooth="yes"/>
      <point x="920.0" y="542.0"/>
      <point x="815.0" y="633.0"/>
      <point x="742.0" y="633.0" type="qcurve" smooth="yes"/>
      <point x="660.0" y="633.0" type="line"/>
      <point x="660.0" y="315.0" type="line" smooth="yes"/>
      <point x="660.0" y="283.0"/>
      <point x="631.0" y="283.0" type="qcurve" smooth="yes"/>
    </contour>
    <contour>
      <point x="660.0" y="743.0" type="line"/>
      <point x="809.0" y="743.0" type="line" smooth="yes"/>
      <point x="922.0" y="743.0"/>
      <point x="1042.0" y="808.0"/>
      <point x="1042.0" y="884.0" type="qcurve" smooth="yes"/>
      <point x="1042.0" y="954.0"/>
      <point x="932.0" y="1005.0"/>
      <point x="837.0" y="1005.0" type="qcurve" smooth="yes"/>
      <point x="660.0" y="1005.0" type="line"/>
    </contour>
  </outline>
</glyph>
<glyph name="degree" format="2">
  <advance width="560"/>
  <unicode hex="00B0"/>
  <outline>
    <contour>
      <point x="80.0" y="1240.0" type="qcurve" smooth="yes"/>
      <point x="80.0" y="1323.0"/>
      <point x="197.0" y="1440.0"/>
      <point x="280.0" y="1440.0" type="qcurve" smooth="yes"/>
      <point x="363.0" y="1440.0"/>
      <point x="480.0" y="1323.0"/>
      <point x="480.0" y="1240.0" type="qcurve" smooth="yes"/>
      <point x="480.0" y="1157.0"/>
      <point x="363.0" y="1040.0"/>
      <point x="280.0" y="1040.0" type="qcurve" smooth="yes"/>
      <point x="197.0" y="1040.0"/>
      <point x="80.0" y="1157.0"/>
    </contour>
    <contour>
      <point x="180.0" y="1240.0" type="qcurve" smooth="yes"/>
      <point x="180.0" y="1198.0"/>
      <point x="238.0" y="1140.0"/>
      <point x="280.0" y="1140.0" type="qcurve" smooth="yes"/>
      <point x="322.0" y="1140.0"/>
      <point x="380.0" y="1198.0"/>
      <point x="380.0" y="1240.0" type="qcurve" smooth="yes"/>
      <point x="380.0" y="1282.0"/>
      <point x="322.0" y="1340.0"/>
      <point x="280.0" y="1340.0" type="qcurve" smooth="yes"/>
      <point x="238.0" y="1340.0"/>
      <point x="180.0" y="1282.0"/>
    </contour>
  </outline>
</glyph>
<glyph name="uni00B2" format="2">
  <advance width="590"/>
  <unicode hex="00B2"/>
  <outline>
    <contour>
      <point x="77.0" y="712.0" type="line" smooth="yes"/>
      <point x="49.0" y="712.0"/>
      <point x="49.0" y="735.0" type="qcurve" smooth="yes"/>
      <point x="49.0" y="776.0" type="line" smooth="yes"/>
      <point x="49.0" y="797.0"/>
      <point x="66.0" y="814.0" type="qcurve" smooth="yes"/>
      <point x="270.0" y="1019.0" type="line" smooth="yes"/>
      <point x="369.0" y="1120.0"/>
      <point x="407.0" y="1202.0"/>
      <point x="407.0" y="1258.0" type="qcurve" smooth="yes"/>
      <point x="407.0" y="1295.0"/>
      <point x="348.0" y="1366.0"/>
      <point x="288.0" y="1366.0" type="qcurve" smooth="yes"/>
      <point x="250.0" y="1366.0"/>
      <point x="174.0" y="1325.0"/>
      <point x="152.0" y="1259.0" type="qcurve" smooth="yes"/>
      <point x="143.0" y="1231.0"/>
      <point x="121.0" y="1236.0" type="qcurve" smooth="yes"/>
      <point x="64.0" y="1249.0" type="line" smooth="yes"/>
      <point x="48.0" y="1253.0"/>
      <point x="57.0" y="1293.0" type="qcurve" smooth="yes"/>
      <point x="72.0" y="1361.0"/>
      <point x="188.0" y="1466.0"/>
      <point x="284.0" y="1466.0" type="qcurve" smooth="yes"/>
      <point x="418.0" y="1466.0"/>
      <point x="531.0" y="1357.0"/>
      <point x="531.0" y="1255.0" type="qcurve" smooth="yes"/>
      <point x="531.0" y="1179.0"/>
      <point x="446.0" y="1053.0"/>
      <point x="356.0" y="964.0" type="qcurve" smooth="yes"/>
      <point x="211.0" y="820.0" type="line"/>
      <point x="211.0" y="817.0" type="line"/>
      <point x="232.0" y="819.0"/>
      <point x="252.0" y="819.0" type="qcurve" smooth="yes"/>
      <point x="510.0" y="819.0" type="line" smooth="yes"/>
      <point x="539.0" y="819.0"/>
      <point x="539.0" y="796.0" type="qcurve" smooth="yes"/>
      <point x="539.0" y="735.0" type="line" smooth="yes"/>
      <point x="539.0" y="712.0"/>
      <point x="510.0" y="712.0" type="qcurve" smooth="yes"/>
    </contour>
  </outline>
</glyph>
<glyph name="uni00B3" format="2">
  <advance width="594"/>
  <unicode hex="00B3"/>
  <outline>
    <contour>
      <point x="57.0" y="789.0" type="qcurve" smooth="yes"/>
      <point x="35.0" y="814.0"/>
      <point x="48.0" y="828.0" type="qcurve" smooth="yes"/>
      <point x="90.0" y="872.0" type="line" smooth="yes"/>
      <point x="108.0" y="891.0"/>
      <point x="132.0" y="862.0" type="qcurve" smooth="yes"/>
      <point x="162.0" y="825.0"/>
      <point x="230.0" y="796.0"/>
      <point x="268.0" y="796.0" type="qcurve" smooth="yes"/>
      <point x="350.0" y="796.0"/>
      <point x="415.0" y="877.0"/>
      <point x="415.0" y="931.0" type="qcurve" smooth="yes"/>
      <point x="415.0" y="989.0"/>
      <point x="324.0" y="1063.0"/>
      <point x="270.0" y="1063.0" type="qcurve" smooth="yes"/>
      <point x="224.0" y="1063.0" type="line" smooth="yes"/>
      <point x="201.0" y="1063.0"/>
      <point x="201.0" y="1080.0" type="qcurve" smooth="yes"/>
      <point x="201.0" y="1140.0" type="line" smooth="yes"/>
      <point x="201.0" y="1158.0"/>
      <point x="224.0" y="1158.0" type="qcurve" smooth="yes"/>
      <point x="261.0" y="1158.0" type="line" smooth="yes"/>
      <point x="312.0" y="1158.0"/>
      <point x="390.0" y="1223.0"/>
      <point x="390.0" y="1287.0" type="qcurve" smooth="yes"/>
      <point x="390.0" y="1315.0"/>
      <point x="328.0" y="1366.0"/>
      <point x="275.0" y="1366.0" type="qcurve" smooth="yes"/>
      <point x="232.0" y="1366.0"/>
      <point x="164.0" y="1341.0"/>
      <point x="145.0" y="1319.0" type="qcurve" smooth="yes"/>
      <point x="124.0" y="1295.0"/>
      <point x="107.0" y="1311.0" type="qcurve" smooth="yes"/>
      <point x="66.0" y="1349.0" type="line" smooth="yes"/>
      <point x="52.0" y="1362.0"/>
      <point x="77.0" y="1392.0" type="qcurve" smooth="yes"/>
      <point x="104.0" y="1424.0"/>
      <point x="207.0" y="1466.0"/>
      <point x="277.0" y="1466.0" type="qcurve" smooth="yes"/>
      <point x="390.0" y="1466.0"/>
      <point x="510.0" y="1377.0"/>
      <point x="510.0" y="1280.0" type="qcurve" smooth="yes"/>
      <point x="510.0" y="1209.0"/>
      <point x="417.0" y="1127.0"/>
      <point x="369.0" y="1116.0" type="qcurve"/>
      <point x="369.0" y="1114.0" type="line"/>
      <point x="425.0" y="1106.0"/>
      <point x="539.0" y="1011.0"/>
      <point x="539.0" y="929.0" type="qcurve" smooth="yes"/>
      <point x="539.0" y="821.0"/>
      <point x="402.0" y="696.0"/>
      <point x="265.0" y="696.0" type="qcurve" smooth="yes"/>
      <point x="186.0" y="696.0"/>
      <point x="84.0" y="758.0"/>
    </contour>
  </outline>
</glyph>
<glyph name="multiply" format="2">
  <advance width="1280"/>
  <unicode hex="00D7"/>
  <outline>
    <contour>
      <point x="225.23800659179688" y="346.89801025390625" type="line" smooth="yes"/>
      <point x="200.48899841308594" y="371.6470031738281"/>
      <point x="232.30999755859375" y="403.4679870605469" type="qcurve" smooth="yes"/>
      <point x="553.3359985351562" y="724.4940185546875" type="line"/>
      <point x="232.30999755859375" y="1045.52001953125" type="line" smooth="yes"/>
      <point x="200.48899841308594" y="1077.3399658203125"/>
      <point x="225.23800659179688" y="1102.0899658203125" type="qcurve" smooth="yes"/>
      <point x="260.593994140625" y="1137.43994140625" type="line" smooth="yes"/>
      <point x="285.3429870605469" y="1162.18994140625"/>
      <point x="317.1619873046875" y="1130.3699951171875" type="qcurve" smooth="yes"/>
      <point x="638.18798828125" y="809.3469848632812" type="line"/>
      <point x="960.6300048828125" y="1131.7900390625" type="line" smooth="yes"/>
      <point x="992.448974609375" y="1163.6099853515625"/>
      <point x="1017.2000122070312" y="1138.8599853515625" type="qcurve" smooth="yes"/>
      <point x="1052.550048828125" y="1103.5" type="line" smooth="yes"/>
      <point x="1077.300048828125" y="1078.75"/>
      <point x="1045.47998046875" y="1046.9300537109375" type="qcurve" smooth="yes"/>
      <point x="723.0419921875" y="724.4940185546875" type="line"/>
      <point x="1045.47998046875" y="402.0530090332031" type="line" smooth="yes"/>
      <point x="1077.300048828125" y="370.2330017089844"/>
      <point x="1052.550048828125" y="345.4840087890625" type="qcurve" smooth="yes"/>
      <point x="1017.2000122070312" y="310.1289978027344" type="line" smooth="yes"/>
      <point x="992.448974609375" y="285.3810119628906"/>
      <point x="960.6300048828125" y="317.20001220703125" type="qcurve" smooth="yes"/>
      <point x="638.18798828125" y="639.6409912109375" type="line"/>
      <point x="317.1619873046875" y="318.614013671875" type="line" smooth="yes"/>
      <point x="285.3429870605469" y="286.7950134277344"/>
      <point x="260.593994140625" y="311.5429992675781" type="qcurve" smooth="yes"/>
    </contour>
  </outline>
</glyph>
<glyph name="oslash" format="2">
  <advance width="1148"/>
  <unicode hex="00F8"/>
  <outline>
    <contour>
      <point x="85.0" y="525.0" type="qcurve" smooth="yes"/>
      <point x="85.0" y="760.0"/>
      <point x="334.0" y="1067.0"/>
      <point x="574.0" y="1067.0" type="qcurve" smooth="yes"/>
      <point x="773.0" y="1067.0"/>
      <point x="892.0" y="962.0" type="qcurve"/>
      <point x="970.0" y="1045.0" type="line" smooth="yes"/>
      <point x="1001.0" y="1078.0"/>
      <point x="1027.0" y="1054.0" type="qcurve" smooth="yes"/>
      <point x="1071.0" y="1014.0" type="line" smooth="yes"/>
      <point x="1097.0" y="990.0"/>
      <point x="1066.0" y="957.0" type="qcurve" smooth="yes"/>
      <point x="976.0" y="861.0" type="line"/>
      <point x="1063.0" y="722.0"/>
      <point x="1063.0" y="525.0" type="qcurve" smooth="yes"/>
      <point x="1063.0" y="290.0"/>
      <point x="814.0" y="-17.0"/>
      <point x="574.0" y="-17.0" type="qcurve" smooth="yes"/>
      <point x="375.0" y="-17.0"/>
      <point x="256.0" y="88.0" type="qcurve"/>
      <point x="178.0" y="5.0" type="line" smooth="yes"/>
      <point x="147.0" y="-28.0"/>
      <point x="121.0" y="-4.0" type="qcurve" smooth="yes"/>
      <point x="77.0" y="36.0" type="line" smooth="yes"/>
      <point x="51.0" y="60.0"/>
      <point x="82.0" y="93.0" type="qcurve" smooth="yes"/>
      <point x="172.0" y="189.0" type="line"/>
      <point x="85.0" y="329.0"/>
    </contour>
    <contour>
      <point x="271.0" y="525.0" type="qcurve" smooth="yes"/>
      <point x="271.0" y="407.0"/>
      <point x="297.0" y="324.0" type="qcurve"/>
      <point x="785.0" y="847.0" type="line"/>
      <point x="704.0" y="937.0"/>
      <point x="574.0" y="937.0" type="qcurve" smooth="yes"/>
      <point x="437.0" y="937.0"/>
      <point x="271.0" y="735.0"/>
    </contour>
    <contour>
      <point x="363.0" y="203.0" type="line"/>
      <point x="444.0" y="113.0"/>
      <point x="574.0" y="113.0" type="qcurve" smooth="yes"/>
      <point x="711.0" y="113.0"/>
      <point x="877.0" y="315.0"/>
      <point x="877.0" y="525.0" type="qcurve" smooth="yes"/>
      <point x="877.0" y="642.0"/>
      <point x="851.0" y="726.0" type="qcurve"/>
    </contour>
  </outline>
</glyph>
<glyph name="eogonek" format="2">
  <advance width="1098"/>
  <unicode hex="0119"/>
  <outline>
    <contour>
      <point x="85.0" y="525.0" type="qcurve" smooth="yes"/>
      <point x="85.0" y="773.0"/>
      <point x="333.0" y="1067.0"/>
      <point x="564.0" y="1067.0" type="qcurve" smooth="yes"/>
      <point x="756.0" y="1067.0"/>
      <point x="1009.0" y="798.0"/>
      <point x="1009.0" y="503.0" type="qcurve" smooth="yes"/>
      <point x="1009.0" y="458.0"/>
      <point x="968.0" y="458.0" type="qcurve" smooth="yes"/>
      <point x="271.0" y="458.0" type="line"/>
      <point x="288.0" y="265.0"/>
      <point x="462.0" y="114.0"/>
      <point x="572.0" y="114.0" type="qcurve" smooth="yes"/>
      <point x="688.0" y="114.0"/>
      <point x="812.0" y="192.0"/>
      <point x="841.0" y="230.0" type="qcurve" smooth="yes"/>
      <point x="873.0" y="272.0"/>
      <point x="903.0" y="246.0" type="qcurve" smooth="yes"/>
      <point x="962.0" y="195.0" type="line" smooth="yes"/>
      <point x="989.0" y="172.0"/>
      <point x="962.0" y="140.0" type="qcurve" smooth="yes"/>
      <point x="931.0" y="103.0"/>
      <point x="868.0" y="56.0"/>
      <point x="826.0" y="29.0" type="qcurve"/>
      <point x="769.0" y="-24.0"/>
      <point x="623.0" y="-155.0"/>
      <point x="623.0" y="-211.0" type="qcurve" smooth="yes"/>
      <point x="623.0" y="-251.0"/>
      <point x="670.0" y="-287.0"/>
      <point x="704.0" y="-287.0" type="qcurve" smooth="yes"/>
      <point x="754.0" y="-287.0"/>
      <point x="784.0" y="-280.0" type="qcurve" smooth="yes"/>
      <point x="805.0" y="-275.0"/>
      <point x="809.0" y="-299.0" type="qcurve" smooth="yes"/>
      <point x="822.0" y="-378.0" type="line" smooth="yes"/>
      <point x="826.0" y="-402.0"/>
      <point x="804.0" y="-406.0" type="qcurve" smooth="yes"/>
      <point x="739.0" y="-417.0"/>
      <point x="681.0" y="-417.0" type="qcurve" smooth="yes"/>
      <point x="565.0" y="-417.0"/>
      <point x="463.0" y="-316.0"/>
      <point x="463.0" y="-255.0" type="qcurve" smooth="yes"/>
      <point x="463.0" y="-202.0"/>
      <point x="506.0" y="-113.0"/>
      <point x="566.0" y="-57.0"/>
      <point x="620.0" y="-17.0" type="qcurve"/>
      <point x="620.0" y="-15.0" type="line"/>
      <point x="596.0" y="-17.0"/>
      <point x="572.0" y="-17.0" type="qcurve" smooth="yes"/>
      <point x="322.0" y="-17.0"/>
      <point x="85.0" y="277.0"/>
    </contour>
    <contour>
      <point x="267.0" y="588.0" type="qcurve"/>
      <point x="832.0" y="588.0" type="line"/>
      <point x="828.0" y="728.0"/>
      <point x="692.0" y="939.0"/>
      <point x="560.0" y="939.0" type="qcurve" smooth="yes"/>
      <point x="444.0" y="939.0"/>
      <point x="282.0" y="784.0"/>
    </contour>
  </outline>
</glyph>
<glyph name="oe" format="2">
  <advance width="1890"/>
  <unicode hex="0153"/>
  <outline>
    <contour>
      <point x="85.0" y="525.0" type="qcurve" smooth="yes"/>
      <point x="85.0" y="760.0"/>
      <point x="334.0" y="1067.0"/>
      <point x="574.0" y="1067.0" type="qcurve" smooth="yes"/>
      <point x="720.0" y="1067.0"/>
      <point x="915.0" y="959.0"/>
      <point x="967.0" y="874.0" type="qcurve"/>
      <point x="968.0" y="874.0" type="line"/>
      <point x="1018.0" y="958.0"/>
      <point x="1208.0" y="1067.0"/>
      <point x="1356.0" y="1067.0" type="qcurve" smooth="yes"/>
      <point x="1548.0" y="1067.0"/>
      <point x="1801.0" y="798.0"/>
      <point x="1801.0" y="503.0" type="qcurve" smooth="yes"/>
      <point x="1801.0" y="458.0"/>
      <point x="1760.0" y="458.0" type="qcurve" smooth="yes"/>
      <point x="1063.0" y="458.0" type="line"/>
      <point x="1080.0" y="265.0"/>
      <point x="1254.0" y="114.0"/>
      <point x="1364.0" y="114.0" type="qcurve" smooth="yes"/>
      <point x="1480.0" y="114.0"/>
      <point x="1604.0" y="192.0"/>
      <point x="1633.0" y="230.0" type="qcurve" smooth="yes"/>
      <point x="1665.0" y="272.0"/>
      <point x="1695.0" y="246.0" type="qcurve" smooth="yes"/>
      <point x="1754.0" y="195.0" type="line" smooth="yes"/>
      <point x="1777.0" y="175.0"/>
      <point x="1754.0" y="140.0" type="qcurve" smooth="yes"/>
      <point x="1735.0" y="111.0"/>
      <point x="1556.0" y="-17.0"/>
      <point x="1364.0" y="-17.0" type="qcurve" smooth="yes"/>
      <point x="1216.0" y="-17.0"/>
      <point x="1016.0" y="84.0"/>
      <point x="966.0" y="173.0" type="qcurve"/>
      <point x="964.0" y="173.0" type="line"/>
      <point x="912.0" y="88.0"/>
      <point x="720.0" y="-17.0"/>
      <point x="574.0" y="-17.0" type="qcurve" smooth="yes"/>
      <point x="334.0" y="-17.0"/>
      <point x="85.0" y="290.0"/>
    </contour>
    <contour>
      <point x="271.0" y="525.0" type="qcurve" smooth="yes"/>
      <point x="271.0" y="315.0"/>
      <point x="437.0" y="113.0"/>
      <point x="574.0" y="113.0" type="qcurve" smooth="yes"/>
      <point x="711.0" y="113.0"/>
      <point x="877.0" y="315.0"/>
      <point x="877.0" y="525.0" type="qcurve" smooth="yes"/>
      <point x="877.0" y="735.0"/>
      <point x="711.0" y="937.0"/>
      <point x="574.0" y="937.0" type="qcurve" smooth="yes"/>
      <point x="437.0" y="937.0"/>
      <point x="271.0" y="735.0"/>
    </contour>
    <contour>
      <point x="1059.0" y="588.0" type="qcurve"/>
      <point x="1624.0" y="588.0" type="line"/>
      <point x="1620.0" y="728.0"/>
      <point x="1484.0" y="939.0"/>
      <point x="1352.0" y="939.0" type="qcurve" smooth="yes"/>
      <point x="1236.0" y="939.0"/>
      <point x="1074.0" y="784.0"/>
    </contour>
  </outline>
</glyph>
<glyph name="uni0191" format="2">
  <advance width="1166"/>
  <unicode hex="0191"/>
  <outline>
    <contour>
      <point x="-161.0" y="-382.0" type="qcurve" smooth="yes"/>
      <point x="-201.0" y="-366.0"/>
      <point x="-189.0" y="-324.0" type="qcurve" smooth="yes"/>
      <point x="-168.0" y="-253.0" type="line" smooth="yes"/>
      <point x="-154.0" y="-207.0"/>
      <point x="-100.0" y="-232.0" type="qcurve" smooth="yes"/>
      <point x="-38.0" y="-261.0"/>
      <point x="16.0" y="-261.0" type="qcurve" smooth="yes"/>
      <point x="94.0" y="-261.0"/>
      <point x="170.0" y="-158.0"/>
      <point x="170.0" y="38.0" type="qcurve" smooth="yes"/>
      <point x="170.0" y="1379.0" type="line" smooth="yes"/>
      <point x="170.0" y="1434.0"/>
      <point x="220.0" y="1434.0" type="qcurve" smooth="yes"/>
      <point x="1035.0" y="1434.0" type="line" smooth="yes"/>
      <point x="1090.0" y="1434.0"/>
      <point x="1090.0" y="1389.0" type="qcurve" smooth="yes"/>
      <point x="1090.0" y="1315.0" type="line" smooth="yes"/>
      <point x="1090.0" y="1270.0"/>
      <point x="1035.0" y="1270.0" type="qcurve" smooth="yes"/>
      <point x="362.0" y="1270.0" type="line"/>
      <point x="362.0" y="796.0" type="line"/>
      <point x="949.0" y="796.0" type="line" smooth="yes"/>
      <point x="1004.0" y="796.0"/>
      <point x="1004.0" y="751.0" type="qcurve" smooth="yes"/>
      <point x="1004.0" y="677.0" type="line" smooth="yes"/>
      <point x="1004.0" y="632.0"/>
      <point x="949.0" y="632.0" type="qcurve" smooth="yes"/>
      <point x="362.0" y="632.0" type="line"/>
      <point x="362.0" y="-9.0" type="line" smooth="yes"/>
      <point x="362.0" y="-236.0"/>
      <point x="190.0" y="-417.0"/>
      <point x="22.0" y="-417.0" type="qcurve" smooth="yes"/>
      <point x="-71.0" y="-417.0"/>
    </contour>
  </outline>
</glyph>
<glyph name="uni019E" format="2">
  <advance width="1130"/>
  <unicode hex="019E"/>
  <outline>
    <contour>
      <point x="187.0" y="0.0" type="line" smooth="yes"/>
      <point x="142.0" y="0.0"/>
      <point x="142.0" y="45.0" type="qcurve" smooth="yes"/>
      <point x="142.0" y="1005.0" type="line" smooth="yes"/>
      <point x="142.0" y="1050.0"/>
      <point x="187.0" y="1050.0" type="qcurve" smooth="yes"/>
      <point x="271.0" y="1050.0" type="line" smooth="yes"/>
      <point x="316.0" y="1050.0"/>
      <point x="316.0" y="1005.0" type="qcurve" smooth="yes"/>
      <point x="316.0" y="925.0" type="line"/>
      <point x="320.0" y="925.0" type="line"/>
      <point x="385.0" y="997.0"/>
      <point x="535.0" y="1067.0"/>
      <point x="647.0" y="1067.0" type="qcurve" smooth="yes"/>
      <point x="829.0" y="1067.0"/>
      <point x="988.0" y="862.0"/>
      <point x="988.0" y="684.0" type="qcurve" smooth="yes"/>
      <point x="988.0" y="-355.0" type="line" smooth="yes"/>
      <point x="988.0" y="-400.0"/>
      <point x="943.0" y="-400.0" type="qcurve" smooth="yes"/>
      <point x="857.0" y="-400.0" type="line" smooth="yes"/>
      <point x="812.0" y="-400.0"/>
      <point x="812.0" y="-355.0" type="qcurve" smooth="yes"/>
      <point x="812.0" y="636.0" type="line" smooth="yes"/>
      <point x="812.0" y="832.0"/>
      <point x="682.0" y="937.0"/>
      <point x="582.0" y="937.0" type="qcurve" smooth="yes"/>
      <point x="452.0" y="937.0"/>
      <point x="318.0" y="782.0"/>
      <point x="318.0" y="594.0" type="qcurve" smooth="yes"/>
      <point x="318.0" y="45.0" type="line" smooth="yes"/>
      <point x="318.0" y="0.0"/>
      <point x="273.0" y="0.0" type="qcurve" smooth="yes"/>
    </contour>
  </outline>
</glyph>
<glyph name="uni0241" format="2">
  <advance width="1030"/>
  <unicode hex="0241"/>
  <outline>
    <contour>
      <point x="111.0" y="1176.0" type="line" smooth="yes"/>
      <point x="79.0" y="1196.0"/>
      <point x="109.0" y="1259.0" type="qcurve" smooth="yes"/>
      <point x="135.0" y="1314.0"/>
      <point x="336.0" y="1464.0"/>
      <point x="500.0" y="1464.0" type="qcurve" smooth="yes"/>
      <point x="684.0" y="1464.0"/>
      <point x="926.0" y="1254.0"/>
      <point x="926.0" y="1069.0" type="qcurve" smooth="yes"/>
      <point x="926.0" y="894.0"/>
      <point x="610.0" y="531.0"/>
      <point x="610.0" y="355.0" type="qcurve" smooth="yes"/>
      <point x="610.0" y="55.0" type="line" smooth="yes"/>
      <point x="610.0" y="0.0"/>
      <point x="560.0" y="0.0" type="qcurve" smooth="yes"/>
      <point x="468.0" y="0.0" type="line" smooth="yes"/>
      <point x="418.0" y="0.0"/>
      <point x="418.0" y="55.0" type="qcurve" smooth="yes"/>
      <point x="418.0" y="383.0" type="line" smooth="yes"/>
      <point x="418.0" y="588.0"/>
      <point x="727.0" y="930.0"/>
      <point x="727.0" y="1075.0" type="qcurve" smooth="yes"/>
      <point x="727.0" y="1185.0"/>
      <point x="595.0" y="1309.0"/>
      <point x="498.0" y="1309.0" type="qcurve" smooth="yes"/>
      <point x="408.0" y="1309.0"/>
      <point x="281.0" y="1238.0"/>
      <point x="252.0" y="1169.0" type="qcurve" smooth="yes"/>
      <point x="225.0" y="1105.0"/>
      <point x="183.0" y="1131.0" type="qcurve" smooth="yes"/>
    </contour>
  </outline>
</glyph>
<glyph name="uni0245" format="2">
  <advance width="1338"/>
  <unicode hex="0245"/>
  <outline>
    <contour>
      <point x="73.0" y="0.0" type="line" smooth="yes"/>
      <point x="21.0" y="0.0"/>
      <point x="46.0" y="66.0" type="qcurve" smooth="yes"/>
      <point x="533.0" y="1373.0" type="line" smooth="yes"/>
      <point x="556.0" y="1434.0"/>
      <point x="599.0" y="1434.0" type="qcurve" smooth="yes"/>
      <point x="739.0" y="1434.0" type="line" smooth="yes"/>
      <point x="782.0" y="1434.0"/>
      <point x="805.0" y="1373.0" type="qcurve" smooth="yes"/>
      <point x="1292.0" y="66.0" type="line" smooth="yes"/>
      <point x="1317.0" y="0.0"/>
      <point x="1265.0" y="0.0" type="qcurve" smooth="yes"/>
      <point x="1163.0" y="0.0" type="line" smooth="yes"/>
      <point x="1109.0" y="0.0"/>
      <point x="1091.0" y="49.0" type="qcurve" smooth="yes"/>
      <point x="766.0" y="944.0" type="line" smooth="yes"/>
      <point x="745.0" y="1003.0"/>
      <point x="682.0" y="1202.0"/>
      <point x="671.0" y="1261.0" type="qcurve"/>
      <point x="667.0" y="1261.0" type="line"/>
      <point x="656.0" y="1202.0"/>
      <point x="593.0" y="1003.0"/>
      <point x="572.0" y="944.0" type="qcurve" smooth="yes"/>
      <point x="247.0" y="49.0" type="line" smooth="yes"/>
      <point x="229.0" y="0.0"/>
      <point x="175.0" y="0.0" type="qcurve" smooth="yes"/>
    </contour>
  </outline>
</glyph>
<glyph name="uni025F" format="2">
  <advance width="640"/>
  <unicode hex="025F"/>
  <outline>
    <contour>
      <point x="0.0" y="-397.0" type="qcurve" smooth="yes"/>
      <point x="-23.0" y="-387.0"/>
      <point x="-18.0" y="-365.0" type="qcurve" smooth="yes"/>
      <point x="-1.0" y="-284.0" type="line" smooth="yes"/>
      <point x="4.0" y="-260.0"/>
      <point x="24.0" y="-269.0" type="qcurve" smooth="yes"/>
      <point x="64.0" y="-287.0"/>
      <point x="120.0" y="-287.0" type="qcurve" smooth="yes"/>
      <point x="179.0" y="-287.0"/>
      <point x="232.0" y="-171.0"/>
      <point x="232.0" y="6.0" type="qcurve" smooth="yes"/>
      <point x="232.0" y="482.0" type="line"/>
      <point x="95.0" y="482.0" type="line" smooth="yes"/>
      <point x="50.0" y="482.0"/>
      <point x="50.0" y="517.0" type="qcurve" smooth="yes"/>
      <point x="50.0" y="579.0" type="line" smooth="yes"/>
      <point x="50.0" y="614.0"/>
      <point x="95.0" y="614.0" type="qcurve" smooth="yes"/>
      <point x="232.0" y="614.0" type="line"/>
      <point x="232.0" y="1005.0" type="line" smooth="yes"/>
      <point x="232.0" y="1050.0"/>
      <point x="277.0" y="1050.0" type="qcurve" smooth="yes"/>
      <point x="363.0" y="1050.0" type="line" smooth="yes"/>
      <point x="408.0" y="1050.0"/>
      <point x="408.0" y="1005.0" type="qcurve" smooth="yes"/>
      <point x="408.0" y="614.0" type="line"/>
      <point x="545.0" y="614.0" type="line" smooth="yes"/>
      <point x="590.0" y="614.0"/>
      <point x="590.0" y="579.0" type="qcurve" smooth="yes"/>
      <point x="590.0" y="517.0" type="line" smooth="yes"/>
      <point x="590.0" y="482.0"/>
      <point x="545.0" y="482.0" type="qcurve" smooth="yes"/>
      <point x="408.0" y="482.0" type="line"/>
      <point x="408.0" y="-93.0" type="line" smooth="yes"/>
      <point x="408.0" y="-287.0"/>
      <point x="261.0" y="-417.0"/>
      <point x="152.0" y="-417.0" type="qcurve" smooth="yes"/>
      <point x="46.0" y="-417.0"/>
    </contour>
  </outline>
</glyph>
<glyph name="uni0260" format="2">
  <advance width="1231"/>
  <unicode hex="0260"/>
  <outline>
    <contour>
      <point x="85.0" y="525.0" type="qcurve" smooth="yes"/>
      <point x="85.0" y="740.0"/>
      <point x="293.0" y="1067.0"/>
      <point x="493.0" y="1067.0" type="qcurve" smooth="yes"/>
      <point x="608.0" y="1067.0"/>
      <point x="746.0" y="991.0"/>
      <point x="801.0" y="925.0" type="qcurve"/>
      <point x="803.0" y="925.0" type="line"/>
      <point x="801.0" y="957.0"/>
      <point x="801.0" y="986.0" type="qcurve" smooth="yes"/>
      <point x="801.0" y="1199.0" type="line" smooth="yes"/>
      <point x="801.0" y="1366.0"/>
      <point x="988.0" y="1493.0"/>
      <point x="1106.0" y="1493.0" type="qcurve" smooth="yes"/>
      <point x="1161.0" y="1493.0"/>
      <point x="1236.0" y="1476.0"/>
      <point x="1284.0" y="1452.0" type="qcurve" smooth="yes"/>
      <point x="1307.0" y="1441.0"/>
      <point x="1297.0" y="1420.0" type="qcurve" smooth="yes"/>
      <point x="1262.0" y="1346.0" type="line" smooth="yes"/>
      <point x="1248.0" y="1317.0"/>
      <point x="1227.0" y="1332.0" type="qcurve" smooth="yes"/>
      <point x="1209.0" y="1345.0"/>
      <point x="1158.0" y="1363.0"/>
      <point x="1123.0" y="1363.0" type="qcurve" smooth="yes"/>
      <point x="1066.0" y="1363.0"/>
      <point x="977.0" y="1283.0"/>
      <point x="977.0" y="1170.0" type="qcurve" smooth="yes"/>
      <point x="977.0" y="-8.0" type="line" smooth="yes"/>
      <point x="977.0" y="-200.0"/>
      <point x="800.0" y="-417.0"/>
      <point x="539.0" y="-417.0" type="qcurve" smooth="yes"/>
      <point x="364.0" y="-417.0"/>
      <point x="190.0" y="-338.0"/>
      <point x="153.0" y="-294.0" type="qcurve" smooth="yes"/>
      <point x="126.25599670410156" y="-261.31298828125"/>
      <point x="150.0" y="-238.0" type="qcurve" smooth="yes"/>
      <point x="205.0" y="-184.0" type="line" smooth="yes"/>
      <point x="227.68699645996094" y="-161.72500610351562"/>
      <point x="269.0" y="-198.0" type="qcurve" smooth="yes"/>
      <point x="322.0" y="-246.0"/>
      <point x="420.0" y="-287.0"/>
      <point x="540.0" y="-287.0" type="qcurve" smooth="yes"/>
      <point x="676.0" y="-287.0"/>
      <point x="801.0" y="-171.0"/>
      <point x="801.0" y="11.0" type="qcurve" smooth="yes"/>
      <point x="801.0" y="71.0" type="line" smooth="yes"/>
      <point x="801.0" y="102.0"/>
      <point x="803.0" y="132.0" type="qcurve"/>
      <point x="801.0" y="132.0" type="line"/>
      <point x="749.0" y="63.0"/>
      <point x="608.0" y="-17.0"/>
      <point x="493.0" y="-17.0" type="qcurve" smooth="yes"/>
      <point x="293.0" y="-17.0"/>
      <point x="85.0" y="310.0"/>
    </contour>
    <contour>
      <point x="271.0" y="525.0" type="qcurve" smooth="yes"/>
      <point x="271.0" y="341.0"/>
      <point x="398.0" y="113.0"/>
      <point x="550.0" y="113.0" type="qcurve" smooth="yes"/>
      <point x="658.0" y="113.0"/>
      <point x="801.0" y="260.0"/>
      <point x="801.0" y="410.0" type="qcurve" smooth="yes"/>
      <point x="801.0" y="640.0" type="line" smooth="yes"/>
      <point x="801.0" y="790.0"/>
      <point x="658.0" y="937.0"/>
      <point x="550.0" y="937.0" type="qcurve" smooth="yes"/>
      <point x="398.0" y="937.0"/>
      <point x="271.0" y="709.0"/>
    </contour>
  </outline>
</glyph>
<glyph name="uni0262" format="2">
  <advance width="1111"/>
  <unicode hex="0262"/>
  <outline>
    <contour>
      <point x="85.0" y="525.0" type="qcurve" smooth="yes"/>
      <point x="85.0" y="760.0"/>
      <point x="318.0" y="1067.0"/>
      <point x="568.0" y="1067.0" type="qcurve" smooth="yes"/>
      <point x="730.0" y="1067.0"/>
      <point x="902.0" y="964.0"/>
      <point x="945.0" y="908.0" type="qcurve" smooth="yes"/>
      <point x="969.0" y="876.0"/>
      <point x="940.0" y="854.0" type="qcurve" smooth="yes"/>
      <point x="881.0" y="808.0" type="line" smooth="yes"/>
      <point x="853.0" y="784.0"/>
      <point x="819.0" y="829.0" type="qcurve" smooth="yes"/>
      <point x="786.0" y="873.0"/>
      <point x="673.0" y="937.0"/>
      <point x="568.0" y="937.0" type="qcurve" smooth="yes"/>
      <point x="418.0" y="937.0"/>
      <point x="271.0" y="735.0"/>
      <point x="271.0" y="525.0" type="qcurve" smooth="yes"/>
      <point x="271.0" y="315.0"/>
      <point x="418.0" y="113.0"/>
      <point x="568.0" y="113.0" type="qcurve" smooth="yes"/>
      <point x="670.0" y="113.0"/>
      <point x="784.0" y="160.0"/>
      <point x="825.0" y="201.0" type="qcurve"/>
      <point x="825.0" y="372.0" type="line"/>
      <point x="613.0" y="372.0" type="line" smooth="yes"/>
      <point x="568.0" y="372.0"/>
      <point x="568.0" y="407.0" type="qcurve" smooth="yes"/>
      <point x="568.0" y="469.0" type="line" smooth="yes"/>
      <point x="568.0" y="504.0"/>
      <point x="613.0" y="504.0" type="qcurve" smooth="yes"/>
      <point x="956.0" y="504.0" type="line" smooth="yes"/>
      <point x="1001.0" y="504.0"/>
      <point x="1001.0" y="469.0" type="qcurve" smooth="yes"/>
      <point x="1001.0" y="144.0" type="line"/>
      <point x="900.0" y="62.0"/>
      <point x="730.0" y="-17.0"/>
      <point x="568.0" y="-17.0" type="qcurve" smooth="yes"/>
      <point x="318.0" y="-17.0"/>
      <point x="85.0" y="290.0"/>
    </contour>
  </outline>
</glyph>
<glyph name="uni026A" format="2">
  <advance width="584"/>
  <unicode hex="026A"/>
  <outline>
    <contour>
      <point x="145.0" y="0.0" type="line" smooth="yes"/>
      <point x="100.0" y="0.0"/>
      <point x="100.0" y="35.0" type="qcurve" smooth="yes"/>
      <point x="100.0" y="95.0" type="line" smooth="yes"/>
      <point x="100.0" y="130.0"/>
      <point x="145.0" y="130.0" type="qcurve" smooth="yes"/>
      <point x="204.0" y="130.0" type="line"/>
      <point x="204.0" y="920.0" type="line"/>
      <point x="145.0" y="920.0" type="line" smooth="yes"/>
      <point x="100.0" y="920.0"/>
      <point x="100.0" y="955.0" type="qcurve" smooth="yes"/>
      <point x="100.0" y="1015.0" type="line" smooth="yes"/>
      <point x="100.0" y="1050.0"/>
      <point x="145.0" y="1050.0" type="qcurve" smooth="yes"/>
      <point x="439.0" y="1050.0" type="line" smooth="yes"/>
      <point x="484.0" y="1050.0"/>
      <point x="484.0" y="1015.0" type="qcurve" smooth="yes"/>
      <point x="484.0" y="955.0" type="line" smooth="yes"/>
      <point x="484.0" y="920.0"/>
      <point x="439.0" y="920.0" type="qcurve" smooth="yes"/>
      <point x="380.0" y="920.0" type="line"/>
      <point x="380.0" y="130.0" type="line"/>
      <point x="439.0" y="130.0" type="line" smooth="yes"/>
      <point x="484.0" y="130.0"/>
      <point x="484.0" y="95.0" type="qcurve" smooth="yes"/>
      <point x="484.0" y="35.0" type="line" smooth="yes"/>
      <point x="484.0" y="0.0"/>
      <point x="439.0" y="0.0" type="qcurve" smooth="yes"/>
    </contour>
  </outline>
</glyph>
<glyph name="uni026E" format="2">
  <advance width="1186"/>
  <unicode hex="026E"/>
  <outline>
    <contour>
      <point x="187.0" y="0.0" type="line" smooth="yes"/>
      <point x="142.0" y="0.0"/>
      <point x="142.0" y="45.0" type="qcurve" smooth="yes"/>
      <point x="142.0" y="1293.0" type="line" smooth="yes"/>
      <point x="142.0" y="1313.0"/>
      <point x="152.0" y="1331.0" type="qcurve" smooth="yes"/>
      <point x="222.0" y="1458.0" type="line" smooth="yes"/>
      <point x="241.0" y="1493.0"/>
      <point x="253.0" y="1493.0" type="qcurve" smooth="yes"/>
      <point x="288.0" y="1493.0" type="line" smooth="yes"/>
      <point x="318.0" y="1493.0"/>
      <point x="318.0" y="1458.0" type="qcurve" smooth="yes"/>
      <point x="318.0" y="1050.0" type="line"/>
      <point x="1030.0" y="1050.0" type="line" smooth="yes"/>
      <point x="1075.0" y="1050.0"/>
      <point x="1075.0" y="1015.0" type="qcurve" smooth="yes"/>
      <point x="1075.0" y="968.0" type="line" smooth="yes"/>
      <point x="1075.0" y="936.0"/>
      <point x="1038.0" y="890.0" type="qcurve" smooth="yes"/>
      <point x="676.0" y="438.0" type="line"/>
      <point x="676.0" y="434.0" type="line"/>
      <point x="861.0" y="434.0"/>
      <point x="1086.0" y="219.0"/>
      <point x="1086.0" y="22.0" type="qcurve" smooth="yes"/>
      <point x="1086.0" y="-204.0"/>
      <point x="873.0" y="-417.0"/>
      <point x="654.0" y="-417.0" type="qcurve" smooth="yes"/>
      <point x="480.0" y="-417.0"/>
      <point x="289.0" y="-285.0"/>
      <point x="281.0" y="-271.0" type="qcurve" smooth="yes"/>
      <point x="260.0" y="-235.0"/>
      <point x="283.0" y="-216.0" type="qcurve" smooth="yes"/>
      <point x="343.0" y="-167.0" type="line" smooth="yes"/>
      <point x="373.0" y="-142.0"/>
      <point x="405.0" y="-186.0" type="qcurve" smooth="yes"/>
      <point x="411.0" y="-194.0"/>
      <point x="531.0" y="-287.0"/>
      <point x="644.0" y="-287.0" type="qcurve" smooth="yes"/>
      <point x="792.0" y="-287.0"/>
      <point x="900.0" y="-138.0"/>
      <point x="900.0" y="14.0" type="qcurve" smooth="yes"/>
      <point x="900.0" y="156.0"/>
      <point x="774.0" y="306.0"/>
      <point x="599.0" y="306.0" type="qcurve" smooth="yes"/>
      <point x="524.0" y="306.0" type="line" smooth="yes"/>
      <point x="479.0" y="306.0"/>
      <point x="479.0" y="341.0" type="qcurve" smooth="yes"/>
      <point x="479.0" y="392.0" type="line" smooth="yes"/>
      <point x="479.0" y="428.0"/>
      <point x="514.0" y="472.0" type="qcurve" smooth="yes"/>
      <point x="872.0" y="918.0" type="line"/>
      <point x="872.0" y="920.0" type="line"/>
      <point x="842.0" y="918.0"/>
      <point x="812.0" y="918.0" type="qcurve" smooth="yes"/>
      <point x="318.0" y="918.0" type="line"/>
      <point x="318.0" y="45.0" type="line" smooth="yes"/>
      <point x="318.0" y="0.0"/>
      <point x="273.0" y="0.0" type="qcurve" smooth="yes"/>
    </contour>
  </outline>
</glyph>
<glyph name="uni0270" format="2">
  <advance width="1678"/>
  <unicode hex="0270"/>
  <outline>
    <contour>
      <point x="140.0" y="366.0" type="qcurve" smooth="yes"/>
      <point x="140.0" y="1005.0" type="line" smooth="yes"/>
      <point x="140.0" y="1050.0"/>
      <point x="185.0" y="1050.0" type="qcurve" smooth="yes"/>
      <point x="271.0" y="1050.0" type="line" smooth="yes"/>
      <point x="316.0" y="1050.0"/>
      <point x="316.0" y="1005.0" type="qcurve" smooth="yes"/>
      <point x="316.0" y="424.0" type="line" smooth="yes"/>
      <point x="316.0" y="228.0"/>
      <point x="414.0" y="113.0"/>
      <point x="516.0" y="113.0" type="qcurve" smooth="yes"/>
      <point x="616.0" y="113.0"/>
      <point x="750.0" y="284.0"/>
      <point x="750.0" y="456.0" type="qcurve" smooth="yes"/>
      <point x="750.0" y="1005.0" type="line" smooth="yes"/>
      <point x="750.0" y="1050.0"/>
      <point x="795.0" y="1050.0" type="qcurve" smooth="yes"/>
      <point x="881.0" y="1050.0" type="line" smooth="yes"/>
      <point x="926.0" y="1050.0"/>
      <point x="926.0" y="1005.0" type="qcurve" smooth="yes"/>
      <point x="926.0" y="424.0" type="line" smooth="yes"/>
      <point x="926.0" y="228.0"/>
      <point x="1024.0" y="113.0"/>
      <point x="1126.0" y="113.0" type="qcurve" smooth="yes"/>
      <point x="1226.0" y="113.0"/>
      <point x="1360.0" y="268.0"/>
      <point x="1360.0" y="456.0" type="qcurve" smooth="yes"/>
      <point x="1360.0" y="1005.0" type="line" smooth="yes"/>
      <point x="1360.0" y="1050.0"/>
      <point x="1405.0" y="1050.0" type="qcurve" smooth="yes"/>
      <point x="1491.0" y="1050.0" type="line" smooth="yes"/>
      <point x="1536.0" y="1050.0"/>
      <point x="1536.0" y="1005.0" type="qcurve" smooth="yes"/>
      <point x="1536.0" y="-355.0" type="line" smooth="yes"/>
      <point x="1536.0" y="-400.0"/>
      <point x="1491.0" y="-400.0" type="qcurve" smooth="yes"/>
      <point x="1405.0" y="-400.0" type="line" smooth="yes"/>
      <point x="1360.0" y="-400.0"/>
      <point x="1360.0" y="-355.0" type="qcurve" smooth="yes"/>
      <point x="1360.0" y="64.0" type="line" smooth="yes"/>
      <point x="1360.0" y="95.0"/>
      <point x="1362.0" y="125.0" type="qcurve"/>
      <point x="1358.0" y="125.0" type="line"/>
      <point x="1293.0" y="53.0"/>
      <point x="1141.0" y="-17.0"/>
      <point x="1071.0" y="-17.0" type="qcurve" smooth="yes"/>
      <point x="942.0" y="-17.0"/>
      <point x="803.0" y="112.0"/>
      <point x="783.0" y="177.0" type="qcurve"/>
      <point x="779.0" y="177.0" type="line"/>
      <point x="724.0" y="95.0"/>
      <point x="556.0" y="-17.0"/>
      <point x="461.0" y="-17.0" type="qcurve" smooth="yes"/>
      <point x="302.0" y="-17.0"/>
      <point x="140.0" y="188.0"/>
    </contour>
  </outline>
</glyph>
<glyph name="uni0272" format="2">
  <advance width="1134"/>
  <unicode hex="0272"/>
  <outline>
    <contour>
      <point x="-84.0" y="-397.0" type="qcurve" smooth="yes"/>
      <point x="-106.0" y="-387.0"/>
      <point x="-102.0" y="-365.0" type="qcurve" smooth="yes"/>
      <point x="-85.0" y="-284.0" type="line" smooth="yes"/>
      <point x="-80.0" y="-260.0"/>
      <point x="-60.0" y="-269.0" type="qcurve" smooth="yes"/>
      <point x="-21.0" y="-287.0"/>
      <point x="36.0" y="-287.0" type="qcurve" smooth="yes"/>
      <point x="95.0" y="-287.0"/>
      <point x="148.0" y="-171.0"/>
      <point x="148.0" y="6.0" type="qcurve" smooth="yes"/>
      <point x="148.0" y="1005.0" type="line" smooth="yes"/>
      <point x="148.0" y="1050.0"/>
      <point x="193.0" y="1050.0" type="qcurve" smooth="yes"/>
      <point x="277.0" y="1050.0" type="line" smooth="yes"/>
      <point x="322.0" y="1050.0"/>
      <point x="322.0" y="1005.0" type="qcurve" smooth="yes"/>
      <point x="322.0" y="925.0" type="line"/>
      <point x="326.0" y="925.0" type="line"/>
      <point x="391.0" y="997.0"/>
      <point x="541.0" y="1067.0"/>
      <point x="653.0" y="1067.0" type="qcurve" smooth="yes"/>
      <point x="835.0" y="1067.0"/>
      <point x="994.0" y="862.0"/>
      <point x="994.0" y="684.0" type="qcurve" smooth="yes"/>
      <point x="994.0" y="45.0" type="line" smooth="yes"/>
      <point x="994.0" y="0.0"/>
      <point x="949.0" y="0.0" type="qcurve" smooth="yes"/>
      <point x="863.0" y="0.0" type="line" smooth="yes"/>
      <point x="818.0" y="0.0"/>
      <point x="818.0" y="45.0" type="qcurve" smooth="yes"/>
      <point x="818.0" y="636.0" type="line" smooth="yes"/>
      <point x="818.0" y="832.0"/>
      <point x="688.0" y="937.0"/>
      <point x="588.0" y="937.0" type="qcurve" smooth="yes"/>
      <point x="458.0" y="937.0"/>
      <point x="324.0" y="782.0"/>
      <point x="324.0" y="594.0" type="qcurve" smooth="yes"/>
      <point x="324.0" y="-93.0" type="line" smooth="yes"/>
      <point x="324.0" y="-287.0"/>
      <point x="177.0" y="-417.0"/>
      <point x="68.0" y="-417.0" type="qcurve" smooth="yes"/>
      <point x="-38.0" y="-417.0"/>
    </contour>
  </outline>
</glyph>
<glyph name="uni0276" format="2">
  <advance width="1609"/>
  <unicode hex="0276"/>
  <outline>
    <contour>
      <point x="85.0" y="525.0" type="qcurve" smooth="yes"/>
      <point x="85.0" y="775.0"/>
      <point x="339.0" y="1067.0"/>
      <point x="589.0" y="1067.0" type="qcurve" smooth="yes"/>
      <point x="657.0" y="1067.0"/>
      <point x="796.0" y="1050.0"/>
      <point x="864.0" y="1050.0" type="qcurve" smooth="yes"/>
      <point x="1432.0" y="1050.0" type="line" smooth="yes"/>
      <point x="1477.0" y="1050.0"/>
      <point x="1477.0" y="1015.0" type="qcurve" smooth="yes"/>
      <point x="1477.0" y="953.0" type="line" smooth="yes"/>
      <point x="1477.0" y="918.0"/>
      <point x="1432.0" y="918.0" type="qcurve" smooth="yes"/>
      <point x="929.0" y="918.0" type="line"/>
      <point x="929.0" y="608.0" type="line"/>
      <point x="1388.0" y="608.0" type="line" smooth="yes"/>
      <point x="1433.0" y="608.0"/>
      <point x="1433.0" y="573.0" type="qcurve" smooth="yes"/>
      <point x="1433.0" y="510.0" type="line" smooth="yes"/>
      <point x="1433.0" y="475.0"/>
      <point x="1388.0" y="475.0" type="qcurve" smooth="yes"/>
      <point x="929.0" y="475.0" type="line"/>
      <point x="929.0" y="132.0" type="line"/>
      <point x="1454.0" y="132.0" type="line" smooth="yes"/>
      <point x="1499.0" y="132.0"/>
      <point x="1499.0" y="97.0" type="qcurve" smooth="yes"/>
      <point x="1499.0" y="35.0" type="line" smooth="yes"/>
      <point x="1499.0" y="0.0"/>
      <point x="1454.0" y="0.0" type="qcurve" smooth="yes"/>
      <point x="864.0" y="0.0" type="line" smooth="yes"/>
      <point x="796.0" y="0.0"/>
      <point x="657.0" y="-17.0"/>
      <point x="589.0" y="-17.0" type="qcurve" smooth="yes"/>
      <point x="339.0" y="-17.0"/>
      <point x="85.0" y="275.0"/>
    </contour>
    <contour>
      <point x="273.0" y="525.0" type="qcurve" smooth="yes"/>
      <point x="273.0" y="330.0"/>
      <point x="428.0" y="113.0"/>
      <point x="583.0" y="113.0" type="qcurve" smooth="yes"/>
      <point x="693.0" y="113.0"/>
      <point x="753.0" y="132.0" type="qcurve"/>
      <point x="753.0" y="918.0" type="line"/>
      <point x="693.0" y="937.0"/>
      <point x="583.0" y="937.0" type="qcurve" smooth="yes"/>
      <point x="428.0" y="937.0"/>
      <point x="273.0" y="720.0"/>
    </contour>
  </outline>
</glyph>
<glyph name="uni0277" format="2">
  <advance width="1438"/>
  <unicode hex="0277"/>
  <outline>
    <contour>
      <point x="85.0" y="469.0" type="qcurve" smooth="yes"/>
      <point x="85.0" y="724.0"/>
      <point x="429.0" y="1067.0"/>
      <point x="719.0" y="1067.0" type="qcurve" smooth="yes"/>
      <point x="1009.0" y="1067.0"/>
      <point x="1353.0" y="724.0"/>
      <point x="1353.0" y="469.0" type="qcurve" smooth="yes"/>
      <point x="1353.0" y="264.0"/>
      <point x="1176.0" y="-17.0"/>
      <point x="1017.0" y="-17.0" type="qcurve" smooth="yes"/>
      <point x="888.0" y="-17.0"/>
      <point x="751.0" y="93.0"/>
      <point x="720.0" y="184.0" type="qcurve"/>
      <point x="718.0" y="184.0" type="line"/>
      <point x="687.0" y="93.0"/>
      <point x="550.0" y="-17.0"/>
      <point x="421.0" y="-17.0" type="qcurve" smooth="yes"/>
      <point x="262.0" y="-17.0"/>
      <point x="85.0" y="264.0"/>
    </contour>
    <contour>
      <point x="271.0" y="479.0" type="qcurve" smooth="yes"/>
      <point x="271.0" y="349.0"/>
      <point x="333.0" y="113.0"/>
      <point x="443.0" y="113.0" type="qcurve" smooth="yes"/>
      <point x="528.0" y="113.0"/>
      <point x="631.0" y="270.0"/>
      <point x="631.0" y="392.0" type="qcurve" smooth="yes"/>
      <point x="631.0" y="538.0" type="line" smooth="yes"/>
      <point x="631.0" y="578.0"/>
      <point x="666.0" y="578.0" type="qcurve" smooth="yes"/>
      <point x="772.0" y="578.0" type="line" smooth="yes"/>
      <point x="807.0" y="578.0"/>
      <point x="807.0" y="538.0" type="qcurve" smooth="yes"/>
      <point x="807.0" y="392.0" type="line" smooth="yes"/>
      <point x="807.0" y="270.0"/>
      <point x="910.0" y="113.0"/>
      <point x="995.0" y="113.0" type="qcurve" smooth="yes"/>
      <point x="1105.0" y="113.0"/>
      <point x="1167.0" y="349.0"/>
      <point x="1167.0" y="479.0" type="qcurve" smooth="yes"/>
      <point x="1167.0" y="649.0"/>
      <point x="952.0" y="937.0"/>
      <point x="719.0" y="937.0" type="qcurve" smooth="yes"/>
      <point x="486.0" y="937.0"/>
      <point x="271.0" y="649.0"/>
    </contour>
  </outline>
</glyph>
<glyph name="uni027A" format="2">
  <advance width="722"/>
  <unicode hex="027A"/>
  <outline>
    <contour>
      <point x="37.0" y="-6.0" type="qcurve" smooth="yes"/>
      <point x="14.0" y="3.0"/>
      <point x="20.0" y="24.0" type="qcurve" smooth="yes"/>
      <point x="43.0" y="106.0" type="line" smooth="yes"/>
      <point x="48.0" y="124.0"/>
      <point x="69.0" y="120.0" type="qcurve" smooth="yes"/>
      <point x="104.0" y="113.0"/>
      <point x="135.0" y="113.0" type="qcurve" smooth="yes"/>
      <point x="252.0" y="113.0"/>
      <point x="404.0" y="324.0"/>
      <point x="404.0" y="506.0" type="qcurve" smooth="yes"/>
      <point x="404.0" y="1431.0" type="line" smooth="yes"/>
      <point x="404.0" y="1476.0"/>
      <point x="449.0" y="1476.0" type="qcurve" smooth="yes"/>
      <point x="535.0" y="1476.0" type="line" smooth="yes"/>
      <point x="580.0" y="1476.0"/>
      <point x="580.0" y="1431.0" type="qcurve" smooth="yes"/>
      <point x="580.0" y="45.0" type="line" smooth="yes"/>
      <point x="580.0" y="0.0"/>
      <point x="535.0" y="0.0" type="qcurve" smooth="yes"/>
      <point x="451.0" y="0.0" type="line" smooth="yes"/>
      <point x="406.0" y="0.0"/>
      <point x="406.0" y="45.0" type="qcurve" smooth="yes"/>
      <point x="406.0" y="165.0" type="line"/>
      <point x="402.0" y="165.0" type="line"/>
      <point x="354.0" y="75.0"/>
      <point x="224.0" y="-17.0"/>
      <point x="127.0" y="-17.0" type="qcurve" smooth="yes"/>
      <point x="63.0" y="-17.0"/>
    </contour>
  </outline>
</glyph>
<glyph name="uni027B" format="2">
  <advance width="732"/>
  <unicode hex="027B"/>
  <outline>
    <contour>
      <point x="37.0" y="-6.0" type="qcurve" smooth="yes"/>
      <point x="14.0" y="3.0"/>
      <point x="20.0" y="24.0" type="qcurve" smooth="yes"/>
      <point x="43.0" y="106.0" type="line" smooth="yes"/>
      <point x="48.0" y="124.0"/>
      <point x="69.0" y="120.0" type="qcurve" smooth="yes"/>
      <point x="104.0" y="113.0"/>
      <point x="135.0" y="113.0" type="qcurve" smooth="yes"/>
      <point x="252.0" y="113.0"/>
      <point x="404.0" y="324.0"/>
      <point x="404.0" y="506.0" type="qcurve" smooth="yes"/>
      <point x="404.0" y="1005.0" type="line" smooth="yes"/>
      <point x="404.0" y="1050.0"/>
      <point x="449.0" y="1050.0" type="qcurve" smooth="yes"/>
      <point x="535.0" y="1050.0" type="line" smooth="yes"/>
      <point x="580.0" y="1050.0"/>
      <point x="580.0" y="1005.0" type="qcurve" smooth="yes"/>
      <point x="580.0" y="6.0" type="line" smooth="yes"/>
      <point x="580.0" y="-171.0"/>
      <point x="633.0" y="-287.0"/>
      <point x="692.0" y="-287.0" type="qcurve" smooth="yes"/>
      <point x="749.0" y="-287.0"/>
      <point x="788.0" y="-269.0" type="qcurve" smooth="yes"/>
      <point x="808.0" y="-260.0"/>
      <point x="813.0" y="-284.0" type="qcurve" smooth="yes"/>
      <point x="830.0" y="-365.0" type="line" smooth="yes"/>
      <point x="835.0" y="-387.0"/>
      <point x="812.0" y="-397.0" type="qcurve" smooth="yes"/>
      <point x="766.0" y="-417.0"/>
      <point x="660.0" y="-417.0" type="qcurve" smooth="yes"/>
      <point x="551.0" y="-417.0"/>
      <point x="404.0" y="-286.0"/>
      <point x="404.0" y="-93.0" type="qcurve" smooth="yes"/>
      <point x="404.0" y="105.0" type="line" smooth="yes"/>
      <point x="404.0" y="135.0"/>
      <point x="406.0" y="165.0" type="qcurve"/>
      <point x="402.0" y="165.0" type="line"/>
      <point x="354.0" y="75.0"/>
      <point x="223.0" y="-17.0"/>
      <point x="127.0" y="-17.0" type="qcurve" smooth="yes"/>
      <point x="65.0" y="-17.0"/>
    </contour>
  </outline>
</glyph>
<glyph name="uni027C" format="2">
  <advance width="722"/>
  <unicode hex="027C"/>
  <outline>
    <contour>
      <point x="187.0" y="-400.0" type="line" smooth="yes"/>
      <point x="142.0" y="-400.0"/>
      <point x="142.0" y="-355.0" type="qcurve" smooth="yes"/>
      <point x="142.0" y="1005.0" type="line" smooth="yes"/>
      <point x="142.0" y="1050.0"/>
      <point x="187.0" y="1050.0" type="qcurve" smooth="yes"/>
      <point x="271.0" y="1050.0" type="line" smooth="yes"/>
      <point x="316.0" y="1050.0"/>
      <point x="316.0" y="1005.0" type="qcurve" smooth="yes"/>
      <point x="316.0" y="885.0" type="line"/>
      <point x="320.0" y="885.0" type="line"/>
      <point x="368.0" y="975.0"/>
      <point x="498.0" y="1067.0"/>
      <point x="595.0" y="1067.0" type="qcurve" smooth="yes"/>
      <point x="659.0" y="1067.0"/>
      <point x="685.0" y="1056.0" type="qcurve" smooth="yes"/>
      <point x="708.0" y="1047.0"/>
      <point x="702.0" y="1026.0" type="qcurve" smooth="yes"/>
      <point x="679.0" y="944.0" type="line" smooth="yes"/>
      <point x="674.0" y="926.0"/>
      <point x="653.0" y="930.0" type="qcurve" smooth="yes"/>
      <point x="618.0" y="937.0"/>
      <point x="587.0" y="937.0" type="qcurve" smooth="yes"/>
      <point x="470.0" y="937.0"/>
      <point x="318.0" y="726.0"/>
      <point x="318.0" y="544.0" type="qcurve" smooth="yes"/>
      <point x="318.0" y="-355.0" type="line" smooth="yes"/>
      <point x="318.0" y="-400.0"/>
      <point x="273.0" y="-400.0" type="qcurve" smooth="yes"/>
    </contour>
  </outline>
</glyph>
<glyph name="uni027E" format="2">
  <advance width="722"/>
  <unicode hex="027E"/>
  <outline>
    <contour>
      <point x="187.0" y="0.0" type="line" smooth="yes"/>
      <point x="142.0" y="0.0"/>
      <point x="142.0" y="45.0" type="qcurve" smooth="yes"/>
      <point x="142.0" y="545.0" type="line" smooth="yes"/>
      <point x="142.0" y="765.0"/>
      <point x="366.0" y="1067.0"/>
      <point x="595.0" y="1067.0" type="qcurve" smooth="yes"/>
      <point x="659.0" y="1067.0"/>
      <point x="685.0" y="1056.0" type="qcurve" smooth="yes"/>
      <point x="708.0" y="1047.0"/>
      <point x="702.0" y="1026.0" type="qcurve" smooth="yes"/>
      <point x="679.0" y="944.0" type="line" smooth="yes"/>
      <point x="674.0" y="926.0"/>
      <point x="653.0" y="930.0" type="qcurve" smooth="yes"/>
      <point x="618.0" y="937.0"/>
      <point x="587.0" y="937.0" type="qcurve" smooth="yes"/>
      <point x="470.0" y="937.0"/>
      <point x="318.0" y="723.0"/>
      <point x="318.0" y="519.0" type="qcurve" smooth="yes"/>
      <point x="318.0" y="45.0" type="line" smooth="yes"/>
      <point x="318.0" y="0.0"/>
      <point x="273.0" y="0.0" type="qcurve" smooth="yes"/>
    </contour>
  </outline>
</glyph>
<glyph name="uni0283" format="2">
  <advance width="586"/>
  <unicode hex="0283"/>
  <outline>
    <contour>
      <point x="-84.0" y="-397.0" type="qcurve" smooth="yes"/>
      <point x="-106.0" y="-387.0"/>
      <point x="-102.0" y="-365.0" type="qcurve" smooth="yes"/>
      <point x="-85.0" y="-284.0" type="line" smooth="yes"/>
      <point x="-80.0" y="-260.0"/>
      <point x="-60.0" y="-269.0" type="qcurve" smooth="yes"/>
      <point x="-21.0" y="-287.0"/>
      <point x="36.0" y="-287.0" type="qcurve" smooth="yes"/>
      <point x="95.0" y="-287.0"/>
      <point x="148.0" y="-171.0"/>
      <point x="148.0" y="6.0" type="qcurve" smooth="yes"/>
      <point x="148.0" y="1199.0" type="line" smooth="yes"/>
      <point x="148.0" y="1366.0"/>
      <point x="335.0" y="1493.0"/>
      <point x="458.0" y="1493.0" type="qcurve" smooth="yes"/>
      <point x="518.0" y="1493.0"/>
      <point x="591.0" y="1476.0"/>
      <point x="639.0" y="1452.0" type="qcurve" smooth="yes"/>
      <point x="661.0" y="1441.0"/>
      <point x="652.0" y="1420.0" type="qcurve" smooth="yes"/>
      <point x="619.0" y="1346.0" type="line" smooth="yes"/>
      <point x="606.0" y="1317.0"/>
      <point x="584.0" y="1332.0" type="qcurve" smooth="yes"/>
      <point x="566.0" y="1345.0"/>
      <point x="515.0" y="1363.0"/>
      <point x="475.0" y="1363.0" type="qcurve" smooth="yes"/>
      <point x="413.0" y="1363.0"/>
      <point x="324.0" y="1283.0"/>
      <point x="324.0" y="1170.0" type="qcurve" smooth="yes"/>
      <point x="324.0" y="-93.0" type="line" smooth="yes"/>
      <point x="324.0" y="-287.0"/>
      <point x="177.0" y="-417.0"/>
      <point x="68.0" y="-417.0" type="qcurve" smooth="yes"/>
      <point x="-38.0" y="-417.0"/>
    </contour>
  </outline>
</glyph>
<glyph name="uni0285" format="2">
  <advance width="722"/>
  <unicode hex="0285"/>
  <outline>
    <contour>
      <point x="69.0" y="930.0" type="qcurve" smooth="yes"/>
      <point x="48.0" y="926.0"/>
      <point x="43.0" y="944.0" type="qcurve" smooth="yes"/>
      <point x="20.0" y="1026.0" type="line" smooth="yes"/>
      <point x="14.0" y="1047.0"/>
      <point x="37.0" y="1056.0" type="qcurve" smooth="yes"/>
      <point x="63.0" y="1067.0"/>
      <point x="127.0" y="1067.0" type="qcurve" smooth="yes"/>
      <point x="356.0" y="1067.0"/>
      <point x="580.0" y="765.0"/>
      <point x="580.0" y="545.0" type="qcurve" smooth="yes"/>
      <point x="580.0" y="6.0" type="line" smooth="yes"/>
      <point x="580.0" y="-171.0"/>
      <point x="633.0" y="-287.0"/>
      <point x="692.0" y="-287.0" type="qcurve" smooth="yes"/>
      <point x="749.0" y="-287.0"/>
      <point x="788.0" y="-269.0" type="qcurve" smooth="yes"/>
      <point x="808.0" y="-260.0"/>
      <point x="813.0" y="-284.0" type="qcurve" smooth="yes"/>
      <point x="830.0" y="-365.0" type="line" smooth="yes"/>
      <point x="834.0" y="-387.0"/>
      <point x="812.0" y="-397.0" type="qcurve" smooth="yes"/>
      <point x="766.0" y="-417.0"/>
      <point x="660.0" y="-417.0" type="qcurve" smooth="yes"/>
      <point x="551.0" y="-417.0"/>
      <point x="404.0" y="-287.0"/>
      <point x="404.0" y="-93.0" type="qcurve" smooth="yes"/>
      <point x="404.0" y="519.0" type="line" smooth="yes"/>
      <point x="404.0" y="723.0"/>
      <point x="252.0" y="937.0"/>
      <point x="135.0" y="937.0" type="qcurve" smooth="yes"/>
      <point x="104.0" y="937.0"/>
    </contour>
  </outline>
</glyph>
<glyph name="uni02A4" format="2">
  <advance width="1844"/>
  <unicode hex="02A4"/>
  <outline>
    <contour>
      <point x="271.0" y="525.0" type="qcurve" smooth="yes"/>
      <point x="271.0" y="341.0"/>
      <point x="398.0" y="113.0"/>
      <point x="550.0" y="113.0" type="qcurve" smooth="yes"/>
      <point x="658.0" y="113.0"/>
      <point x="801.0" y="260.0"/>
      <point x="801.0" y="410.0" type="qcurve" smooth="yes"/>
      <point x="801.0" y="640.0" type="line" smooth="yes"/>
      <point x="801.0" y="790.0"/>
      <point x="658.0" y="937.0"/>
      <point x="550.0" y="937.0" type="qcurve" smooth="yes"/>
      <point x="398.0" y="937.0"/>
      <point x="271.0" y="709.0"/>
    </contour>
    <contour>
      <point x="85.0" y="525.0" type="qcurve" smooth="yes"/>
      <point x="85.0" y="740.0"/>
      <point x="293.0" y="1067.0"/>
      <point x="493.0" y="1067.0" type="qcurve" smooth="yes"/>
      <point x="608.0" y="1067.0"/>
      <point x="746.0" y="991.0"/>
      <point x="801.0" y="925.0" type="qcurve"/>
      <point x="803.0" y="925.0" type="line"/>
      <point x="801.0" y="955.0"/>
      <point x="801.0" y="986.0" type="qcurve" smooth="yes"/>
      <point x="801.0" y="1431.0" type="line" smooth="yes"/>
      <point x="801.0" y="1476.0"/>
      <point x="846.0" y="1476.0" type="qcurve" smooth="yes"/>
      <point x="932.0" y="1476.0" type="line" smooth="yes"/>
      <point x="977.0" y="1476.0"/>
      <point x="977.0" y="1431.0" type="qcurve" smooth="yes"/>
      <point x="977.0" y="1050.0" type="line"/>
      <point x="1688.0" y="1050.0" type="line" smooth="yes"/>
      <point x="1733.0" y="1050.0"/>
      <point x="1733.0" y="1015.0" type="qcurve" smooth="yes"/>
      <point x="1733.0" y="968.0" type="line" smooth="yes"/>
      <point x="1733.0" y="936.0"/>
      <point x="1696.0" y="890.0" type="qcurve" smooth="yes"/>
      <point x="1334.0" y="438.0" type="line"/>
      <point x="1334.0" y="434.0" type="line"/>
      <point x="1519.0" y="434.0"/>
      <point x="1744.0" y="219.0"/>
      <point x="1744.0" y="22.0" type="qcurve" smooth="yes"/>
      <point x="1744.0" y="-204.0"/>
      <point x="1531.0" y="-417.0"/>
      <point x="1312.0" y="-417.0" type="qcurve" smooth="yes"/>
      <point x="1138.0" y="-417.0"/>
      <point x="947.0" y="-285.0"/>
      <point x="939.0" y="-271.0" type="qcurve" smooth="yes"/>
      <point x="918.0" y="-235.0"/>
      <point x="941.0" y="-216.0" type="qcurve" smooth="yes"/>
      <point x="1001.0" y="-167.0" type="line" smooth="yes"/>
      <point x="1031.0" y="-142.0"/>
      <point x="1063.0" y="-186.0" type="qcurve" smooth="yes"/>
      <point x="1069.0" y="-194.0"/>
      <point x="1189.0" y="-287.0"/>
      <point x="1302.0" y="-287.0" type="qcurve" smooth="yes"/>
      <point x="1450.0" y="-287.0"/>
      <point x="1558.0" y="-138.0"/>
      <point x="1558.0" y="14.0" type="qcurve" smooth="yes"/>
      <point x="1558.0" y="156.0"/>
      <point x="1432.0" y="306.0"/>
      <point x="1257.0" y="306.0" type="qcurve" smooth="yes"/>
      <point x="1182.0" y="306.0" type="line" smooth="yes"/>
      <point x="1137.0" y="306.0"/>
      <point x="1137.0" y="341.0" type="qcurve" smooth="yes"/>
      <point x="1137.0" y="392.0" type="line" smooth="yes"/>
      <point x="1137.0" y="428.0"/>
      <point x="1172.0" y="472.0" type="qcurve" smooth="yes"/>
      <point x="1530.0" y="918.0" type="line"/>
      <point x="1530.0" y="920.0" type="line"/>
      <point x="1500.0" y="918.0"/>
      <point x="1470.0" y="918.0" type="qcurve" smooth="yes"/>
      <point x="977.0" y="918.0" type="line"/>
      <point x="977.0" y="45.0" type="line" smooth="yes"/>
      <point x="977.0" y="0.0"/>
      <point x="932.0" y="0.0" type="qcurve" smooth="yes"/>
      <point x="848.0" y="0.0" type="line" smooth="yes"/>
      <point x="812.0" y="0.0"/>
      <point x="809.0" y="45.0" type="qcurve" smooth="yes"/>
      <point x="803.0" y="125.0" type="line"/>
      <point x="801.0" y="125.0" type="line"/>
      <point x="746.0" y="59.0"/>
      <point x="608.0" y="-17.0"/>
      <point x="493.0" y="-17.0" type="qcurve" smooth="yes"/>
      <point x="293.0" y="-17.0"/>
      <point x="85.0" y="310.0"/>
    </contour>
  </outline>
</glyph>
<glyph name="uni02A6" format="2">
  <advance width="1435"/>
  <unicode hex="02A6"/>
  <outline>
    <contour>
      <point x="91.0" y="918.0" type="line" smooth="yes"/>
      <point x="46.0" y="918.0"/>
      <point x="46.0" y="953.0" type="qcurve" smooth="yes"/>
      <point x="46.0" y="1015.0" type="line" smooth="yes"/>
      <point x="46.0" y="1050.0"/>
      <point x="91.0" y="1050.0" type="qcurve" smooth="yes"/>
      <point x="209.0" y="1050.0" type="line"/>
      <point x="209.0" y="1140.0" type="line" smooth="yes"/>
      <point x="209.0" y="1160.0"/>
      <point x="219.0" y="1178.0" type="qcurve" smooth="yes"/>
      <point x="289.0" y="1305.0" type="line" smooth="yes"/>
      <point x="308.0" y="1340.0"/>
      <point x="320.0" y="1340.0" type="qcurve" smooth="yes"/>
      <point x="355.0" y="1340.0" type="line" smooth="yes"/>
      <point x="385.0" y="1340.0"/>
      <point x="385.0" y="1305.0" type="qcurve" smooth="yes"/>
      <point x="385.0" y="1050.0" type="line"/>
      <point x="826.0" y="1050.0" type="line"/>
      <point x="898.0" y="1067.0"/>
      <point x="967.0" y="1067.0" type="qcurve" smooth="yes"/>
      <point x="1091.0" y="1067.0"/>
      <point x="1242.0" y="1010.0"/>
      <point x="1297.0" y="971.0" type="qcurve" smooth="yes"/>
      <point x="1329.0" y="948.0"/>
      <point x="1306.0" y="918.0" type="qcurve" smooth="yes"/>
      <point x="1261.0" y="858.0" type="line" smooth="yes"/>
      <point x="1240.0" y="829.0"/>
      <point x="1196.0" y="860.0" type="qcurve" smooth="yes"/>
      <point x="1159.0" y="886.0"/>
      <point x="1023.0" y="932.0"/>
      <point x="972.0" y="932.0" type="qcurve" smooth="yes"/>
      <point x="909.0" y="932.0"/>
      <point x="819.0" y="904.0"/>
      <point x="763.0" y="836.0"/>
      <point x="763.0" y="790.0" type="qcurve" smooth="yes"/>
      <point x="763.0" y="755.0"/>
      <point x="785.0" y="700.0"/>
      <point x="845.0" y="654.0"/>
      <point x="899.0" y="640.0" type="qcurve" smooth="yes"/>
      <point x="983.0" y="618.0"/>
      <point x="1122.0" y="582.0"/>
      <point x="1178.0" y="556.0" type="qcurve" smooth="yes"/>
      <point x="1251.0" y="522.0"/>
      <point x="1330.0" y="440.0"/>
      <point x="1360.0" y="345.0"/>
      <point x="1360.0" y="287.0" type="qcurve" smooth="yes"/>
      <point x="1360.0" y="180.0"/>
      <point x="1240.0" y="38.0"/>
      <point x="1092.0" y="0.0"/>
      <point x="970.0" y="0.0" type="qcurve" smooth="yes"/>
      <point x="424.0" y="0.0" type="line" smooth="yes"/>
      <point x="320.0" y="0.0"/>
      <point x="209.0" y="150.0"/>
      <point x="209.0" y="287.0" type="qcurve" smooth="yes"/>
      <point x="209.0" y="918.0" type="line"/>
    </contour>
    <contour>
      <point x="385.0" y="298.0" type="line" smooth="yes"/>
      <point x="385.0" y="193.0"/>
      <point x="448.0" y="132.0"/>
      <point x="492.0" y="132.0" type="qcurve" smooth="yes"/>
      <point x="971.0" y="132.0" type="line" smooth="yes"/>
      <point x="1024.0" y="132.0"/>
      <point x="1121.0" y="151.0"/>
      <point x="1174.0" y="214.0"/>
      <point x="1174.0" y="276.0" type="qcurve" smooth="yes"/>
      <point x="1174.0" y="312.0"/>
      <point x="1143.0" y="376.0"/>
      <point x="1078.0" y="415.0"/>
      <point x="1047.0" y="426.0" type="qcurve" smooth="yes"/>
      <point x="996.0" y="445.0"/>
      <point x="900.0" y="469.0"/>
      <point x="813.0" y="496.0" type="qcurve" smooth="yes"/>
      <point x="757.0" y="513.0"/>
      <point x="660.0" y="576.0"/>
      <point x="587.0" y="684.0"/>
      <point x="587.0" y="779.0" type="qcurve" smooth="yes"/>
      <point x="587.0" y="857.0"/>
      <point x="625.0" y="918.0" type="qcurve"/>
      <point x="385.0" y="918.0" type="line"/>
    </contour>
  </outline>
</glyph>
<glyph name="uni02A7" format="2">
  <advance width="1054"/>
  <unicode hex="02A7"/>
  <outline>
    <contour>
      <point x="91.0" y="918.0" type="line" smooth="yes"/>
      <point x="46.0" y="918.0"/>
      <point x="46.0" y="953.0" type="qcurve" smooth="yes"/>
      <point x="46.0" y="1015.0" type="line" smooth="yes"/>
      <point x="46.0" y="1050.0"/>
      <point x="91.0" y="1050.0" type="qcurve" smooth="yes"/>
      <point x="209.0" y="1050.0" type="line"/>
      <point x="209.0" y="1140.0" type="line" smooth="yes"/>
      <point x="209.0" y="1160.0"/>
      <point x="219.0" y="1178.0" type="qcurve" smooth="yes"/>
      <point x="289.0" y="1305.0" type="line" smooth="yes"/>
      <point x="308.0" y="1340.0"/>
      <point x="320.0" y="1340.0" type="qcurve" smooth="yes"/>
      <point x="355.0" y="1340.0" type="line" smooth="yes"/>
      <point x="385.0" y="1340.0"/>
      <point x="385.0" y="1305.0" type="qcurve" smooth="yes"/>
      <point x="385.0" y="1050.0" type="line"/>
      <point x="616.0" y="1050.0" type="line"/>
      <point x="616.0" y="1199.0" type="line" smooth="yes"/>
      <point x="616.0" y="1366.0"/>
      <point x="803.0" y="1493.0"/>
      <point x="926.0" y="1493.0" type="qcurve" smooth="yes"/>
      <point x="986.0" y="1493.0"/>
      <point x="1059.0" y="1476.0"/>
      <point x="1107.0" y="1452.0" type="qcurve" smooth="yes"/>
      <point x="1129.0" y="1441.0"/>
      <point x="1120.0" y="1420.0" type="qcurve" smooth="yes"/>
      <point x="1087.0" y="1346.0" type="line" smooth="yes"/>
      <point x="1074.0" y="1317.0"/>
      <point x="1052.0" y="1332.0" type="qcurve" smooth="yes"/>
      <point x="1034.0" y="1345.0"/>
      <point x="983.0" y="1363.0"/>
      <point x="943.0" y="1363.0" type="qcurve" smooth="yes"/>
      <point x="881.0" y="1363.0"/>
      <point x="792.0" y="1283.0"/>
      <point x="792.0" y="1170.0" type="qcurve" smooth="yes"/>
      <point x="792.0" y="-93.0" type="line" smooth="yes"/>
      <point x="792.0" y="-287.0"/>
      <point x="645.0" y="-417.0"/>
      <point x="536.0" y="-417.0" type="qcurve" smooth="yes"/>
      <point x="430.0" y="-417.0"/>
      <point x="384.0" y="-397.0" type="qcurve" smooth="yes"/>
      <point x="362.0" y="-387.0"/>
      <point x="366.0" y="-365.0" type="qcurve" smooth="yes"/>
      <point x="383.0" y="-284.0" type="line" smooth="yes"/>
      <point x="388.0" y="-260.0"/>
      <point x="408.0" y="-269.0" type="qcurve" smooth="yes"/>
      <point x="448.0" y="-287.0"/>
      <point x="504.0" y="-287.0" type="qcurve" smooth="yes"/>
      <point x="563.0" y="-287.0"/>
      <point x="616.0" y="-171.0"/>
      <point x="616.0" y="18.0" type="qcurve"/>
      <point x="597.0" y="10.0"/>
      <point x="494.0" y="-17.0"/>
      <point x="424.0" y="-17.0" type="qcurve" smooth="yes"/>
      <point x="320.0" y="-17.0"/>
      <point x="209.0" y="133.0"/>
      <point x="209.0" y="270.0" type="qcurve" smooth="yes"/>
      <point x="209.0" y="918.0" type="line"/>
    </contour>
    <contour>
      <point x="385.0" y="281.0" type="line" smooth="yes"/>
      <point x="385.0" y="176.0"/>
      <point x="448.0" y="113.0"/>
      <point x="492.0" y="113.0" type="qcurve" smooth="yes"/>
      <point x="526.0" y="113.0"/>
      <point x="600.0" y="144.0"/>
      <point x="616.0" y="153.0" type="qcurve"/>
      <point x="616.0" y="918.0" type="line"/>
      <point x="385.0" y="918.0" type="line"/>
    </contour>
  </outline>
</glyph>
<glyph name="uni02AC" format="2">
  <advance width="908"/>
  <unicode hex="02AC"/>
  <outline>
    <contour>
      <point x="41.0" y="601.0" type="line" smooth="yes"/>
      <point x="33.0" y="630.0"/>
      <point x="57.0" y="630.0" type="qcurve" smooth="yes"/>
      <point x="124.0" y="630.0" type="line" smooth="yes"/>
      <point x="146.0" y="630.0"/>
      <point x="151.0" y="607.0" type="qcurve" smooth="yes"/>
      <point x="243.0" y="216.0" type="line" smooth="yes"/>
      <point x="252.0" y="177.0"/>
      <point x="264.0" y="131.0"/>
      <point x="268.0" y="106.0" type="qcurve"/>
      <point x="270.0" y="106.0" type="line"/>
      <point x="274.0" y="131.0"/>
      <point x="285.0" y="177.0"/>
      <point x="295.0" y="216.0" type="qcurve" smooth="yes"/>
      <point x="395.0" y="607.0" type="line" smooth="yes"/>
      <point x="401.0" y="630.0"/>
      <point x="422.0" y="630.0" type="qcurve" smooth="yes"/>
      <point x="486.0" y="630.0" type="line" smooth="yes"/>
      <point x="507.0" y="630.0"/>
      <point x="513.0" y="607.0" type="qcurve" smooth="yes"/>
      <point x="614.0" y="216.0" type="line" smooth="yes"/>
      <point x="624.0" y="177.0"/>
      <point x="634.0" y="131.0"/>
      <point x="638.0" y="106.0" type="qcurve"/>
      <point x="641.0" y="106.0" type="line"/>
      <point x="645.0" y="131.0"/>
      <point x="656.0" y="177.0"/>
      <point x="665.0" y="216.0" type="qcurve" smooth="yes"/>
      <point x="757.0" y="607.0" type="line" smooth="yes"/>
      <point x="762.0" y="630.0"/>
      <point x="784.0" y="630.0" type="qcurve" smooth="yes"/>
      <point x="851.0" y="630.0" type="line" smooth="yes"/>
      <point x="875.0" y="630.0"/>
      <point x="867.0" y="601.0" type="qcurve" smooth="yes"/>
      <point x="717.0" y="37.0" type="line" smooth="yes"/>
      <point x="707.0" y="0.0"/>
      <point x="684.0" y="0.0" type="qcurve" smooth="yes"/>
      <point x="609.0" y="0.0" type="line" smooth="yes"/>
      <point x="587.0" y="0.0"/>
      <point x="577.0" y="37.0" type="qcurve" smooth="yes"/>
      <point x="473.0" y="423.0" type="line" smooth="yes"/>
      <point x="463.0" y="462.0"/>
      <point x="459.0" y="489.0"/>
      <point x="455.0" y="514.0" type="qcurve"/>
      <point x="454.0" y="514.0" type="line"/>
      <point x="450.0" y="489.0"/>
      <point x="446.0" y="462.0"/>
      <point x="436.0" y="423.0" type="qcurve" smooth="yes"/>
      <point x="332.0" y="37.0" type="line" smooth="yes"/>
      <point x="322.0" y="0.0"/>
      <point x="299.0" y="0.0" type="qcurve" smooth="yes"/>
      <point x="224.0" y="0.0" type="line" smooth="yes"/>
      <point x="202.0" y="0.0"/>
      <point x="192.0" y="37.0" type="qcurve" smooth="yes"/>
    </contour>
    <contour>
      <point x="41.0" y="1405.0" type="line" smooth="yes"/>
      <point x="33.0" y="1434.0"/>
      <point x="57.0" y="1434.0" type="qcurve" smooth="yes"/>
      <point x="124.0" y="1434.0" type="line" smooth="yes"/>
      <point x="146.0" y="1434.0"/>
      <point x="151.0" y="1411.0" type="qcurve" smooth="yes"/>
      <point x="243.0" y="1020.0" type="line" smooth="yes"/>
      <point x="252.0" y="981.0"/>
      <point x="264.0" y="935.0"/>
      <point x="268.0" y="910.0" type="qcurve"/>
      <point x="270.0" y="910.0" type="line"/>
      <point x="274.0" y="935.0"/>
      <point x="285.0" y="981.0"/>
      <point x="295.0" y="1020.0" type="qcurve" smooth="yes"/>
      <point x="395.0" y="1411.0" type="line" smooth="yes"/>
      <point x="401.0" y="1434.0"/>
      <point x="422.0" y="1434.0" type="qcurve" smooth="yes"/>
      <point x="486.0" y="1434.0" type="line" smooth="yes"/>
      <point x="507.0" y="1434.0"/>
      <point x="513.0" y="1411.0" type="qcurve" smooth="yes"/>
      <point x="614.0" y="1020.0" type="line" smooth="yes"/>
      <point x="624.0" y="981.0"/>
      <point x="634.0" y="935.0"/>
      <point x="638.0" y="910.0" type="qcurve"/>
      <point x="641.0" y="910.0" type="line"/>
      <point x="645.0" y="935.0"/>
      <point x="656.0" y="981.0"/>
      <point x="665.0" y="1020.0" type="qcurve" smooth="yes"/>
      <point x="757.0" y="1411.0" type="line" smooth="yes"/>
      <point x="762.0" y="1434.0"/>
      <point x="784.0" y="1434.0" type="qcurve" smooth="yes"/>
      <point x="851.0" y="1434.0" type="line" smooth="yes"/>
      <point x="875.0" y="1434.0"/>
      <point x="867.0" y="1405.0" type="qcurve" smooth="yes"/>
      <point x="717.0" y="841.0" type="line" smooth="yes"/>
      <point x="707.0" y="804.0"/>
      <point x="684.0" y="804.0" type="qcurve" smooth="yes"/>
      <point x="609.0" y="804.0" type="line" smooth="yes"/>
      <point x="587.0" y="804.0"/>
      <point x="577.0" y="841.0" type="qcurve" smooth="yes"/>
      <point x="473.0" y="1227.0" type="line" smooth="yes"/>
      <point x="463.0" y="1266.0"/>
      <point x="459.0" y="1293.0"/>
      <point x="455.0" y="1318.0" type="qcurve"/>
      <point x="454.0" y="1318.0" type="line"/>
      <point x="450.0" y="1293.0"/>
      <point x="446.0" y="1266.0"/>
      <point x="436.0" y="1227.0" type="qcurve" smooth="yes"/>
      <point x="332.0" y="841.0" type="line" smooth="yes"/>
      <point x="322.0" y="804.0"/>
      <point x="299.0" y="804.0" type="qcurve" smooth="yes"/>
      <point x="224.0" y="804.0" type="line" smooth="yes"/>
      <point x="202.0" y="804.0"/>
      <point x="192.0" y="841.0" type="qcurve" smooth="yes"/>
    </contour>
  </outline>
</glyph>
<glyph name="uni02D1" format="2">
  <advance width="600"/>
  <unicode hex="02D1"/>
  <outline>
    <contour>
      <point x="190.0" y="985.0" type="line" smooth="yes"/>
      <point x="160.0" y="1050.0"/>
      <point x="235.0" y="1050.0" type="qcurve" smooth="yes"/>
      <point x="365.0" y="1050.0" type="line" smooth="yes"/>
      <point x="440.0" y="1050.0"/>
      <point x="410.0" y="985.0" type="qcurve" smooth="yes"/>
      <point x="347.0" y="849.0" type="line" smooth="yes"/>
      <point x="326.0" y="804.0"/>
      <point x="274.0" y="804.0"/>
      <point x="253.0" y="849.0" type="qcurve" smooth="yes"/>
    </contour>
  </outline>
</glyph>
<glyph name="ring" format="2">
  <advance width="614"/>
  <unicode hex="02DA"/>
  <outline>
    <contour>
      <point x="127.0" y="1313.0" type="qcurve" smooth="yes"/>
      <point x="127.0" y="1388.0"/>
      <point x="232.0" y="1493.0"/>
      <point x="307.0" y="1493.0" type="qcurve" smooth="yes"/>
      <point x="382.0" y="1493.0"/>
      <point x="487.0" y="1388.0"/>
      <point x="487.0" y="1313.0" type="qcurve" smooth="yes"/>
      <point x="487.0" y="1238.0"/>
      <point x="382.0" y="1133.0"/>
      <point x="307.0" y="1133.0" type="qcurve" smooth="yes"/>
      <point x="232.0" y="1133.0"/>
      <point x="127.0" y="1238.0"/>
    </contour>
    <contour>
      <point x="203.0" y="1313.0" type="qcurve" smooth="yes"/>
      <point x="203.0" y="1269.0"/>
      <point x="263.0" y="1209.0"/>
      <point x="307.0" y="1209.0" type="qcurve" smooth="yes"/>
      <point x="351.0" y="1209.0"/>
      <point x="411.0" y="1269.0"/>
      <point x="411.0" y="1313.0" type="qcurve" smooth="yes"/>
      <point x="411.0" y="1357.0"/>
      <point x="351.0" y="1417.0"/>
      <point x="307.0" y="1417.0" type="qcurve" smooth="yes"/>
      <point x="263.0" y="1417.0"/>
      <point x="203.0" y="1357.0"/>
    </contour>
  </outline>
</glyph>
<glyph name="uni02E8" format="2">
  <advance width="820"/>
  <unicode hex="02E8"/>
  <outline>
    <contour>
      <point x="125.0" y="339.0" type="line" smooth="yes"/>
      <point x="80.0" y="339.0"/>
      <point x="80.0" y="374.0" type="qcurve" smooth="yes"/>
      <point x="80.0" y="424.0" type="line" smooth="yes"/>
      <point x="80.0" y="459.0"/>
      <point x="125.0" y="459.0" type="qcurve" smooth="yes"/>
      <point x="530.0" y="459.0" type="line"/>
      <point x="530.0" y="1431.0" type="line" smooth="yes"/>
      <point x="530.0" y="1476.0"/>
      <point x="565.0" y="1476.0" type="qcurve" smooth="yes"/>
      <point x="625.0" y="1476.0" type="line" smooth="yes"/>
      <point x="660.0" y="1476.0"/>
      <point x="660.0" y="1431.0" type="qcurve" smooth="yes"/>
      <point x="660.0" y="45.0" type="line" smooth="yes"/>
      <point x="660.0" y="0.0"/>
      <point x="625.0" y="0.0" type="qcurve" smooth="yes"/>
      <point x="565.0" y="0.0" type="line" smooth="yes"/>
      <point x="530.0" y="0.0"/>
      <point x="530.0" y="45.0" type="qcurve" smooth="yes"/>
      <point x="530.0" y="339.0" type="line"/>
    </contour>
  </outline>
</glyph>
<glyph name="uni02E9" format="2">
  <advance width="820"/>
  <unicode hex="02E9"/>
  <outline>
    <contour>
      <point x="125.0" y="0.0" type="line" smooth="yes"/>
      <point x="80.0" y="0.0"/>
      <point x="80.0" y="35.0" type="qcurve" smooth="yes"/>
      <point x="80.0" y="85.0" type="line" smooth="yes"/>
      <point x="80.0" y="120.0"/>
      <point x="125.0" y="120.0" type="qcurve" smooth="yes"/>
      <point x="530.0" y="120.0" type="line"/>
      <point x="530.0" y="1431.0" type="line" smooth="yes"/>
      <point x="530.0" y="1476.0"/>
      <point x="565.0" y="1476.0" type="qcurve" smooth="yes"/>
      <point x="625.0" y="1476.0" type="line" smooth="yes"/>
      <point x="660.0" y="1476.0"/>
      <point x="660.0" y="1431.0" type="qcurve" smooth="yes"/>
      <point x="660.0" y="45.0" type="line" smooth="yes"/>
      <point x="660.0" y="1.0"/>
      <point x="625.0" y="1.0" type="qcurve" smooth="yes"/>
      <point x="609.0" y="1.0" type="line"/>
      <point x="609.0" y="0.0" type="line"/>
    </contour>
  </outline>
</glyph>
<glyph name="uni031A" format="2">
  <advance width="280"/>
  <unicode hex="031A"/>
  <outline>
    <contour>
      <point x="-137.0" y="1542.0" type="line" smooth="yes"/>
      <point x="-182.0" y="1542.0"/>
      <point x="-182.0" y="1577.0" type="qcurve" smooth="yes"/>
      <point x="-182.0" y="1617.0" type="line" smooth="yes"/>
      <point x="-182.0" y="1652.0"/>
      <point x="-137.0" y="1652.0" type="qcurve" smooth="yes"/>
      <point x="177.0" y="1652.0" type="line" smooth="yes"/>
      <point x="222.0" y="1652.0"/>
      <point x="222.0" y="1617.0" type="qcurve" smooth="yes"/>
      <point x="222.0" y="1233.0" type="line" smooth="yes"/>
      <point x="222.0" y="1188.0"/>
      <point x="187.0" y="1188.0" type="qcurve" smooth="yes"/>
      <point x="147.0" y="1188.0" type="line" smooth="yes"/>
      <point x="112.0" y="1188.0"/>
      <point x="112.0" y="1233.0" type="qcurve" smooth="yes"/>
      <point x="112.0" y="1542.0" type="line"/>
    </contour>
  </outline>
</glyph>
<glyph name="Sigma" format="2">
  <advance width="1208"/>
  <unicode hex="03A3"/>
  <outline>
    <contour>
      <point x="129.0" y="0.0" type="line" smooth="yes"/>
      <point x="74.0" y="0.0"/>
      <point x="74.0" y="45.0" type="qcurve" smooth="yes"/>
      <point x="74.0" y="93.0" type="line" smooth="yes"/>
      <point x="74.0" y="140.0"/>
      <point x="104.0" y="182.0" type="qcurve" smooth="yes"/>
      <point x="494.0" y="722.0" type="line" smooth="yes"/>
      <point x="520.0" y="758.0"/>
      <point x="494.0" y="794.0" type="qcurve" smooth="yes"/>
      <point x="120.0" y="1299.0" type="line" smooth="yes"/>
      <point x="100.0" y="1326.0"/>
      <point x="100.0" y="1360.0" type="qcurve" smooth="yes"/>
      <point x="100.0" y="1389.0" type="line" smooth="yes"/>
      <point x="100.0" y="1434.0"/>
      <point x="155.0" y="1434.0" type="qcurve" smooth="yes"/>
      <point x="1053.0" y="1434.0" type="line" smooth="yes"/>
      <point x="1108.0" y="1434.0"/>
      <point x="1108.0" y="1389.0" type="qcurve" smooth="yes"/>
      <point x="1108.0" y="1315.0" type="line" smooth="yes"/>
      <point x="1108.0" y="1270.0"/>
      <point x="1053.0" y="1270.0" type="qcurve" smooth="yes"/>
      <point x="443.0" y="1270.0" type="line" smooth="yes"/>
      <point x="403.0" y="1270.0"/>
      <point x="363.0" y="1272.0" type="qcurve"/>
      <point x="363.0" y="1268.0" type="line"/>
      <point x="719.0" y="786.0" type="line" smooth="yes"/>
      <point x="743.0" y="753.0"/>
      <point x="719.0" y="719.0" type="qcurve" smooth="yes"/>
      <point x="320.0" y="166.0" type="line"/>
      <point x="320.0" y="162.0" type="line"/>
      <point x="347.0" y="164.0"/>
      <point x="400.0" y="164.0" type="qcurve" smooth="yes"/>
      <point x="1081.0" y="164.0" type="line" smooth="yes"/>
      <point x="1136.0" y="164.0"/>
      <point x="1136.0" y="119.0" type="qcurve" smooth="yes"/>
      <point x="1136.0" y="45.0" type="line" smooth="yes"/>
      <point x="1136.0" y="0.0"/>
      <point x="1081.0" y="0.0" type="qcurve" smooth="yes"/>
    </contour>
  </outline>
</glyph>
<glyph name="beta" format="2">
  <advance width="1146"/>
  <unicode hex="03B2"/>
  <outline>
    <contour>
      <point x="187.0" y="-400.0" type="line" smooth="yes"/>
      <point x="142.0" y="-400.0"/>
      <point x="142.0" y="-355.0" type="qcurve" smooth="yes"/>
      <point x="142.0" y="955.0" type="line" smooth="yes"/>
      <point x="142.0" y="1190.0"/>
      <point x="326.0" y="1493.0"/>
      <point x="559.0" y="1493.0" type="qcurve" smooth="yes"/>
      <point x="753.0" y="1493.0"/>
      <point x="957.0" y="1276.0"/>
      <point x="957.0" y="1118.0" type="qcurve" smooth="yes"/>
      <point x="957.0" y="1016.0"/>
      <point x="860.0" y="856.0"/>
      <point x="768.0" y="816.0" type="qcurve"/>
      <point x="768.0" y="813.0" type="line"/>
      <point x="897.0" y="789.0"/>
      <point x="1046.0" y="555.0"/>
      <point x="1046.0" y="418.0" type="qcurve" smooth="yes"/>
      <point x="1046.0" y="216.0"/>
      <point x="834.0" y="-17.0"/>
      <point x="627.0" y="-17.0" type="qcurve" smooth="yes"/>
      <point x="512.0" y="-17.0"/>
      <point x="373.0" y="59.0"/>
      <point x="318.0" y="125.0" type="qcurve"/>
      <point x="316.0" y="125.0" type="line"/>
      <point x="318.0" y="95.0"/>
      <point x="318.0" y="64.0" type="qcurve" smooth="yes"/>
      <point x="318.0" y="-355.0" type="line" smooth="yes"/>
      <point x="318.0" y="-400.0"/>
      <point x="273.0" y="-400.0" type="qcurve" smooth="yes"/>
    </contour>
    <contour>
      <point x="318.0" y="450.0" type="line" smooth="yes"/>
      <point x="318.0" y="300.0"/>
      <point x="498.0" y="113.0"/>
      <point x="593.0" y="113.0" type="qcurve" smooth="yes"/>
      <point x="726.0" y="113.0"/>
      <point x="860.0" y="276.0"/>
      <point x="860.0" y="410.0" type="qcurve" smooth="yes"/>
      <point x="860.0" y="585.0"/>
      <point x="709.0" y="731.0"/>
      <point x="593.0" y="731.0" type="qcurve" smooth="yes"/>
      <point x="487.0" y="731.0" type="line" smooth="yes"/>
      <point x="447.0" y="731.0"/>
      <point x="447.0" y="766.0" type="qcurve" smooth="yes"/>
      <point x="447.0" y="828.0" type="line" smooth="yes"/>
      <point x="447.0" y="863.0"/>
      <point x="487.0" y="863.0" type="qcurve" smooth="yes"/>
      <point x="534.0" y="863.0" type="line" smooth="yes"/>
      <point x="660.0" y="863.0"/>
      <point x="781.0" y="1020.0"/>
      <point x="781.0" y="1105.0" type="qcurve" smooth="yes"/>
      <point x="781.0" y="1198.0"/>
      <point x="702.0" y="1363.0"/>
      <point x="559.0" y="1363.0" type="qcurve" smooth="yes"/>
      <point x="419.0" y="1363.0"/>
      <point x="318.0" y="1157.0"/>
      <point x="318.0" y="947.0" type="qcurve" smooth="yes"/>
    </contour>
  </outline>
</glyph>
<glyph name="afii10059" format="2">
  <advance width="2218"/>
  <unicode hex="040A"/>
  <outline>
    <contour>
      <point x="220.0" y="0.0" type="line" smooth="yes"/>
      <point x="170.0" y="0.0"/>
      <point x="170.0" y="55.0" type="qcurve" smooth="yes"/>
      <point x="170.0" y="1379.0" type="line" smooth="yes"/>
      <point x="170.0" y="1434.0"/>
      <point x="220.0" y="1434.0" type="qcurve" smooth="yes"/>
      <point x="312.0" y="1434.0" type="line" smooth="yes"/>
      <point x="362.0" y="1434.0"/>
      <point x="362.0" y="1379.0" type="qcurve" smooth="yes"/>
      <point x="362.0" y="828.0" type="line"/>
      <point x="1060.0" y="828.0" type="line"/>
      <point x="1060.0" y="1379.0" type="line" smooth="yes"/>
      <point x="1060.0" y="1434.0"/>
      <point x="1110.0" y="1434.0" type="qcurve" smooth="yes"/>
      <point x="1202.0" y="1434.0" type="line" smooth="yes"/>
      <point x="1252.0" y="1434.0"/>
      <point x="1252.0" y="1379.0" type="qcurve" smooth="yes"/>
      <point x="1252.0" y="828.0" type="line"/>
      <point x="1540.0" y="828.0" type="line" smooth="yes"/>
      <point x="1877.0" y="828.0"/>
      <point x="2128.0" y="604.0"/>
      <point x="2128.0" y="414.0" type="qcurve" smooth="yes"/>
      <point x="2128.0" y="224.0"/>
      <point x="1877.0" y="0.0"/>
      <point x="1540.0" y="0.0" type="qcurve" smooth="yes"/>
      <point x="1110.0" y="0.0" type="line" smooth="yes"/>
      <point x="1060.0" y="0.0"/>
      <point x="1060.0" y="55.0" type="qcurve" smooth="yes"/>
      <point x="1060.0" y="664.0" type="line"/>
      <point x="362.0" y="664.0" type="line"/>
      <point x="362.0" y="55.0" type="line" smooth="yes"/>
      <point x="362.0" y="0.0"/>
      <point x="312.0" y="0.0" type="qcurve" smooth="yes"/>
    </contour>
    <contour>
      <point x="1252.0" y="164.0" type="line"/>
      <point x="1508.0" y="164.0" type="line" smooth="yes"/>
      <point x="1723.0" y="164.0"/>
      <point x="1923.0" y="279.0"/>
      <point x="1923.0" y="414.0" type="qcurve" smooth="yes"/>
      <point x="1923.0" y="549.0"/>
      <point x="1723.0" y="664.0"/>
      <point x="1508.0" y="664.0" type="qcurve" smooth="yes"/>
      <point x="1252.0" y="664.0" type="line"/>
    </contour>
  </outline>
</glyph>
<glyph name="afii10060" format="2">
  <advance width="1630"/>
  <unicode hex="040B"/>
  <outline>
    <contour>
      <point x="91.0" y="1270.0" type="line" smooth="yes"/>
      <point x="36.0" y="1270.0"/>
      <point x="36.0" y="1315.0" type="qcurve" smooth="yes"/>
      <point x="36.0" y="1389.0" type="line" smooth="yes"/>
      <point x="36.0" y="1434.0"/>
      <point x="91.0" y="1434.0" type="qcurve" smooth="yes"/>
      <point x="1149.0" y="1434.0" type="line" smooth="yes"/>
      <point x="1204.0" y="1434.0"/>
      <point x="1204.0" y="1389.0" type="qcurve" smooth="yes"/>
      <point x="1204.0" y="1315.0" type="line" smooth="yes"/>
      <point x="1204.0" y="1270.0"/>
      <point x="1149.0" y="1270.0" type="qcurve" smooth="yes"/>
      <point x="686.0" y="1270.0" type="line"/>
      <point x="686.0" y="861.0" type="line" smooth="yes"/>
      <point x="686.0" y="821.0"/>
      <point x="684.0" y="781.0" type="qcurve"/>
      <point x="688.0" y="781.0" type="line"/>
      <point x="782.0" y="822.0"/>
      <point x="974.0" y="868.0"/>
      <point x="1117.0" y="868.0" type="qcurve" smooth="yes"/>
      <point x="1306.0" y="868.0"/>
      <point x="1490.0" y="663.0"/>
      <point x="1490.0" y="522.0" type="qcurve" smooth="yes"/>
      <point x="1490.0" y="55.0" type="line" smooth="yes"/>
      <point x="1490.0" y="0.0"/>
      <point x="1440.0" y="0.0" type="qcurve" smooth="yes"/>
      <point x="1348.0" y="0.0" type="line" smooth="yes"/>
      <point x="1298.0" y="0.0"/>
      <point x="1298.0" y="55.0" type="qcurve" smooth="yes"/>
      <point x="1298.0" y="474.0" type="line" smooth="yes"/>
      <point x="1298.0" y="614.0"/>
      <point x="1188.0" y="714.0"/>
      <point x="1092.0" y="714.0" type="qcurve" smooth="yes"/>
      <point x="1014.0" y="714.0"/>
      <point x="798.0" y="694.0"/>
      <point x="686.0" y="647.0" type="qcurve"/>
      <point x="686.0" y="55.0" type="line" smooth="yes"/>
      <point x="686.0" y="0.0"/>
      <point x="636.0" y="0.0" type="qcurve" smooth="yes"/>
      <point x="544.0" y="0.0" type="line" smooth="yes"/>
      <point x="494.0" y="0.0"/>
      <point x="494.0" y="55.0" type="qcurve" smooth="yes"/>
      <point x="494.0" y="1270.0" type="line"/>
    </contour>
  </outline>
</glyph>
<glyph name="afii10020" format="2">
  <advance width="1106"/>
  <unicode hex="0413"/>
  <outline>
    <contour>
      <point x="220.0" y="0.0" type="line" smooth="yes"/>
      <point x="170.0" y="0.0"/>
      <point x="170.0" y="55.0" type="qcurve" smooth="yes"/>
      <point x="170.0" y="1379.0" type="line" smooth="yes"/>
      <point x="170.0" y="1434.0"/>
      <point x="220.0" y="1434.0" type="qcurve" smooth="yes"/>
      <point x="1015.0" y="1434.0" type="line" smooth="yes"/>
      <point x="1070.0" y="1434.0"/>
      <point x="1070.0" y="1389.0" type="qcurve" smooth="yes"/>
      <point x="1070.0" y="1315.0" type="line" smooth="yes"/>
      <point x="1070.0" y="1270.0"/>
      <point x="1015.0" y="1270.0" type="qcurve" smooth="yes"/>
      <point x="362.0" y="1270.0" type="line"/>
      <point x="362.0" y="55.0" type="line" smooth="yes"/>
      <point x="362.0" y="0.0"/>
      <point x="312.0" y="0.0" type="qcurve" smooth="yes"/>
    </contour>
  </outline>
</glyph>
<glyph name="afii10026" format="2">
  <advance width="1452"/>
  <unicode hex="0418"/>
  <outline>
    <contour>
      <point x="220.0" y="0.0" type="line" smooth="yes"/>
      <point x="170.0" y="0.0"/>
      <point x="170.0" y="55.0" type="qcurve" smooth="yes"/>
      <point x="170.0" y="1379.0" type="line" smooth="yes"/>
      <point x="170.0" y="1434.0"/>
      <point x="220.0" y="1434.0" type="qcurve" smooth="yes"/>
      <point x="312.0" y="1434.0" type="line" smooth="yes"/>
      <point x="362.0" y="1434.0"/>
      <point x="362.0" y="1379.0" type="qcurve" smooth="yes"/>
      <point x="362.0" y="340.0" type="line" smooth="yes"/>
      <point x="362.0" y="300.0"/>
      <point x="360.0" y="260.0" type="qcurve"/>
      <point x="364.0" y="260.0" type="line"/>
      <point x="1004.0" y="1384.0" type="line" smooth="yes"/>
      <point x="1032.0" y="1434.0"/>
      <point x="1104.0" y="1434.0" type="qcurve" smooth="yes"/>
      <point x="1232.0" y="1434.0" type="line" smooth="yes"/>
      <point x="1282.0" y="1434.0"/>
      <point x="1282.0" y="1379.0" type="qcurve" smooth="yes"/>
      <point x="1282.0" y="55.0" type="line" smooth="yes"/>
      <point x="1282.0" y="0.0"/>
      <point x="1232.0" y="0.0" type="qcurve" smooth="yes"/>
      <point x="1140.0" y="0.0" type="line" smooth="yes"/>
      <point x="1090.0" y="0.0"/>
      <point x="1090.0" y="55.0" type="qcurve" smooth="yes"/>
      <point x="1090.0" y="1094.0" type="line" smooth="yes"/>
      <point x="1090.0" y="1134.0"/>
      <point x="1092.0" y="1174.0" type="qcurve"/>
      <point x="1088.0" y="1174.0" type="line"/>
      <point x="448.0" y="50.0" type="line" smooth="yes"/>
      <point x="420.0" y="0.0"/>
      <point x="348.0" y="0.0" type="qcurve" smooth="yes"/>
    </contour>
  </outline>
</glyph>
<glyph name="afii10044" format="2">
  <advance width="1720"/>
  <unicode hex="042A"/>
  <outline>
    <contour>
      <point x="91.0" y="1270.0" type="line" smooth="yes"/>
      <point x="36.0" y="1270.0"/>
      <point x="36.0" y="1315.0" type="qcurve" smooth="yes"/>
      <point x="36.0" y="1389.0" type="line" smooth="yes"/>
      <point x="36.0" y="1434.0"/>
      <point x="91.0" y="1434.0" type="qcurve" smooth="yes"/>
      <point x="704.0" y="1434.0" type="line" smooth="yes"/>
      <point x="754.0" y="1434.0"/>
      <point x="754.0" y="1379.0" type="qcurve" smooth="yes"/>
      <point x="754.0" y="828.0" type="line"/>
      <point x="1042.0" y="828.0" type="line" smooth="yes"/>
      <point x="1379.0" y="828.0"/>
      <point x="1630.0" y="604.0"/>
      <point x="1630.0" y="414.0" type="qcurve" smooth="yes"/>
      <point x="1630.0" y="224.0"/>
      <point x="1379.0" y="0.0"/>
      <point x="1042.0" y="0.0" type="qcurve" smooth="yes"/>
      <point x="612.0" y="0.0" type="line" smooth="yes"/>
      <point x="562.0" y="0.0"/>
      <point x="562.0" y="55.0" type="qcurve" smooth="yes"/>
      <point x="562.0" y="1270.0" type="line"/>
    </contour>
    <contour>
      <point x="754.0" y="164.0" type="line"/>
      <point x="1010.0" y="164.0" type="line" smooth="yes"/>
      <point x="1225.0" y="164.0"/>
      <point x="1425.0" y="279.0"/>
      <point x="1425.0" y="414.0" type="qcurve" smooth="yes"/>
      <point x="1425.0" y="549.0"/>
      <point x="1225.0" y="664.0"/>
      <point x="1010.0" y="664.0" type="qcurve" smooth="yes"/>
      <point x="754.0" y="664.0" type="line"/>
    </contour>
  </outline>
</glyph>
<glyph name="afii10049" format="2">
  <advance width="1373"/>
  <unicode hex="042F"/>
  <outline>
    <contour>
      <point x="138.0" y="0.0" type="line" smooth="yes"/>
      <point x="73.0" y="0.0"/>
      <point x="120.0" y="66.0" type="qcurve" smooth="yes"/>
      <point x="373.0" y="425.0" type="line" smooth="yes"/>
      <point x="390.0" y="449.0"/>
      <point x="529.0" y="600.0"/>
      <point x="590.0" y="636.0" type="qcurve"/>
      <point x="590.0" y="638.0" type="line"/>
      <point x="421.0" y="658.0"/>
      <point x="161.0" y="846.0"/>
      <point x="161.0" y="1021.0" type="qcurve" smooth="yes"/>
      <point x="161.0" y="1233.0"/>
      <point x="420.0" y="1434.0"/>
      <point x="709.0" y="1434.0" type="qcurve" smooth="yes"/>
      <point x="1153.0" y="1434.0" type="line" smooth="yes"/>
      <point x="1203.0" y="1434.0"/>
      <point x="1203.0" y="1379.0" type="qcurve" smooth="yes"/>
      <point x="1203.0" y="55.0" type="line" smooth="yes"/>
      <point x="1203.0" y="0.0"/>
      <point x="1153.0" y="0.0" type="qcurve" smooth="yes"/>
      <point x="1061.0" y="0.0" type="line" smooth="yes"/>
      <point x="1011.0" y="0.0"/>
      <point x="1011.0" y="55.0" type="qcurve" smooth="yes"/>
      <point x="1011.0" y="613.0" type="line"/>
      <point x="910.0" y="613.0" type="line" smooth="yes"/>
      <point x="780.0" y="613.0"/>
      <point x="623.0" y="479.0"/>
      <point x="562.0" y="388.0" type="qcurve" smooth="yes"/>
      <point x="327.0" y="39.0" type="line" smooth="yes"/>
      <point x="301.0" y="0.0"/>
      <point x="257.0" y="0.0" type="qcurve" smooth="yes"/>
    </contour>
    <contour>
      <point x="366.0" y="1053.0" type="qcurve" smooth="yes"/>
      <point x="366.0" y="888.0"/>
      <point x="576.0" y="777.0"/>
      <point x="771.0" y="777.0" type="qcurve" smooth="yes"/>
      <point x="1011.0" y="777.0" type="line"/>
      <point x="1011.0" y="1270.0" type="line"/>
      <point x="723.0" y="1270.0" type="line" smooth="yes"/>
      <point x="558.0" y="1270.0"/>
      <point x="366.0" y="1183.0"/>
    </contour>
  </outline>
</glyph>
<glyph name="afii10069" format="2">
  <advance width="1210"/>
  <unicode hex="0434"/>
  <outline>
    <contour>
      <point x="84.0" y="-310.0" type="line" smooth="yes"/>
      <point x="44.0" y="-310.0"/>
      <point x="44.0" y="-265.0" type="qcurve" smooth="yes"/>
      <point x="44.0" y="87.0" type="line" smooth="yes"/>
      <point x="44.0" y="132.0"/>
      <point x="89.0" y="132.0" type="qcurve" smooth="yes"/>
      <point x="153.0" y="132.0" type="line"/>
      <point x="256.0" y="228.0"/>
      <point x="317.0" y="638.0"/>
      <point x="317.0" y="775.0" type="qcurve" smooth="yes"/>
      <point x="317.0" y="1005.0" type="line" smooth="yes"/>
      <point x="317.0" y="1050.0"/>
      <point x="380.0" y="1050.0" type="qcurve" smooth="yes"/>
      <point x="945.0" y="1050.0" type="line" smooth="yes"/>
      <point x="990.0" y="1050.0"/>
      <point x="990.0" y="1005.0" type="qcurve" smooth="yes"/>
      <point x="990.0" y="132.0" type="line"/>
      <point x="1109.0" y="132.0" type="line" smooth="yes"/>
      <point x="1154.0" y="132.0"/>
      <point x="1154.0" y="87.0" type="qcurve" smooth="yes"/>
      <point x="1154.0" y="-265.0" type="line" smooth="yes"/>
      <point x="1154.0" y="-310.0"/>
      <point x="1114.0" y="-310.0" type="qcurve" smooth="yes"/>
      <point x="1040.0" y="-310.0" type="line" smooth="yes"/>
      <point x="1000.0" y="-310.0"/>
      <point x="1000.0" y="-265.0" type="qcurve" smooth="yes"/>
      <point x="1000.0" y="0.0" type="line"/>
      <point x="198.0" y="0.0" type="line"/>
      <point x="198.0" y="-265.0" type="line" smooth="yes"/>
      <point x="198.0" y="-310.0"/>
      <point x="158.0" y="-310.0" type="qcurve" smooth="yes"/>
    </contour>
    <contour>
      <point x="329.0" y="132.0" type="qcurve"/>
      <point x="814.0" y="132.0" type="line"/>
      <point x="814.0" y="918.0" type="line"/>
      <point x="471.0" y="918.0" type="line"/>
      <point x="471.0" y="720.0" type="line" smooth="yes"/>
      <point x="471.0" y="458.0"/>
      <point x="376.0" y="164.0"/>
    </contour>
  </outline>
</glyph>
<glyph name="afii10073" format="2">
  <advance width="982"/>
  <unicode hex="0437"/>
  <outline>
    <contour>
      <point x="82.0" y="114.0" type="qcurve" smooth="yes"/>
      <point x="58.0" y="148.0"/>
      <point x="79.0" y="169.0" type="qcurve" smooth="yes"/>
      <point x="134.0" y="223.0" type="line" smooth="yes"/>
      <point x="162.0" y="251.0"/>
      <point x="198.0" y="209.0" type="qcurve" smooth="yes"/>
      <point x="204.0" y="202.0"/>
      <point x="336.0" y="113.0"/>
      <point x="436.0" y="113.0" type="qcurve" smooth="yes"/>
      <point x="602.0" y="113.0"/>
      <point x="696.0" y="224.0"/>
      <point x="696.0" y="300.0" type="qcurve" smooth="yes"/>
      <point x="696.0" y="398.0"/>
      <point x="576.0" y="483.0"/>
      <point x="465.0" y="483.0" type="qcurve" smooth="yes"/>
      <point x="341.0" y="483.0" type="line" smooth="yes"/>
      <point x="296.0" y="483.0"/>
      <point x="296.0" y="518.0" type="qcurve" smooth="yes"/>
      <point x="296.0" y="578.0" type="line" smooth="yes"/>
      <point x="296.0" y="613.0"/>
      <point x="341.0" y="613.0" type="qcurve" smooth="yes"/>
      <point x="432.0" y="613.0" type="line" smooth="yes"/>
      <point x="554.0" y="613.0"/>
      <point x="659.0" y="698.0"/>
      <point x="659.0" y="779.0" type="qcurve" smooth="yes"/>
      <point x="659.0" y="868.0"/>
      <point x="534.0" y="937.0"/>
      <point x="434.0" y="937.0" type="qcurve" smooth="yes"/>
      <point x="386.0" y="937.0"/>
      <point x="262.0" y="916.0"/>
      <point x="216.0" y="868.0" type="qcurve" smooth="yes"/>
      <point x="173.0" y="823.0"/>
      <point x="148.0" y="848.0" type="qcurve" smooth="yes"/>
      <point x="95.0" y="901.0" type="line" smooth="yes"/>
      <point x="66.0" y="930.0"/>
      <point x="108.0" y="966.0" type="qcurve" smooth="yes"/>
      <point x="162.0" y="1012.0"/>
      <point x="312.0" y="1067.0"/>
      <point x="457.0" y="1067.0" type="qcurve" smooth="yes"/>
      <point x="656.0" y="1067.0"/>
      <point x="835.0" y="894.0"/>
      <point x="835.0" y="792.0" type="qcurve" smooth="yes"/>
      <point x="835.0" y="686.0"/>
      <point x="756.0" y="586.0"/>
      <point x="697.0" y="559.0" type="qcurve"/>
      <point x="697.0" y="556.0" type="line"/>
      <point x="776.0" y="533.0"/>
      <point x="882.0" y="388.0"/>
      <point x="882.0" y="308.0" type="qcurve" smooth="yes"/>
      <point x="882.0" y="134.0"/>
      <point x="664.0" y="-17.0"/>
      <point x="450.0" y="-17.0" type="qcurve" smooth="yes"/>
      <point x="282.0" y="-17.0"/>
      <point x="91.0" y="101.0"/>
    </contour>
  </outline>
</glyph>
<glyph name="afii10084" format="2">
  <advance width="960"/>
  <unicode hex="0442"/>
  <outline>
    <contour>
      <point x="77.0" y="915.0" type="line" smooth="yes"/>
      <point x="32.0" y="915.0"/>
      <point x="32.0" y="950.0" type="qcurve" smooth="yes"/>
      <point x="32.0" y="1015.0" type="line" smooth="yes"/>
      <point x="32.0" y="1050.0"/>
      <point x="77.0" y="1050.0" type="qcurve" smooth="yes"/>
      <point x="883.0" y="1050.0" type="line" smooth="yes"/>
      <point x="928.0" y="1050.0"/>
      <point x="928.0" y="1015.0" type="qcurve" smooth="yes"/>
      <point x="928.0" y="950.0" type="line" smooth="yes"/>
      <point x="928.0" y="915.0"/>
      <point x="883.0" y="915.0" type="qcurve" smooth="yes"/>
      <point x="568.0" y="915.0" type="line"/>
      <point x="568.0" y="45.0" type="line" smooth="yes"/>
      <point x="568.0" y="0.0"/>
      <point x="523.0" y="0.0" type="qcurve" smooth="yes"/>
      <point x="437.0" y="0.0" type="line" smooth="yes"/>
      <point x="392.0" y="0.0"/>
      <point x="392.0" y="45.0" type="qcurve" smooth="yes"/>
      <point x="392.0" y="915.0" type="line"/>
    </contour>
  </outline>
</glyph>
<glyph name="afii10086" format="2">
  <advance width="1638"/>
  <unicode hex="0444"/>
  <outline>
    <contour>
      <point x="85.0" y="525.0" type="qcurve" smooth="yes"/>
      <point x="85.0" y="748.0"/>
      <point x="308.0" y="1067.0"/>
      <point x="468.0" y="1067.0" type="qcurve" smooth="yes"/>
      <point x="573.0" y="1067.0"/>
      <point x="684.0" y="994.0"/>
      <point x="731.0" y="925.0" type="qcurve"/>
      <point x="733.0" y="925.0" type="line"/>
      <point x="731.0" y="955.0"/>
      <point x="731.0" y="985.0" type="qcurve" smooth="yes"/>
      <point x="731.0" y="1395.0" type="line" smooth="yes"/>
      <point x="731.0" y="1440.0"/>
      <point x="776.0" y="1440.0" type="qcurve" smooth="yes"/>
      <point x="862.0" y="1440.0" type="line" smooth="yes"/>
      <point x="907.0" y="1440.0"/>
      <point x="907.0" y="1395.0" type="qcurve" smooth="yes"/>
      <point x="907.0" y="985.0" type="line" smooth="yes"/>
      <point x="907.0" y="955.0"/>
      <point x="905.0" y="925.0" type="qcurve"/>
      <point x="907.0" y="925.0" type="line"/>
      <point x="954.0" y="994.0"/>
      <point x="1065.0" y="1067.0"/>
      <point x="1170.0" y="1067.0" type="qcurve" smooth="yes"/>
      <point x="1330.0" y="1067.0"/>
      <point x="1553.0" y="748.0"/>
      <point x="1553.0" y="525.0" type="qcurve" smooth="yes"/>
      <point x="1553.0" y="302.0"/>
      <point x="1330.0" y="-17.0"/>
      <point x="1170.0" y="-17.0" type="qcurve" smooth="yes"/>
      <point x="1065.0" y="-17.0"/>
      <point x="954.0" y="56.0"/>
      <point x="907.0" y="125.0" type="qcurve"/>
      <point x="905.0" y="125.0" type="line"/>
      <point x="907.0" y="95.0"/>
      <point x="907.0" y="65.0" type="qcurve" smooth="yes"/>
      <point x="907.0" y="-355.0" type="line" smooth="yes"/>
      <point x="907.0" y="-400.0"/>
      <point x="862.0" y="-400.0" type="qcurve" smooth="yes"/>
      <point x="776.0" y="-400.0" type="line" smooth="yes"/>
      <point x="731.0" y="-400.0"/>
      <point x="731.0" y="-355.0" type="qcurve" smooth="yes"/>
      <point x="731.0" y="65.0" type="line" smooth="yes"/>
      <point x="731.0" y="95.0"/>
      <point x="733.0" y="125.0" type="qcurve"/>
      <point x="731.0" y="125.0" type="line"/>
      <point x="684.0" y="56.0"/>
      <point x="573.0" y="-17.0"/>
      <point x="468.0" y="-17.0" type="qcurve" smooth="yes"/>
      <point x="308.0" y="-17.0"/>
      <point x="85.0" y="302.0"/>
    </contour>
    <contour>
      <point x="271.0" y="525.0" type="qcurve" smooth="yes"/>
      <point x="271.0" y="345.0"/>
      <point x="395.0" y="113.0"/>
      <point x="525.0" y="113.0" type="qcurve" smooth="yes"/>
      <point x="605.0" y="113.0"/>
      <point x="731.0" y="260.0"/>
      <point x="731.0" y="405.0" type="qcurve" smooth="yes"/>
      <point x="731.0" y="645.0" type="line" smooth="yes"/>
      <point x="731.0" y="790.0"/>
      <point x="605.0" y="937.0"/>
      <point x="525.0" y="937.0" type="qcurve" smooth="yes"/>
      <point x="395.0" y="937.0"/>
      <point x="271.0" y="705.0"/>
    </contour>
    <contour>
      <point x="907.0" y="405.0" type="line" smooth="yes"/>
      <point x="907.0" y="260.0"/>
      <point x="1033.0" y="113.0"/>
      <point x="1113.0" y="113.0" type="qcurve" smooth="yes"/>
      <point x="1243.0" y="113.0"/>
      <point x="1367.0" y="345.0"/>
      <point x="1367.0" y="525.0" type="qcurve" smooth="yes"/>
      <point x="1367.0" y="705.0"/>
      <point x="1243.0" y="937.0"/>
      <point x="1113.0" y="937.0" type="qcurve" smooth="yes"/>
      <point x="1033.0" y="937.0"/>
      <point x="907.0" y="790.0"/>
      <point x="907.0" y="645.0" type="qcurve" smooth="yes"/>
    </contour>
  </outline>
</glyph>
<glyph name="afii10091" format="2">
  <advance width="1752"/>
  <unicode hex="0449"/>
  <outline>
    <contour>
      <point x="187.0" y="0.0" type="line" smooth="yes"/>
      <point x="142.0" y="0.0"/>
      <point x="142.0" y="45.0" type="qcurve" smooth="yes"/>
      <point x="142.0" y="1005.0" type="line" smooth="yes"/>
      <point x="142.0" y="1050.0"/>
      <point x="187.0" y="1050.0" type="qcurve" smooth="yes"/>
      <point x="273.0" y="1050.0" type="line" smooth="yes"/>
      <point x="318.0" y="1050.0"/>
      <point x="318.0" y="1005.0" type="qcurve" smooth="yes"/>
      <point x="318.0" y="132.0" type="line"/>
      <point x="748.0" y="132.0" type="line"/>
      <point x="748.0" y="1005.0" type="line" smooth="yes"/>
      <point x="748.0" y="1050.0"/>
      <point x="793.0" y="1050.0" type="qcurve" smooth="yes"/>
      <point x="879.0" y="1050.0" type="line" smooth="yes"/>
      <point x="924.0" y="1050.0"/>
      <point x="924.0" y="1005.0" type="qcurve" smooth="yes"/>
      <point x="924.0" y="132.0" type="line"/>
      <point x="1354.0" y="132.0" type="line"/>
      <point x="1354.0" y="1005.0" type="line" smooth="yes"/>
      <point x="1354.0" y="1050.0"/>
      <point x="1399.0" y="1050.0" type="qcurve" smooth="yes"/>
      <point x="1485.0" y="1050.0" type="line" smooth="yes"/>
      <point x="1530.0" y="1050.0"/>
      <point x="1530.0" y="1005.0" type="qcurve" smooth="yes"/>
      <point x="1530.0" y="132.0" type="line"/>
      <point x="1651.0" y="132.0" type="line" smooth="yes"/>
      <point x="1696.0" y="132.0"/>
      <point x="1696.0" y="87.0" type="qcurve" smooth="yes"/>
      <point x="1696.0" y="-265.0" type="line" smooth="yes"/>
      <point x="1696.0" y="-310.0"/>
      <point x="1656.0" y="-310.0" type="qcurve" smooth="yes"/>
      <point x="1582.0" y="-310.0" type="line" smooth="yes"/>
      <point x="1542.0" y="-310.0"/>
      <point x="1542.0" y="-265.0" type="qcurve" smooth="yes"/>
      <point x="1542.0" y="0.0" type="line"/>
    </contour>
  </outline>
</glyph>
<glyph name="afii10107" format="2">
  <advance width="1677"/>
  <unicode hex="045A"/>
  <outline>
    <contour>
      <point x="187.0" y="0.0" type="line" smooth="yes"/>
      <point x="142.0" y="0.0"/>
      <point x="142.0" y="45.0" type="qcurve" smooth="yes"/>
      <point x="142.0" y="1005.0" type="line" smooth="yes"/>
      <point x="142.0" y="1050.0"/>
      <point x="187.0" y="1050.0" type="qcurve" smooth="yes"/>
      <point x="273.0" y="1050.0" type="line" smooth="yes"/>
      <point x="318.0" y="1050.0"/>
      <point x="318.0" y="1005.0" type="qcurve" smooth="yes"/>
      <point x="318.0" y="614.0" type="line"/>
      <point x="802.0" y="614.0" type="line"/>
      <point x="802.0" y="1005.0" type="line" smooth="yes"/>
      <point x="802.0" y="1050.0"/>
      <point x="847.0" y="1050.0" type="qcurve" smooth="yes"/>
      <point x="933.0" y="1050.0" type="line" smooth="yes"/>
      <point x="978.0" y="1050.0"/>
      <point x="978.0" y="1005.0" type="qcurve" smooth="yes"/>
      <point x="978.0" y="618.0" type="line"/>
      <point x="1200.0" y="618.0" type="line" smooth="yes"/>
      <point x="1430.0" y="618.0"/>
      <point x="1602.0" y="449.0"/>
      <point x="1602.0" y="309.0" type="qcurve" smooth="yes"/>
      <point x="1602.0" y="169.0"/>
      <point x="1430.0" y="0.0"/>
      <point x="1200.0" y="0.0" type="qcurve" smooth="yes"/>
      <point x="847.0" y="0.0" type="line" smooth="yes"/>
      <point x="802.0" y="0.0"/>
      <point x="802.0" y="45.0" type="qcurve" smooth="yes"/>
      <point x="802.0" y="482.0" type="line"/>
      <point x="318.0" y="482.0" type="line"/>
      <point x="318.0" y="45.0" type="line" smooth="yes"/>
      <point x="318.0" y="0.0"/>
      <point x="273.0" y="0.0" type="qcurve" smooth="yes"/>
    </contour>
    <contour>
      <point x="978.0" y="131.0" type="line"/>
      <point x="1154.0" y="131.0" type="line" smooth="yes"/>
      <point x="1294.0" y="131.0"/>
      <point x="1416.0" y="199.0"/>
      <point x="1416.0" y="309.0" type="qcurve" smooth="yes"/>
      <point x="1416.0" y="419.0"/>
      <point x="1294.0" y="488.0"/>
      <point x="1154.0" y="488.0" type="qcurve" smooth="yes"/>
      <point x="978.0" y="488.0" type="line"/>
    </contour>
  </outline>
</glyph>
<glyph name="uni0495" format="2">
  <advance width="1120"/>
  <unicode hex="0495"/>
  <outline>
    <contour>
      <point x="187.0" y="0.0" type="line" smooth="yes"/>
      <point x="142.0" y="0.0"/>
      <point x="142.0" y="45.0" type="qcurve" smooth="yes"/>
      <point x="142.0" y="1005.0" type="line" smooth="yes"/>
      <point x="142.0" y="1050.0"/>
      <point x="187.0" y="1050.0" type="qcurve" smooth="yes"/>
      <point x="791.0" y="1050.0" type="line" smooth="yes"/>
      <point x="836.0" y="1050.0"/>
      <point x="836.0" y="1015.0" type="qcurve" smooth="yes"/>
      <point x="836.0" y="953.0" type="line" smooth="yes"/>
      <point x="836.0" y="918.0"/>
      <point x="791.0" y="918.0" type="qcurve" smooth="yes"/>
      <point x="318.0" y="918.0" type="line"/>
      <point x="318.0" y="628.0" type="line" smooth="yes"/>
      <point x="318.0" y="598.0"/>
      <point x="316.0" y="568.0" type="qcurve"/>
      <point x="320.0" y="568.0" type="line"/>
      <point x="372.0" y="602.0"/>
      <point x="501.0" y="640.0"/>
      <point x="586.0" y="640.0" type="qcurve" smooth="yes"/>
      <point x="798.0" y="640.0"/>
      <point x="1031.0" y="357.0"/>
      <point x="1031.0" y="127.0" type="qcurve" smooth="yes"/>
      <point x="1031.0" y="-126.0"/>
      <point x="798.0" y="-417.0"/>
      <point x="534.0" y="-417.0" type="qcurve" smooth="yes"/>
      <point x="427.0" y="-417.0"/>
      <point x="355.0" y="-387.0" type="qcurve" smooth="yes"/>
      <point x="317.0" y="-371.0"/>
      <point x="329.0" y="-338.0" type="qcurve" smooth="yes"/>
      <point x="352.0" y="-276.0" type="line" smooth="yes"/>
      <point x="364.0" y="-243.0"/>
      <point x="411.0" y="-262.0" type="qcurve" smooth="yes"/>
      <point x="474.0" y="-287.0"/>
      <point x="544.0" y="-287.0" type="qcurve" smooth="yes"/>
      <point x="693.0" y="-287.0"/>
      <point x="845.0" y="-90.0"/>
      <point x="845.0" y="112.0" type="qcurve" smooth="yes"/>
      <point x="845.0" y="312.0"/>
      <point x="696.0" y="510.0"/>
      <point x="567.0" y="510.0" type="qcurve" smooth="yes"/>
      <point x="489.0" y="510.0"/>
      <point x="360.0" y="461.0"/>
      <point x="318.0" y="420.0" type="qcurve"/>
      <point x="318.0" y="45.0" type="line" smooth="yes"/>
      <point x="318.0" y="0.0"/>
      <point x="273.0" y="0.0" type="qcurve" smooth="yes"/>
    </contour>
  </outline>
</glyph>
<glyph name="uni04A2" format="2">
  <advance width="1498"/>
  <unicode hex="04A2"/>
  <outline>
    <contour>
      <point x="220.0" y="0.0" type="line" smooth="yes"/>
      <point x="170.0" y="0.0"/>
      <point x="170.0" y="55.0" type="qcurve" smooth="yes"/>
      <point x="170.0" y="1379.0" type="line" smooth="yes"/>
      <point x="170.0" y="1434.0"/>
      <point x="220.0" y="1434.0" type="qcurve" smooth="yes"/>
      <point x="312.0" y="1434.0" type="line" smooth="yes"/>
      <point x="362.0" y="1434.0"/>
      <point x="362.0" y="1379.0" type="qcurve" smooth="yes"/>
      <point x="362.0" y="828.0" type="line"/>
      <point x="1060.0" y="828.0" type="line"/>
      <point x="1060.0" y="1379.0" type="line" smooth="yes"/>
      <point x="1060.0" y="1434.0"/>
      <point x="1110.0" y="1434.0" type="qcurve" smooth="yes"/>
      <point x="1202.0" y="1434.0" type="line" smooth="yes"/>
      <point x="1252.0" y="1434.0"/>
      <point x="1252.0" y="1379.0" type="qcurve" smooth="yes"/>
      <point x="1252.0" y="164.0" type="line"/>
      <point x="1384.0" y="164.0" type="line" smooth="yes"/>
      <point x="1434.0" y="164.0"/>
      <point x="1434.0" y="109.0" type="qcurve" smooth="yes"/>
      <point x="1434.0" y="-320.0" type="line" smooth="yes"/>
      <point x="1434.0" y="-370.0"/>
      <point x="1394.0" y="-370.0" type="qcurve" smooth="yes"/>
      <point x="1308.0" y="-370.0" type="line" smooth="yes"/>
      <point x="1268.0" y="-370.0"/>
      <point x="1268.0" y="-320.0" type="qcurve" smooth="yes"/>
      <point x="1268.0" y="0.0" type="line"/>
      <point x="1110.0" y="0.0" type="line" smooth="yes"/>
      <point x="1060.0" y="0.0"/>
      <point x="1060.0" y="55.0" type="qcurve" smooth="yes"/>
      <point x="1060.0" y="664.0" type="line"/>
      <point x="362.0" y="664.0" type="line"/>
      <point x="362.0" y="55.0" type="line" smooth="yes"/>
      <point x="362.0" y="0.0"/>
      <point x="312.0" y="0.0" type="qcurve" smooth="yes"/>
    </contour>
  </outline>
</glyph>
<glyph name="uni04A3" format="2">
  <advance width="1200"/>
  <unicode hex="04A3"/>
  <outline>
    <contour>
      <point x="187.0" y="0.0" type="line" smooth="yes"/>
      <point x="142.0" y="0.0"/>
      <point x="142.0" y="45.0" type="qcurve" smooth="yes"/>
      <point x="142.0" y="1005.0" type="line" smooth="yes"/>
      <point x="142.0" y="1050.0"/>
      <point x="187.0" y="1050.0" type="qcurve" smooth="yes"/>
      <point x="273.0" y="1050.0" type="line" smooth="yes"/>
      <point x="318.0" y="1050.0"/>
      <point x="318.0" y="1005.0" type="qcurve" smooth="yes"/>
      <point x="318.0" y="614.0" type="line"/>
      <point x="802.0" y="614.0" type="line"/>
      <point x="802.0" y="1005.0" type="line" smooth="yes"/>
      <point x="802.0" y="1050.0"/>
      <point x="847.0" y="1050.0" type="qcurve" smooth="yes"/>
      <point x="933.0" y="1050.0" type="line" smooth="yes"/>
      <point x="978.0" y="1050.0"/>
      <point x="978.0" y="1005.0" type="qcurve" smooth="yes"/>
      <point x="978.0" y="132.0" type="line"/>
      <point x="1099.0" y="132.0" type="line" smooth="yes"/>
      <point x="1144.0" y="132.0"/>
      <point x="1144.0" y="87.0" type="qcurve" smooth="yes"/>
      <point x="1144.0" y="-265.0" type="line" smooth="yes"/>
      <point x="1144.0" y="-310.0"/>
      <point x="1104.0" y="-310.0" type="qcurve" smooth="yes"/>
      <point x="1030.0" y="-310.0" type="line" smooth="yes"/>
      <point x="990.0" y="-310.0"/>
      <point x="990.0" y="-265.0" type="qcurve" smooth="yes"/>
      <point x="990.0" y="0.0" type="line"/>
      <point x="847.0" y="0.0" type="line" smooth="yes"/>
      <point x="802.0" y="0.0"/>
      <point x="802.0" y="45.0" type="qcurve" smooth="yes"/>
      <point x="802.0" y="482.0" type="line"/>
      <point x="318.0" y="482.0" type="line"/>
      <point x="318.0" y="45.0" type="line" smooth="yes"/>
      <point x="318.0" y="0.0"/>
      <point x="273.0" y="0.0" type="qcurve" smooth="yes"/>
    </contour>
  </outline>
</glyph>
<glyph name="uni04A5" format="2">
  <advance width="1498"/>
  <unicode hex="04A5"/>
  <outline>
    <contour>
      <point x="187.0" y="0.0" type="line" smooth="yes"/>
      <point x="142.0" y="0.0"/>
      <point x="142.0" y="45.0" type="qcurve" smooth="yes"/>
      <point x="142.0" y="1005.0" type="line" smooth="yes"/>
      <point x="142.0" y="1050.0"/>
      <point x="187.0" y="1050.0" type="qcurve" smooth="yes"/>
      <point x="273.0" y="1050.0" type="line" smooth="yes"/>
      <point x="318.0" y="1050.0"/>
      <point x="318.0" y="1005.0" type="qcurve" smooth="yes"/>
      <point x="318.0" y="614.0" type="line"/>
      <point x="802.0" y="614.0" type="line"/>
      <point x="802.0" y="1005.0" type="line" smooth="yes"/>
      <point x="802.0" y="1050.0"/>
      <point x="847.0" y="1050.0" type="qcurve" smooth="yes"/>
      <point x="1421.0" y="1050.0" type="line" smooth="yes"/>
      <point x="1466.0" y="1050.0"/>
      <point x="1466.0" y="1015.0" type="qcurve" smooth="yes"/>
      <point x="1466.0" y="953.0" type="line" smooth="yes"/>
      <point x="1466.0" y="918.0"/>
      <point x="1421.0" y="918.0" type="qcurve" smooth="yes"/>
      <point x="978.0" y="918.0" type="line"/>
      <point x="978.0" y="45.0" type="line" smooth="yes"/>
      <point x="978.0" y="0.0"/>
      <point x="933.0" y="0.0" type="qcurve" smooth="yes"/>
      <point x="847.0" y="0.0" type="line" smooth="yes"/>
      <point x="802.0" y="0.0"/>
      <point x="802.0" y="45.0" type="qcurve" smooth="yes"/>
      <point x="802.0" y="482.0" type="line"/>
      <point x="318.0" y="482.0" type="line"/>
      <point x="318.0" y="45.0" type="line" smooth="yes"/>
      <point x="318.0" y="0.0"/>
      <point x="273.0" y="0.0" type="qcurve" smooth="yes"/>
    </contour>
  </outline>
</glyph>
<glyph name="uni04B1" format="2">
  <advance width="986"/>
  <unicode hex="04B1"/>
  <outline>
    <contour>
      <point x="45.0" y="1001.0" type="line" smooth="yes"/>
      <point x="28.0" y="1050.0"/>
      <point x="72.0" y="1050.0" type="qcurve" smooth="yes"/>
      <point x="181.0" y="1050.0" type="line" smooth="yes"/>
      <point x="213.0" y="1050.0"/>
      <point x="226.0" y="1011.0" type="qcurve" smooth="yes"/>
      <point x="438.0" y="351.0" type="line" smooth="yes"/>
      <point x="465.0" y="266.0"/>
      <point x="483.0" y="209.0"/>
      <point x="491.0" y="164.0" type="qcurve"/>
      <point x="495.0" y="164.0" type="line"/>
      <point x="503.0" y="209.0"/>
      <point x="521.0" y="266.0"/>
      <point x="548.0" y="351.0" type="qcurve" smooth="yes"/>
      <point x="760.0" y="1011.0" type="line" smooth="yes"/>
      <point x="773.0" y="1050.0"/>
      <point x="805.0" y="1050.0" type="qcurve" smooth="yes"/>
      <point x="914.0" y="1050.0" type="line" smooth="yes"/>
      <point x="958.0" y="1050.0"/>
      <point x="941.0" y="1001.0" type="qcurve" smooth="yes"/>
      <point x="605.0" y="40.0" type="line" smooth="yes"/>
      <point x="598.0" y="20.0"/>
      <point x="581.0" y="0.0" type="qcurve"/>
      <point x="806.0" y="0.0" type="line" smooth="yes"/>
      <point x="851.0" y="0.0"/>
      <point x="851.0" y="-35.0" type="qcurve" smooth="yes"/>
      <point x="851.0" y="-97.0" type="line" smooth="yes"/>
      <point x="851.0" y="-132.0"/>
      <point x="806.0" y="-132.0" type="qcurve" smooth="yes"/>
      <point x="581.0" y="-132.0" type="line"/>
      <point x="581.0" y="-355.0" type="line" smooth="yes"/>
      <point x="581.0" y="-400.0"/>
      <point x="536.0" y="-400.0" type="qcurve" smooth="yes"/>
      <point x="450.0" y="-400.0" type="line" smooth="yes"/>
      <point x="405.0" y="-400.0"/>
      <point x="405.0" y="-355.0" type="qcurve" smooth="yes"/>
      <point x="405.0" y="-132.0" type="line"/>
      <point x="180.0" y="-132.0" type="line" smooth="yes"/>
      <point x="135.0" y="-132.0"/>
      <point x="135.0" y="-97.0" type="qcurve" smooth="yes"/>
      <point x="135.0" y="-35.0" type="line" smooth="yes"/>
      <point x="135.0" y="0.0"/>
      <point x="180.0" y="0.0" type="qcurve" smooth="yes"/>
      <point x="405.0" y="0.0" type="line"/>
      <point x="387.0" y="21.0"/>
      <point x="380.0" y="41.0" type="qcurve" smooth="yes"/>
    </contour>
  </outline>
</glyph>
<glyph name="uni04BA" format="2">
  <advance width="1290"/>
  <unicode hex="04BA"/>
  <outline>
    <contour>
      <point x="220.0" y="0.0" type="line" smooth="yes"/>
      <point x="170.0" y="0.0"/>
      <point x="170.0" y="55.0" type="qcurve" smooth="yes"/>
      <point x="170.0" y="1379.0" type="line" smooth="yes"/>
      <point x="170.0" y="1434.0"/>
      <point x="220.0" y="1434.0" type="qcurve" smooth="yes"/>
      <point x="312.0" y="1434.0" type="line" smooth="yes"/>
      <point x="362.0" y="1434.0"/>
      <point x="362.0" y="1379.0" type="qcurve" smooth="yes"/>
      <point x="362.0" y="861.0" type="line" smooth="yes"/>
      <point x="362.0" y="821.0"/>
      <point x="360.0" y="781.0" type="qcurve"/>
      <point x="364.0" y="781.0" type="line"/>
      <point x="458.0" y="822.0"/>
      <point x="650.0" y="868.0"/>
      <point x="795.0" y="868.0" type="qcurve" smooth="yes"/>
      <point x="986.0" y="868.0"/>
      <point x="1170.0" y="663.0"/>
      <point x="1170.0" y="522.0" type="qcurve" smooth="yes"/>
      <point x="1170.0" y="55.0" type="line" smooth="yes"/>
      <point x="1170.0" y="0.0"/>
      <point x="1120.0" y="0.0" type="qcurve" smooth="yes"/>
      <point x="1028.0" y="0.0" type="line" smooth="yes"/>
      <point x="978.0" y="0.0"/>
      <point x="978.0" y="55.0" type="qcurve" smooth="yes"/>
      <point x="978.0" y="474.0" type="line" smooth="yes"/>
      <point x="978.0" y="614.0"/>
      <point x="868.0" y="714.0"/>
      <point x="770.0" y="714.0" type="qcurve" smooth="yes"/>
      <point x="690.0" y="714.0"/>
      <point x="474.0" y="694.0"/>
      <point x="362.0" y="647.0" type="qcurve"/>
      <point x="362.0" y="55.0" type="line" smooth="yes"/>
      <point x="362.0" y="0.0"/>
      <point x="312.0" y="0.0" type="qcurve" smooth="yes"/>
    </contour>
  </outline>
</glyph>
<glyph name="uni04C7" format="2">
  <advance width="1422"/>
  <unicode hex="04C7"/>
  <outline>
    <contour>
      <point x="220.0" y="0.0" type="line" smooth="yes"/>
      <point x="170.0" y="0.0"/>
      <point x="170.0" y="55.0" type="qcurve" smooth="yes"/>
      <point x="170.0" y="1379.0" type="line" smooth="yes"/>
      <point x="170.0" y="1434.0"/>
      <point x="220.0" y="1434.0" type="qcurve" smooth="yes"/>
      <point x="312.0" y="1434.0" type="line" smooth="yes"/>
      <point x="362.0" y="1434.0"/>
      <point x="362.0" y="1379.0" type="qcurve" smooth="yes"/>
      <point x="362.0" y="828.0" type="line"/>
      <point x="1060.0" y="828.0" type="line"/>
      <point x="1060.0" y="1379.0" type="line" smooth="yes"/>
      <point x="1060.0" y="1434.0"/>
      <point x="1110.0" y="1434.0" type="qcurve" smooth="yes"/>
      <point x="1202.0" y="1434.0" type="line" smooth="yes"/>
      <point x="1252.0" y="1434.0"/>
      <point x="1252.0" y="1379.0" type="qcurve" smooth="yes"/>
      <point x="1252.0" y="-9.0" type="line" smooth="yes"/>
      <point x="1252.0" y="-236.0"/>
      <point x="1080.0" y="-417.0"/>
      <point x="912.0" y="-417.0" type="qcurve" smooth="yes"/>
      <point x="819.0" y="-417.0"/>
      <point x="729.0" y="-382.0" type="qcurve" smooth="yes"/>
      <point x="688.0" y="-366.0"/>
      <point x="701.0" y="-324.0" type="qcurve" smooth="yes"/>
      <point x="722.0" y="-253.0" type="line" smooth="yes"/>
      <point x="736.0" y="-207.0"/>
      <point x="790.0" y="-232.0" type="qcurve" smooth="yes"/>
      <point x="852.0" y="-261.0"/>
      <point x="906.0" y="-261.0" type="qcurve" smooth="yes"/>
      <point x="984.0" y="-261.0"/>
      <point x="1060.0" y="-158.0"/>
      <point x="1060.0" y="38.0" type="qcurve" smooth="yes"/>
      <point x="1060.0" y="664.0" type="line"/>
      <point x="362.0" y="664.0" type="line"/>
      <point x="362.0" y="55.0" type="line" smooth="yes"/>
      <point x="362.0" y="0.0"/>
      <point x="312.0" y="0.0" type="qcurve" smooth="yes"/>
    </contour>
  </outline>
</glyph>
<glyph name="uni04C8" format="2">
  <advance width="1120"/>
  <unicode hex="04C8"/>
  <outline>
    <contour>
      <point x="187.0" y="0.0" type="line" smooth="yes"/>
      <point x="142.0" y="0.0"/>
      <point x="142.0" y="45.0" type="qcurve" smooth="yes"/>
      <point x="142.0" y="1005.0" type="line" smooth="yes"/>
      <point x="142.0" y="1050.0"/>
      <point x="187.0" y="1050.0" type="qcurve" smooth="yes"/>
      <point x="273.0" y="1050.0" type="line" smooth="yes"/>
      <point x="318.0" y="1050.0"/>
      <point x="318.0" y="1005.0" type="qcurve" smooth="yes"/>
      <point x="318.0" y="614.0" type="line"/>
      <point x="802.0" y="614.0" type="line"/>
      <point x="802.0" y="1005.0" type="line" smooth="yes"/>
      <point x="802.0" y="1050.0"/>
      <point x="847.0" y="1050.0" type="qcurve" smooth="yes"/>
      <point x="933.0" y="1050.0" type="line" smooth="yes"/>
      <point x="978.0" y="1050.0"/>
      <point x="978.0" y="1005.0" type="qcurve" smooth="yes"/>
      <point x="978.0" y="-93.0" type="line" smooth="yes"/>
      <point x="978.0" y="-287.0"/>
      <point x="831.0" y="-417.0"/>
      <point x="722.0" y="-417.0" type="qcurve" smooth="yes"/>
      <point x="616.0" y="-417.0"/>
      <point x="570.0" y="-397.0" type="qcurve" smooth="yes"/>
      <point x="548.0" y="-387.0"/>
      <point x="552.0" y="-365.0" type="qcurve" smooth="yes"/>
      <point x="569.0" y="-284.0" type="line" smooth="yes"/>
      <point x="574.0" y="-260.0"/>
      <point x="594.0" y="-269.0" type="qcurve" smooth="yes"/>
      <point x="633.0" y="-287.0"/>
      <point x="690.0" y="-287.0" type="qcurve" smooth="yes"/>
      <point x="749.0" y="-287.0"/>
      <point x="802.0" y="-171.0"/>
      <point x="802.0" y="6.0" type="qcurve" smooth="yes"/>
      <point x="802.0" y="482.0" type="line"/>
      <point x="318.0" y="482.0" type="line"/>
      <point x="318.0" y="45.0" type="line" smooth="yes"/>
      <point x="318.0" y="0.0"/>
      <point x="273.0" y="0.0" type="qcurve" smooth="yes"/>
    </contour>
  </outline>
</glyph>
<glyph name="uni04CF" format="2">
  <advance width="460"/>
  <unicode hex="04CF"/>
  <outline>
    <contour>
      <point x="187.0" y="0.0" type="line" smooth="yes"/>
      <point x="142.0" y="0.0"/>
      <point x="142.0" y="45.0" type="qcurve" smooth="yes"/>
      <point x="142.0" y="1431.0" type="line" smooth="yes"/>
      <point x="142.0" y="1476.0"/>
      <point x="187.0" y="1476.0" type="qcurve" smooth="yes"/>
      <point x="273.0" y="1476.0" type="line" smooth="yes"/>
      <point x="318.0" y="1476.0"/>
      <point x="318.0" y="1431.0" type="qcurve" smooth="yes"/>
      <point x="318.0" y="45.0" type="line" smooth="yes"/>
      <point x="318.0" y="0.0"/>
      <point x="273.0" y="0.0" type="qcurve" smooth="yes"/>
    </contour>
  </outline>
</glyph>
<glyph name="uni04D8" format="2">
  <advance width="1474"/>
  <unicode hex="04D8"/>
  <outline>
    <contour>
      <point x="92.0" y="755.0" type="qcurve" smooth="yes"/>
      <point x="92.0" y="820.0"/>
      <point x="146.0" y="820.0" type="qcurve" smooth="yes"/>
      <point x="1172.0" y="820.0" type="line"/>
      <point x="1165.0" y="1017.0"/>
      <point x="947.0" y="1308.0"/>
      <point x="714.0" y="1308.0" type="qcurve" smooth="yes"/>
      <point x="580.0" y="1308.0"/>
      <point x="394.0" y="1236.0"/>
      <point x="328.0" y="1181.0" type="qcurve" smooth="yes"/>
      <point x="280.0" y="1141.0"/>
      <point x="250.0" y="1170.0" type="qcurve" smooth="yes"/>
      <point x="190.0" y="1230.0" type="line" smooth="yes"/>
      <point x="161.0" y="1259.0"/>
      <point x="212.0" y="1306.0" type="qcurve" smooth="yes"/>
      <point x="286.0" y="1374.0"/>
      <point x="538.0" y="1464.0"/>
      <point x="707.0" y="1464.0" type="qcurve" smooth="yes"/>
      <point x="1037.0" y="1464.0"/>
      <point x="1382.0" y="1067.0"/>
      <point x="1382.0" y="717.0" type="qcurve" smooth="yes"/>
      <point x="1382.0" y="367.0"/>
      <point x="1033.0" y="-30.0"/>
      <point x="725.0" y="-30.0" type="qcurve" smooth="yes"/>
      <point x="403.0" y="-30.0"/>
      <point x="92.0" y="366.0"/>
    </contour>
    <contour>
      <point x="298.0" y="656.0" type="line"/>
      <point x="298.0" y="432.0"/>
      <point x="496.0" y="126.0"/>
      <point x="725.0" y="126.0" type="qcurve" smooth="yes"/>
      <point x="937.0" y="126.0"/>
      <point x="1168.0" y="420.0"/>
      <point x="1176.0" y="656.0" type="qcurve"/>
    </contour>
  </outline>
</glyph>
<glyph name="uni0513" format="2">
  <advance width="1136"/>
  <unicode hex="0513"/>
  <outline>
    <contour>
      <point x="57.0" y="-8.0" type="qcurve" smooth="yes"/>
      <point x="35.0" y="1.0"/>
      <point x="40.0" y="22.0" type="qcurve" smooth="yes"/>
      <point x="58.0" y="105.0" type="line" smooth="yes"/>
      <point x="62.0" y="124.0"/>
      <point x="84.0" y="119.0" type="qcurve" smooth="yes"/>
      <point x="107.0" y="113.0"/>
      <point x="124.0" y="113.0" type="qcurve" smooth="yes"/>
      <point x="214.0" y="113.0"/>
      <point x="321.0" y="388.0"/>
      <point x="321.0" y="762.0" type="qcurve" smooth="yes"/>
      <point x="321.0" y="1005.0" type="line" smooth="yes"/>
      <point x="321.0" y="1050.0"/>
      <point x="384.0" y="1050.0" type="qcurve" smooth="yes"/>
      <point x="949.0" y="1050.0" type="line" smooth="yes"/>
      <point x="994.0" y="1050.0"/>
      <point x="994.0" y="1005.0" type="qcurve" smooth="yes"/>
      <point x="994.0" y="-93.0" type="line" smooth="yes"/>
      <point x="994.0" y="-287.0"/>
      <point x="847.0" y="-417.0"/>
      <point x="738.0" y="-417.0" type="qcurve" smooth="yes"/>
      <point x="632.0" y="-417.0"/>
      <point x="586.0" y="-397.0" type="qcurve" smooth="yes"/>
      <point x="563.0" y="-387.0"/>
      <point x="568.0" y="-365.0" type="qcurve" smooth="yes"/>
      <point x="585.0" y="-284.0" type="line" smooth="yes"/>
      <point x="590.0" y="-260.0"/>
      <point x="610.0" y="-269.0" type="qcurve" smooth="yes"/>
      <point x="649.0" y="-287.0"/>
      <point x="706.0" y="-287.0" type="qcurve" smooth="yes"/>
      <point x="765.0" y="-287.0"/>
      <point x="818.0" y="-171.0"/>
      <point x="818.0" y="6.0" type="qcurve" smooth="yes"/>
      <point x="818.0" y="918.0" type="line"/>
      <point x="475.0" y="918.0" type="line"/>
      <point x="475.0" y="711.0" type="line" smooth="yes"/>
      <point x="475.0" y="341.0"/>
      <point x="314.0" y="-17.0"/>
      <point x="146.0" y="-17.0" type="qcurve" smooth="yes"/>
      <point x="78.0" y="-17.0"/>
    </contour>
  </outline>
</glyph>
<glyph name="bullet" format="2">
  <advance width="1024"/>
  <unicode hex="2022"/>
  <outline>
    <contour>
      <point x="302.0" y="694.0" type="qcurve" smooth="yes"/>
      <point x="302.0" y="781.0"/>
      <point x="425.0" y="904.0"/>
      <point x="512.0" y="904.0" type="qcurve" smooth="yes"/>
      <point x="599.0" y="904.0"/>
      <point x="722.0" y="781.0"/>
      <point x="722.0" y="694.0" type="qcurve" smooth="yes"/>
      <point x="722.0" y="607.0"/>
      <point x="599.0" y="484.0"/>
      <point x="512.0" y="484.0" type="qcurve" smooth="yes"/>
      <point x="425.0" y="484.0"/>
      <point x="302.0" y="607.0"/>
    </contour>
  </outline>
</glyph>
<glyph name="minute" format="2">
  <advance width="460"/>
  <unicode hex="2032"/>
  <outline>
    <contour>
      <point x="152.0" y="894.0" type="line" smooth="yes"/>
      <point x="118.0" y="894.0"/>
      <point x="128.0" y="939.0" type="qcurve" smooth="yes"/>
      <point x="253.0" y="1495.0" type="line" smooth="yes"/>
      <point x="265.0" y="1550.0"/>
      <point x="302.0" y="1550.0" type="qcurve" smooth="yes"/>
      <point x="407.0" y="1550.0" type="line" smooth="yes"/>
      <point x="448.0" y="1550.0"/>
      <point x="430.0" y="1495.0" type="qcurve" smooth="yes"/>
      <point x="244.0" y="939.0" type="line" smooth="yes"/>
      <point x="229.0" y="894.0"/>
      <point x="198.0" y="894.0" type="qcurve" smooth="yes"/>
    </contour>
  </outline>
</glyph>
<glyph name="guilsinglleft" format="2">
  <advance width="682"/>
  <unicode hex="2039"/>
  <outline>
    <contour>
      <point x="121.0" y="517.0" type="line" smooth="yes"/>
      <point x="102.0" y="540.0"/>
      <point x="121.0" y="563.0" type="qcurve" smooth="yes"/>
      <point x="453.0" y="953.0" type="line" smooth="yes"/>
      <point x="475.0" y="979.0"/>
      <point x="496.0" y="961.0" type="qcurve" smooth="yes"/>
      <point x="544.0" y="918.0" type="line" smooth="yes"/>
      <point x="563.0" y="901.0"/>
      <point x="541.0" y="874.0" type="qcurve" smooth="yes"/>
      <point x="259.0" y="540.0" type="line"/>
      <point x="541.0" y="206.0" type="line" smooth="yes"/>
      <point x="563.0" y="179.0"/>
      <point x="544.0" y="162.0" type="qcurve" smooth="yes"/>
      <point x="496.0" y="119.0" type="line" smooth="yes"/>
      <point x="475.0" y="101.0"/>
      <point x="453.0" y="127.0" type="qcurve" smooth="yes"/>
    </contour>
  </outline>
</glyph>
<glyph name="uni2074" format="2">
  <advance width="586"/>
  <unicode hex="2074"/>
  <outline>
    <contour>
      <point x="56.0" y="885.0" type="line" smooth="yes"/>
      <point x="32.0" y="885.0"/>
      <point x="32.0" y="908.0" type="qcurve" smooth="yes"/>
      <point x="32.0" y="976.0" type="line" smooth="yes"/>
      <point x="32.0" y="992.0"/>
      <point x="45.0" y="1012.0" type="qcurve" smooth="yes"/>
      <point x="326.0" y="1441.0" type="line" smooth="yes"/>
      <point x="338.0" y="1460.0"/>
      <point x="355.0" y="1460.0" type="qcurve" smooth="yes"/>
      <point x="436.0" y="1460.0" type="line" smooth="yes"/>
      <point x="460.0" y="1460.0"/>
      <point x="460.0" y="1437.0" type="qcurve" smooth="yes"/>
      <point x="460.0" y="992.0" type="line"/>
      <point x="530.0" y="992.0" type="line" smooth="yes"/>
      <point x="553.0" y="992.0"/>
      <point x="553.0" y="969.0" type="qcurve" smooth="yes"/>
      <point x="553.0" y="908.0" type="line" smooth="yes"/>
      <point x="553.0" y="885.0"/>
      <point x="531.0" y="885.0" type="qcurve" smooth="yes"/>
      <point x="460.0" y="885.0" type="line"/>
      <point x="460.0" y="735.0" type="line" smooth="yes"/>
      <point x="460.0" y="712.0"/>
      <point x="437.0" y="712.0" type="qcurve" smooth="yes"/>
      <point x="363.0" y="712.0" type="line" smooth="yes"/>
      <point x="340.0" y="712.0"/>
      <point x="340.0" y="735.0" type="qcurve" smooth="yes"/>
      <point x="340.0" y="885.0" type="line"/>
    </contour>
    <contour>
      <point x="151.0" y="992.0" type="line"/>
      <point x="340.0" y="992.0" type="line"/>
      <point x="340.0" y="1264.0" type="line" smooth="yes"/>
      <point x="340.0" y="1280.0"/>
      <point x="343.0" y="1295.0" type="qcurve"/>
      <point x="340.0" y="1295.0" type="line"/>
    </contour>
  </outline>
</glyph>
<glyph name="uni2076" format="2">
  <advance width="606"/>
  <unicode hex="2076"/>
  <outline>
    <contour>
      <point x="50.0" y="1061.0" type="qcurve" smooth="yes"/>
      <point x="50.0" y="1282.0"/>
      <point x="220.0" y="1466.0"/>
      <point x="338.0" y="1466.0" type="qcurve" smooth="yes"/>
      <point x="407.0" y="1466.0"/>
      <point x="480.0" y="1440.0"/>
      <point x="516.0" y="1419.0" type="qcurve" smooth="yes"/>
      <point x="539.0" y="1406.0"/>
      <point x="527.0" y="1387.0" type="qcurve" smooth="yes"/>
      <point x="495.0" y="1338.0" type="line" smooth="yes"/>
      <point x="484.0" y="1321.0"/>
      <point x="458.0" y="1336.0" type="qcurve" smooth="yes"/>
      <point x="435.0" y="1349.0"/>
      <point x="373.0" y="1366.0"/>
      <point x="340.0" y="1366.0" type="qcurve" smooth="yes"/>
      <point x="266.0" y="1366.0"/>
      <point x="168.0" y="1246.0"/>
      <point x="168.0" y="1108.0" type="qcurve"/>
      <point x="169.0" y="1108.0" type="line"/>
      <point x="196.0" y="1147.0"/>
      <point x="282.0" y="1189.0"/>
      <point x="340.0" y="1189.0" type="qcurve" smooth="yes"/>
      <point x="434.0" y="1189.0"/>
      <point x="556.0" y="1060.0"/>
      <point x="556.0" y="957.0" type="qcurve" smooth="yes"/>
      <point x="556.0" y="841.0"/>
      <point x="410.0" y="696.0"/>
      <point x="299.0" y="696.0" type="qcurve" smooth="yes"/>
      <point x="174.0" y="696.0"/>
      <point x="50.0" y="892.0"/>
    </contour>
    <contour>
      <point x="180.0" y="951.0" type="qcurve" smooth="yes"/>
      <point x="180.0" y="882.0"/>
      <point x="251.0" y="796.0"/>
      <point x="304.0" y="796.0" type="qcurve" smooth="yes"/>
      <point x="362.0" y="796.0"/>
      <point x="432.0" y="878.0"/>
      <point x="432.0" y="945.0" type="qcurve" smooth="yes"/>
      <point x="432.0" y="1014.0"/>
      <point x="371.0" y="1089.0"/>
      <point x="318.0" y="1089.0" type="qcurve" smooth="yes"/>
      <point x="255.0" y="1089.0"/>
      <point x="180.0" y="1013.0"/>
    </contour>
  </outline>
</glyph>
<glyph name="uni207F" format="2">
  <advance width="793"/>
  <unicode hex="207F"/>
  <outline>
    <contour>
      <point x="140.0" y="799.0" type="line" smooth="yes"/>
      <point x="109.0" y="799.0"/>
      <point x="109.0" y="828.0" type="qcurve" smooth="yes"/>
      <point x="109.0" y="1452.0" type="line" smooth="yes"/>
      <point x="109.0" y="1482.0"/>
      <point x="140.0" y="1482.0" type="qcurve" smooth="yes"/>
      <point x="209.0" y="1482.0" type="line" smooth="yes"/>
      <point x="239.0" y="1482.0"/>
      <point x="239.0" y="1452.0" type="qcurve" smooth="yes"/>
      <point x="239.0" y="1400.0" type="line"/>
      <point x="242.0" y="1400.0" type="line"/>
      <point x="273.0" y="1437.0"/>
      <point x="372.0" y="1493.0"/>
      <point x="452.0" y="1493.0" type="qcurve" smooth="yes"/>
      <point x="576.0" y="1493.0"/>
      <point x="684.0" y="1354.0"/>
      <point x="684.0" y="1239.0" type="qcurve" smooth="yes"/>
      <point x="684.0" y="828.0" type="line" smooth="yes"/>
      <point x="684.0" y="799.0"/>
      <point x="653.0" y="799.0" type="qcurve" smooth="yes"/>
      <point x="596.0" y="799.0" type="line" smooth="yes"/>
      <point x="552.0" y="799.0"/>
      <point x="552.0" y="828.0" type="qcurve" smooth="yes"/>
      <point x="552.0" y="1195.0" type="line" smooth="yes"/>
      <point x="552.0" y="1315.0"/>
      <point x="468.0" y="1388.0"/>
      <point x="408.0" y="1388.0" type="qcurve" smooth="yes"/>
      <point x="332.0" y="1388.0"/>
      <point x="241.0" y="1290.0"/>
      <point x="241.0" y="1168.0" type="qcurve" smooth="yes"/>
      <point x="241.0" y="828.0" type="line" smooth="yes"/>
      <point x="241.0" y="799.0"/>
      <point x="210.0" y="799.0" type="qcurve" smooth="yes"/>
    </contour>
  </outline>
</glyph>
<glyph name="estimated" format="2">
  <advance width="1670"/>
  <unicode hex="212E"/>
  <outline>
    <contour>
      <point x="65.0" y="696.0" type="qcurve" smooth="yes"/>
      <point x="65.0" y="844.0"/>
      <point x="187.0" y="1113.0"/>
      <point x="393.0" y="1307.0"/>
      <point x="678.0" y="1422.0"/>
      <point x="835.0" y="1422.0" type="qcurve" smooth="yes"/>
      <point x="993.0" y="1422.0"/>
      <point x="1282.0" y="1302.0"/>
      <point x="1485.0" y="1107.0"/>
      <point x="1605.0" y="852.0"/>
      <point x="1605.0" y="720.0" type="qcurve" smooth="yes"/>
      <point x="1605.0" y="694.0"/>
      <point x="1592.0" y="685.0"/>
      <point x="1555.0" y="685.0" type="qcurve" smooth="yes"/>
      <point x="375.0" y="685.0" type="line"/>
      <point x="375.0" y="300.0" type="line" smooth="yes"/>
      <point x="375.0" y="270.0"/>
      <point x="385.0" y="248.0"/>
      <point x="402.0" y="231.0" type="qcurve" smooth="yes"/>
      <point x="489.0" y="144.0"/>
      <point x="711.0" y="48.0"/>
      <point x="835.0" y="48.0" type="qcurve" smooth="yes"/>
      <point x="976.0" y="48.0"/>
      <point x="1226.0" y="173.0"/>
      <point x="1312.0" y="280.0" type="qcurve" smooth="yes"/>
      <point x="1334.0" y="307.0"/>
      <point x="1347.0" y="316.0"/>
      <point x="1370.0" y="316.0" type="qcurve" smooth="yes"/>
      <point x="1457.0" y="316.0" type="line" smooth="yes"/>
      <point x="1469.0" y="316.0"/>
      <point x="1480.0" y="310.0"/>
      <point x="1477.0" y="297.0"/>
      <point x="1470.0" y="285.0"/>
      <point x="1462.0" y="275.0" type="qcurve" smooth="yes"/>
      <point x="1355.0" y="134.0"/>
      <point x="1025.0" y="-30.0"/>
      <point x="835.0" y="-30.0" type="qcurve" smooth="yes"/>
      <point x="678.0" y="-30.0"/>
      <point x="393.0" y="85.0"/>
      <point x="187.0" y="279.0"/>
      <point x="65.0" y="548.0"/>
    </contour>
    <contour>
      <point x="375.0" y="762.0" type="line"/>
      <point x="1305.0" y="762.0" type="line"/>
      <point x="1305.0" y="1080.0" type="line" smooth="yes"/>
      <point x="1305.0" y="1109.0"/>
      <point x="1296.0" y="1132.0"/>
      <point x="1280.0" y="1148.0" type="qcurve" smooth="yes"/>
      <point x="1194.0" y="1240.0"/>
      <point x="963.0" y="1344.0"/>
      <point x="835.0" y="1344.0" type="qcurve" smooth="yes"/>
      <point x="713.0" y="1344.0"/>
      <point x="492.0" y="1250.0"/>
      <point x="406.0" y="1165.0" type="qcurve" smooth="yes"/>
      <point x="388.0" y="1147.0"/>
      <point x="375.0" y="1121.0"/>
      <point x="375.0" y="1092.0" type="qcurve" smooth="yes"/>
    </contour>
  </outline>
</glyph>
<glyph name="minus" format="2">
  <advance width="1280"/>
  <unicode hex="2212"/>
  <outline>
    <contour>
      <point x="125.0" y="665.0" type="line" smooth="yes"/>
      <point x="80.0" y="665.0"/>
      <point x="80.0" y="700.0" type="qcurve" smooth="yes"/>
      <point x="80.0" y="750.0" type="line" smooth="yes"/>
      <point x="80.0" y="785.0"/>
      <point x="125.0" y="785.0" type="qcurve" smooth="yes"/>
      <point x="1155.0" y="785.0" type="line" smooth="yes"/>
      <point x="1200.0" y="785.0"/>
      <point x="1200.0" y="750.0" type="qcurve" smooth="yes"/>
      <point x="1200.0" y="700.0" type="line" smooth="yes"/>
      <point x="1200.0" y="665.0"/>
      <point x="1155.0" y="665.0" type="qcurve" smooth="yes"/>
    </contour>
  </outline>
</glyph>
<glyph name="radical" format="2">
  <advance width="1110"/>
  <unicode hex="221A"/>
  <outline>
    <contour>
      <point x="30.0" y="732.0" type="qcurve" smooth="yes"/>
      <point x="30.0" y="768.0" type="line" smooth="yes"/>
      <point x="30.0" y="803.0"/>
      <point x="75.0" y="803.0" type="qcurve" smooth="yes"/>
      <point x="197.0" y="803.0" type="line" smooth="yes"/>
      <point x="249.0" y="803.0"/>
      <point x="263.0" y="758.0" type="qcurve" smooth="yes"/>
      <point x="484.0" y="118.0" type="line" smooth="yes"/>
      <point x="513.0" y="36.0"/>
      <point x="523.0" y="-61.0" type="qcurve"/>
      <point x="529.0" y="-61.0" type="line"/>
      <point x="534.0" y="27.0"/>
      <point x="558.0" y="118.0" type="qcurve" smooth="yes"/>
      <point x="964.0" y="1702.0" type="line" smooth="yes"/>
      <point x="975.0" y="1743.0"/>
      <point x="1018.0" y="1743.0" type="qcurve" smooth="yes"/>
      <point x="1250.0" y="1743.0" type="line" smooth="yes"/>
      <point x="1295.0" y="1743.0"/>
      <point x="1295.0" y="1708.0" type="qcurve" smooth="yes"/>
      <point x="1295.0" y="1672.0" type="line" smooth="yes"/>
      <point x="1295.0" y="1637.0"/>
      <point x="1250.0" y="1637.0" type="qcurve" smooth="yes"/>
      <point x="1076.0" y="1637.0" type="line"/>
      <point x="619.0" y="-137.0" type="line" smooth="yes"/>
      <point x="605.0" y="-190.0"/>
      <point x="569.0" y="-190.0" type="qcurve" smooth="yes"/>
      <point x="498.0" y="-190.0" type="line" smooth="yes"/>
      <point x="458.0" y="-190.0"/>
      <point x="439.0" y="-134.0" type="qcurve" smooth="yes"/>
      <point x="149.0" y="697.0" type="line"/>
      <point x="75.0" y="697.0" type="line" smooth="yes"/>
      <point x="30.0" y="697.0"/>
    </contour>
  </outline>
</glyph>
<glyph name="greaterequal" format="2">
  <advance width="1280"/>
  <unicode hex="2265"/>
  <outline>
    <contour>
      <point x="125.0" y="95.0" type="line" smooth="yes"/>
      <point x="80.0" y="95.0"/>
      <point x="80.0" y="130.0" type="qcurve" smooth="yes"/>
      <point x="80.0" y="180.0" type="line" smooth="yes"/>
      <point x="80.0" y="215.0"/>
      <point x="125.0" y="215.0" type="qcurve" smooth="yes"/>
      <point x="1155.0" y="215.0" type="line" smooth="yes"/>
      <point x="1200.0" y="215.0"/>
      <point x="1200.0" y="180.0" type="qcurve" smooth="yes"/>
      <point x="1200.0" y="130.0" type="line" smooth="yes"/>
      <point x="1200.0" y="95.0"/>
      <point x="1155.0" y="95.0" type="qcurve" smooth="yes"/>
    </contour>
    <contour>
      <point x="82.0" y="427.0" type="line" smooth="yes"/>
      <point x="69.0" y="458.0"/>
      <point x="110.0" y="476.0" type="qcurve" smooth="yes"/>
      <point x="994.0" y="851.0" type="line"/>
      <point x="994.0" y="852.0" type="line"/>
      <point x="110.0" y="1227.0" type="line" smooth="yes"/>
      <point x="68.0" y="1244.0"/>
      <point x="82.0" y="1276.0" type="qcurve" smooth="yes"/>
      <point x="102.0" y="1322.0" type="line" smooth="yes"/>
      <point x="116.0" y="1355.0"/>
      <point x="157.0" y="1337.0" type="qcurve" smooth="yes"/>
      <point x="1169.0" y="907.0" type="line" smooth="yes"/>
      <point x="1199.0" y="895.0"/>
      <point x="1199.0" y="868.0" type="qcurve" smooth="yes"/>
      <point x="1199.0" y="835.0" type="line" smooth="yes"/>
      <point x="1199.0" y="809.0"/>
      <point x="1169.0" y="796.0" type="qcurve" smooth="yes"/>
      <point x="157.0" y="366.0" type="line" smooth="yes"/>
      <point x="116.0" y="349.0"/>
      <point x="102.0" y="381.0" type="qcurve" smooth="yes"/>
    </contour>
  </outline>
</glyph>
<glyph name="tilde.cap" format="2">
  <advance width="820"/>
  <unicode hex="EFF5"/>
  <outline>
    <contour>
      <point x="50.0" y="1575.0" type="line" smooth="yes"/>
      <point x="27.0" y="1588.0"/>
      <point x="41.0" y="1620.0" type="qcurve" smooth="yes"/>
      <point x="69.0" y="1685.0"/>
      <point x="184.0" y="1771.0"/>
      <point x="273.0" y="1771.0" type="qcurve" smooth="yes"/>
      <point x="348.0" y="1771.0"/>
      <point x="516.0" y="1673.0"/>
      <point x="560.0" y="1673.0" type="qcurve" smooth="yes"/>
      <point x="608.0" y="1673.0"/>
      <point x="674.0" y="1727.0"/>
      <point x="690.0" y="1752.0" type="qcurve" smooth="yes"/>
      <point x="709.0" y="1781.0"/>
      <point x="728.0" y="1770.0" type="qcurve" smooth="yes"/>
      <point x="770.0" y="1745.0" type="line" smooth="yes"/>
      <point x="793.0" y="1732.0"/>
      <point x="779.0" y="1700.0" type="qcurve" smooth="yes"/>
      <point x="751.0" y="1635.0"/>
      <point x="636.0" y="1549.0"/>
      <point x="547.0" y="1549.0" type="qcurve" smooth="yes"/>
      <point x="472.0" y="1549.0"/>
      <point x="304.0" y="1647.0"/>
      <point x="260.0" y="1647.0" type="qcurve" smooth="yes"/>
      <point x="212.0" y="1647.0"/>
      <point x="146.0" y="1593.0"/>
      <point x="130.0" y="1568.0" type="qcurve" smooth="yes"/>
      <point x="111.0" y="1539.0"/>
      <point x="92.0" y="1550.0" type="qcurve" smooth="yes"/>
    </contour>
  </outline>
</glyph>
<glyph name="afii10020.sc" format="2">
  <advance width="896"/>
  <unicode hex="F1D8"/>
  <outline>
    <contour>
      <point x="197.0" y="0.0" type="line" smooth="yes"/>
      <point x="152.0" y="0.0"/>
      <point x="152.0" y="45.0" type="qcurve" smooth="yes"/>
      <point x="152.0" y="1075.0" type="line" smooth="yes"/>
      <point x="152.0" y="1120.0"/>
      <point x="197.0" y="1120.0" type="qcurve" smooth="yes"/>
      <point x="817.0" y="1120.0" type="line" smooth="yes"/>
      <point x="862.0" y="1120.0"/>
      <point x="862.0" y="1085.0" type="qcurve" smooth="yes"/>
      <point x="862.0" y="1023.0" type="line" smooth="yes"/>
      <point x="862.0" y="988.0"/>
      <point x="817.0" y="988.0" type="qcurve" smooth="yes"/>
      <point x="328.0" y="988.0" type="line"/>
      <point x="328.0" y="45.0" type="line" smooth="yes"/>
      <point x="328.0" y="0.0"/>
      <point x="283.0" y="0.0" type="qcurve" smooth="yes"/>
    </contour>
  </outline>
</glyph>
<glyph name="afii10033.sc" format="2">
  <advance width="1154"/>
  <unicode hex="F1E4"/>
  <outline>
    <contour>
      <point x="197.0" y="0.0" type="line" smooth="yes"/>
      <point x="152.0" y="0.0"/>
      <point x="152.0" y="45.0" type="qcurve" smooth="yes"/>
      <point x="152.0" y="1075.0" type="line" smooth="yes"/>
      <point x="152.0" y="1120.0"/>
      <point x="197.0" y="1120.0" type="qcurve" smooth="yes"/>
      <point x="957.0" y="1120.0" type="line" smooth="yes"/>
      <point x="1002.0" y="1120.0"/>
      <point x="1002.0" y="1075.0" type="qcurve" smooth="yes"/>
      <point x="1002.0" y="45.0" type="line" smooth="yes"/>
      <point x="1002.0" y="0.0"/>
      <point x="957.0" y="0.0" type="qcurve" smooth="yes"/>
      <point x="871.0" y="0.0" type="line" smooth="yes"/>
      <point x="826.0" y="0.0"/>
      <point x="826.0" y="45.0" type="qcurve" smooth="yes"/>
      <point x="826.0" y="988.0" type="line"/>
      <point x="328.0" y="988.0" type="line"/>
      <point x="328.0" y="45.0" type="line" smooth="yes"/>
      <point x="328.0" y="0.0"/>
      <point x="283.0" y="0.0" type="qcurve" smooth="yes"/>
    </contour>
  </outline>
</glyph>
<glyph name="afii10037.sc" format="2">
  <advance width="1020"/>
  <unicode hex="F1E8"/>
  <outline>
    <contour>
      <point x="56.0" y="1071.0" type="line" smooth="yes"/>
      <point x="31.11910057067871" y="1120.0"/>
      <point x="83.0" y="1120.0" type="qcurve" smooth="yes"/>
      <point x="188.0" y="1120.0" type="line" smooth="yes"/>
      <point x="215.13400268554688" y="1120.0"/>
      <point x="233.0" y="1081.0" type="qcurve" smooth="yes"/>
      <point x="490.0" y="520.0" type="line" smooth="yes"/>
      <point x="508.73699951171875" y="479.1000061035156"/>
      <point x="546.0" y="383.0"/>
      <point x="550.0" y="358.0" type="qcurve"/>
      <point x="552.0" y="358.0" type="line"/>
      <point x="564.0" y="418.0"/>
      <point x="581.4910278320312" y="462.4880065917969"/>
      <point x="604.0" y="528.0" type="qcurve" smooth="yes"/>
      <point x="794.0" y="1081.0" type="line" smooth="yes"/>
      <point x="807.4000244140625" y="1120.0"/>
      <point x="839.0" y="1120.0" type="qcurve" smooth="yes"/>
      <point x="943.0" y="1120.0" type="line" smooth="yes"/>
      <point x="989.7789916992188" y="1120.0"/>
      <point x="970.0" y="1071.0" type="qcurve" smooth="yes"/>
      <point x="639.0" y="251.0" type="line" smooth="yes"/>
      <point x="578.0800170898438" y="100.08100128173828"/>
      <point x="462.0" y="-17.0"/>
      <point x="315.0" y="-17.0" type="qcurve" smooth="yes"/>
      <point x="237.0" y="-17.0"/>
      <point x="191.0" y="6.0" type="qcurve" smooth="yes"/>
      <point x="170.22500610351562" y="15.892600059509277"/>
      <point x="177.0" y="37.0" type="qcurve" smooth="yes"/>
      <point x="203.0" y="118.0" type="line" smooth="yes"/>
      <point x="209.08900451660156" y="136.97000122070312"/>
      <point x="230.0" y="130.0" type="qcurve" smooth="yes"/>
      <point x="284.0" y="113.0"/>
      <point x="309.0" y="113.0" type="qcurve" smooth="yes"/>
      <point x="349.0" y="113.0"/>
      <point x="424.06201171875" y="142.0240020751953"/>
      <point x="455.0" y="192.0" type="qcurve" smooth="yes"/>
      <point x="481.0" y="234.0" type="line"/>
    </contour>
  </outline>
</glyph>
<glyph name="afii10049.sc" format="2">
  <advance width="1117"/>
  <unicode hex="F1F4"/>
  <outline>
    <contour>
      <point x="126.0" y="0.0" type="line" smooth="yes"/>
      <point x="59.0" y="0.0"/>
      <point x="100.0" y="59.0" type="qcurve" smooth="yes"/>
      <point x="293.0" y="335.0" type="line" smooth="yes"/>
      <point x="331.0" y="389.0"/>
      <point x="405.0" y="464.0"/>
      <point x="464.0" y="495.0" type="qcurve"/>
      <point x="464.0" y="497.0" type="line"/>
      <point x="285.0" y="532.0"/>
      <point x="153.0" y="688.0"/>
      <point x="153.0" y="814.0" type="qcurve" smooth="yes"/>
      <point x="153.0" y="956.0"/>
      <point x="325.0" y="1120.0"/>
      <point x="562.0" y="1120.0" type="qcurve" smooth="yes"/>
      <point x="920.0" y="1120.0" type="line" smooth="yes"/>
      <point x="965.0" y="1120.0"/>
      <point x="965.0" y="1075.0" type="qcurve" smooth="yes"/>
      <point x="965.0" y="45.0" type="line" smooth="yes"/>
      <point x="965.0" y="0.0"/>
      <point x="920.0" y="0.0" type="qcurve" smooth="yes"/>
      <point x="834.0" y="0.0" type="line" smooth="yes"/>
      <point x="789.0" y="0.0"/>
      <point x="789.0" y="45.0" type="qcurve" smooth="yes"/>
      <point x="789.0" y="467.0" type="line"/>
      <point x="686.0" y="467.0" type="line" smooth="yes"/>
      <point x="623.0" y="467.0"/>
      <point x="527.0" y="391.0"/>
      <point x="473.0" y="309.0" type="qcurve" smooth="yes"/>
      <point x="293.0" y="37.0" type="line" smooth="yes"/>
      <point x="269.0" y="0.0"/>
      <point x="236.0" y="0.0" type="qcurve" smooth="yes"/>
    </contour>
    <contour>
      <point x="339.0" y="814.0" type="qcurve" smooth="yes"/>
      <point x="339.0" y="680.0"/>
      <point x="515.0" y="597.0"/>
      <point x="643.0" y="597.0" type="qcurve" smooth="yes"/>
      <point x="789.0" y="597.0" type="line"/>
      <point x="789.0" y="989.0" type="line"/>
      <point x="608.0" y="989.0" type="line" smooth="yes"/>
      <point x="473.0" y="989.0"/>
      <point x="339.0" y="918.0"/>
    </contour>
  </outline>
</glyph>
<glyph name="afii10053.sc" format="2">
  <advance width="1062"/>
  <unicode hex="F1F9"/>
  <outline>
    <contour>
      <point x="88.0" y="560.0" type="qcurve" smooth="yes"/>
      <point x="88.0" y="843.0"/>
      <point x="330.0" y="1137.0"/>
      <point x="582.0" y="1137.0" type="qcurve" smooth="yes"/>
      <point x="734.0" y="1137.0"/>
      <point x="904.0" y="1040.0"/>
      <point x="946.0" y="997.0" type="qcurve" smooth="yes"/>
      <point x="984.0" y="959.0"/>
      <point x="955.0" y="933.0" type="qcurve" smooth="yes"/>
      <point x="899.0" y="883.0" type="line" smooth="yes"/>
      <point x="873.0" y="860.0"/>
      <point x="836.0" y="902.0" type="qcurve" smooth="yes"/>
      <point x="796.0" y="948.0"/>
      <point x="665.0" y="1007.0"/>
      <point x="582.0" y="1007.0" type="qcurve" smooth="yes"/>
      <point x="431.0" y="1007.0"/>
      <point x="278.0" y="812.0"/>
      <point x="278.0" y="647.0" type="qcurve"/>
      <point x="732.0" y="647.0" type="line" smooth="yes"/>
      <point x="777.0" y="647.0"/>
      <point x="777.0" y="612.0" type="qcurve" smooth="yes"/>
      <point x="777.0" y="552.0" type="line" smooth="yes"/>
      <point x="777.0" y="517.0"/>
      <point x="732.0" y="517.0" type="qcurve" smooth="yes"/>
      <point x="274.0" y="517.0" type="line"/>
      <point x="274.0" y="308.0"/>
      <point x="425.0" y="113.0"/>
      <point x="582.0" y="113.0" type="qcurve" smooth="yes"/>
      <point x="702.0" y="113.0"/>
      <point x="816.0" y="186.0"/>
      <point x="851.0" y="236.0" type="qcurve" smooth="yes"/>
      <point x="882.0" y="280.0"/>
      <point x="913.0" y="255.0" type="qcurve" smooth="yes"/>
      <point x="972.0" y="208.0" type="line" smooth="yes"/>
      <point x="1000.0" y="187.0"/>
      <point x="974.0" y="153.0" type="qcurve" smooth="yes"/>
      <point x="942.0" y="111.0"/>
      <point x="770.0" y="-17.0"/>
      <point x="582.0" y="-17.0" type="qcurve" smooth="yes"/>
      <point x="323.0" y="-17.0"/>
      <point x="88.0" y="280.0"/>
    </contour>
  </outline>
</glyph>
<glyph name="uni0498.sc" format="2">
  <advance width="1016"/>
  <unicode hex="F21D"/>
  <outline>
    <contour>
      <point x="92.0" y="120.0" type="qcurve" smooth="yes"/>
      <point x="68.0" y="154.0"/>
      <point x="89.0" y="175.0" type="qcurve" smooth="yes"/>
      <point x="144.0" y="229.0" type="line" smooth="yes"/>
      <point x="172.0" y="257.0"/>
      <point x="208.0" y="215.0" type="qcurve" smooth="yes"/>
      <point x="214.0" y="208.0"/>
      <point x="358.0" y="113.0"/>
      <point x="452.0" y="113.0" type="qcurve" smooth="yes"/>
      <point x="607.0" y="113.0"/>
      <point x="722.0" y="234.0"/>
      <point x="722.0" y="318.0" type="qcurve" smooth="yes"/>
      <point x="722.0" y="418.0"/>
      <point x="586.0" y="518.0"/>
      <point x="481.0" y="518.0" type="qcurve" smooth="yes"/>
      <point x="357.0" y="518.0" type="line" smooth="yes"/>
      <point x="312.0" y="518.0"/>
      <point x="312.0" y="553.0" type="qcurve" smooth="yes"/>
      <point x="312.0" y="613.0" type="line" smooth="yes"/>
      <point x="312.0" y="648.0"/>
      <point x="357.0" y="648.0" type="qcurve" smooth="yes"/>
      <point x="448.0" y="648.0" type="line" smooth="yes"/>
      <point x="577.0" y="648.0"/>
      <point x="685.0" y="762.0"/>
      <point x="685.0" y="833.0" type="qcurve" smooth="yes"/>
      <point x="685.0" y="933.0"/>
      <point x="550.0" y="1007.0"/>
      <point x="450.0" y="1007.0" type="qcurve" smooth="yes"/>
      <point x="402.0" y="1007.0"/>
      <point x="274.0" y="972.0"/>
      <point x="226.0" y="931.0" type="qcurve" smooth="yes"/>
      <point x="179.0" y="891.0"/>
      <point x="158.0" y="911.0" type="qcurve" smooth="yes"/>
      <point x="105.0" y="964.0" type="line" smooth="yes"/>
      <point x="74.0" y="995.0"/>
      <point x="118.0" y="1029.0" type="qcurve" smooth="yes"/>
      <point x="181.0" y="1077.0"/>
      <point x="316.0" y="1137.0"/>
      <point x="473.0" y="1137.0" type="qcurve" smooth="yes"/>
      <point x="672.0" y="1137.0"/>
      <point x="861.0" y="969.0"/>
      <point x="861.0" y="846.0" type="qcurve" smooth="yes"/>
      <point x="861.0" y="756.0"/>
      <point x="790.0" y="638.0"/>
      <point x="706.0" y="598.0" type="qcurve"/>
      <point x="706.0" y="595.0" type="line"/>
      <point x="796.0" y="570.0"/>
      <point x="908.0" y="420.0"/>
      <point x="908.0" y="326.0" type="qcurve" smooth="yes"/>
      <point x="908.0" y="150.0"/>
      <point x="698.0" y="1.0"/>
      <point x="550.0" y="-13.0" type="qcurve"/>
      <point x="503.0" y="-55.0"/>
      <point x="458.0" y="-168.0"/>
      <point x="458.0" y="-224.0" type="qcurve" smooth="yes"/>
      <point x="458.0" y="-253.0"/>
      <point x="490.0" y="-287.0"/>
      <point x="526.0" y="-287.0" type="qcurve" smooth="yes"/>
      <point x="549.0" y="-287.0"/>
      <point x="581.0" y="-280.0" type="qcurve" smooth="yes"/>
      <point x="602.0" y="-275.0"/>
      <point x="606.0" y="-299.0" type="qcurve" smooth="yes"/>
      <point x="619.0" y="-378.0" type="line" smooth="yes"/>
      <point x="623.0" y="-402.0"/>
      <point x="601.0" y="-406.0" type="qcurve" smooth="yes"/>
      <point x="547.0" y="-417.0"/>
      <point x="498.0" y="-417.0" type="qcurve" smooth="yes"/>
      <point x="392.0" y="-417.0"/>
      <point x="296.0" y="-330.0"/>
      <point x="296.0" y="-265.0" type="qcurve" smooth="yes"/>
      <point x="296.0" y="-200.0"/>
      <point x="344.0" y="-77.0"/>
      <point x="394.0" y="-14.0" type="qcurve"/>
      <point x="281.0" y="-3.0"/>
      <point x="101.0" y="107.0"/>
    </contour>
  </outline>
</glyph>
<glyph name="uni049A.sc" format="2">
  <advance width="1115"/>
  <unicode hex="F21E"/>
  <outline>
    <contour>
      <point x="197.0" y="0.0" type="line" smooth="yes"/>
      <point x="152.0" y="0.0"/>
      <point x="152.0" y="45.0" type="qcurve" smooth="yes"/>
      <point x="152.0" y="1075.0" type="line" smooth="yes"/>
      <point x="152.0" y="1120.0"/>
      <point x="197.0" y="1120.0" type="qcurve" smooth="yes"/>
      <point x="283.0" y="1120.0" type="line" smooth="yes"/>
      <point x="328.0" y="1120.0"/>
      <point x="328.0" y="1075.0" type="qcurve" smooth="yes"/>
      <point x="328.0" y="649.0" type="line"/>
      <point x="380.0" y="649.0" type="line" smooth="yes"/>
      <point x="438.0" y="649.0"/>
      <point x="555.0" y="752.0"/>
      <point x="594.0" y="816.0" type="qcurve" smooth="yes"/>
      <point x="761.0" y="1094.0" type="line" smooth="yes"/>
      <point x="777.0" y="1120.0"/>
      <point x="814.0" y="1120.0" type="qcurve" smooth="yes"/>
      <point x="905.0" y="1120.0" type="line" smooth="yes"/>
      <point x="970.0" y="1120.0"/>
      <point x="931.0" y="1061.0" type="qcurve" smooth="yes"/>
      <point x="730.0" y="756.0" type="line" smooth="yes"/>
      <point x="698.0" y="708.0"/>
      <point x="598.0" y="606.0"/>
      <point x="554.0" y="589.0" type="qcurve"/>
      <point x="554.0" y="587.0" type="line"/>
      <point x="614.0" y="564.0"/>
      <point x="699.0" y="494.0"/>
      <point x="751.0" y="405.0" type="qcurve" smooth="yes"/>
      <point x="911.0" y="132.0" type="line"/>
      <point x="1037.0" y="132.0" type="line" smooth="yes"/>
      <point x="1082.0" y="132.0"/>
      <point x="1082.0" y="87.0" type="qcurve" smooth="yes"/>
      <point x="1082.0" y="-265.0" type="line" smooth="yes"/>
      <point x="1082.0" y="-310.0"/>
      <point x="1042.0" y="-310.0" type="qcurve" smooth="yes"/>
      <point x="968.0" y="-310.0" type="line" smooth="yes"/>
      <point x="928.0" y="-310.0"/>
      <point x="928.0" y="-265.0" type="qcurve" smooth="yes"/>
      <point x="928.0" y="0.0" type="line"/>
      <point x="830.0" y="0.0" type="line" smooth="yes"/>
      <point x="794.0" y="0.0"/>
      <point x="773.0" y="37.0" type="qcurve" smooth="yes"/>
      <point x="583.0" y="379.0" type="line" smooth="yes"/>
      <point x="549.0" y="440.0"/>
      <point x="440.0" y="517.0"/>
      <point x="381.0" y="517.0" type="qcurve" smooth="yes"/>
      <point x="328.0" y="517.0" type="line"/>
      <point x="328.0" y="45.0" type="line" smooth="yes"/>
      <point x="328.0" y="0.0"/>
      <point x="283.0" y="0.0" type="qcurve" smooth="yes"/>
    </contour>
  </outline>
</glyph>
<glyph name="uni04A0.sc" format="2">
  <advance width="1256"/>
  <unicode hex="F221"/>
  <outline>
    <contour>
      <point x="99.0" y="990.0" type="line" smooth="yes"/>
      <point x="54.0" y="990.0"/>
      <point x="54.0" y="1025.0" type="qcurve" smooth="yes"/>
      <point x="54.0" y="1085.0" type="line" smooth="yes"/>
      <point x="54.0" y="1120.0"/>
      <point x="99.0" y="1120.0" type="qcurve" smooth="yes"/>
      <point x="515.0" y="1120.0" type="line" smooth="yes"/>
      <point x="560.0" y="1120.0"/>
      <point x="560.0" y="1075.0" type="qcurve" smooth="yes"/>
      <point x="560.0" y="649.0" type="line"/>
      <point x="612.0" y="649.0" type="line" smooth="yes"/>
      <point x="670.0" y="649.0"/>
      <point x="788.176025390625" y="753.0349731445312"/>
      <point x="826.0" y="816.0" type="qcurve" smooth="yes"/>
      <point x="993.0" y="1094.0" type="line" smooth="yes"/>
      <point x="1008.6199951171875" y="1120.0"/>
      <point x="1046.0" y="1120.0" type="qcurve" smooth="yes"/>
      <point x="1137.0" y="1120.0" type="line" smooth="yes"/>
      <point x="1201.8800048828125" y="1120.0"/>
      <point x="1163.0" y="1061.0" type="qcurve" smooth="yes"/>
      <point x="962.0" y="756.0" type="line" smooth="yes"/>
      <point x="931.1199951171875" y="709.1430053710938"/>
      <point x="830.0" y="606.0"/>
      <point x="786.0" y="589.0" type="qcurve"/>
      <point x="786.0" y="587.0" type="line"/>
      <point x="846.0" y="564.0"/>
      <point x="930.5809936523438" y="494.3450012207031"/>
      <point x="983.0" y="405.0" type="qcurve" smooth="yes"/>
      <point x="1186.0" y="59.0" type="line" smooth="yes"/>
      <point x="1220.6199951171875" y="0.0"/>
      <point x="1160.0" y="0.0" type="qcurve" smooth="yes"/>
      <point x="1062.0" y="0.0" type="line" smooth="yes"/>
      <point x="1025.56005859375" y="2.441409924358595e-05"/>
      <point x="1005.0" y="37.0" type="qcurve" smooth="yes"/>
      <point x="815.0" y="379.0" type="line" smooth="yes"/>
      <point x="781.1829833984375" y="439.8710021972656"/>
      <point x="672.0" y="517.0"/>
      <point x="613.0" y="517.0" type="qcurve" smooth="yes"/>
      <point x="560.0" y="517.0" type="line"/>
      <point x="560.0" y="45.0" type="line" smooth="yes"/>
      <point x="560.0" y="0.0"/>
      <point x="515.0" y="0.0" type="qcurve" smooth="yes"/>
      <point x="429.0" y="0.0" type="line" smooth="yes"/>
      <point x="384.0" y="0.0"/>
      <point x="384.0" y="45.0" type="qcurve" smooth="yes"/>
      <point x="384.0" y="990.0" type="line"/>
    </contour>
  </outline>
</glyph>
<glyph name="uni04A2.sc" format="2">
  <advance width="1240"/>
  <unicode hex="F222"/>
  <outline>
    <contour>
      <point x="197.0" y="0.0" type="line" smooth="yes"/>
      <point x="152.0" y="0.0"/>
      <point x="152.0" y="45.0" type="qcurve" smooth="yes"/>
      <point x="152.0" y="1075.0" type="line" smooth="yes"/>
      <point x="152.0" y="1120.0"/>
      <point x="197.0" y="1120.0" type="qcurve" smooth="yes"/>
      <point x="283.0" y="1120.0" type="line" smooth="yes"/>
      <point x="328.0" y="1120.0"/>
      <point x="328.0" y="1075.0" type="qcurve" smooth="yes"/>
      <point x="328.0" y="649.0" type="line"/>
      <point x="832.0" y="649.0" type="line"/>
      <point x="832.0" y="1075.0" type="line" smooth="yes"/>
      <point x="832.0" y="1120.0"/>
      <point x="877.0" y="1120.0" type="qcurve" smooth="yes"/>
      <point x="963.0" y="1120.0" type="line" smooth="yes"/>
      <point x="1008.0" y="1120.0"/>
      <point x="1008.0" y="1075.0" type="qcurve" smooth="yes"/>
      <point x="1008.0" y="132.0" type="line"/>
      <point x="1129.0" y="132.0" type="line" smooth="yes"/>
      <point x="1174.0" y="132.0"/>
      <point x="1174.0" y="87.0" type="qcurve" smooth="yes"/>
      <point x="1174.0" y="-265.0" type="line" smooth="yes"/>
      <point x="1174.0" y="-310.0"/>
      <point x="1134.0" y="-310.0" type="qcurve" smooth="yes"/>
      <point x="1060.0" y="-310.0" type="line" smooth="yes"/>
      <point x="1020.0" y="-310.0"/>
      <point x="1020.0" y="-265.0" type="qcurve" smooth="yes"/>
      <point x="1020.0" y="0.0" type="line"/>
      <point x="877.0" y="0.0" type="line" smooth="yes"/>
      <point x="832.0" y="0.0"/>
      <point x="832.0" y="45.0" type="qcurve" smooth="yes"/>
      <point x="832.0" y="517.0" type="line"/>
      <point x="328.0" y="517.0" type="line"/>
      <point x="328.0" y="45.0" type="line" smooth="yes"/>
      <point x="328.0" y="0.0"/>
      <point x="283.0" y="0.0" type="qcurve" smooth="yes"/>
    </contour>
  </outline>
</glyph>
<glyph name="uni04B2.sc" format="2">
  <advance width="1103"/>
  <unicode hex="F22A"/>
  <outline>
    <contour>
      <point x="81.0" y="0.0" type="line" smooth="yes"/>
      <point x="16.0" y="0.0"/>
      <point x="55.0" y="59.0" type="qcurve" smooth="yes"/>
      <point x="405.0" y="589.0" type="line"/>
      <point x="93.0" y="1061.0" type="line" smooth="yes"/>
      <point x="54.0" y="1120.0"/>
      <point x="119.0" y="1120.0" type="qcurve" smooth="yes"/>
      <point x="217.0" y="1120.0" type="line" smooth="yes"/>
      <point x="254.0" y="1120.0"/>
      <point x="270.0" y="1094.0" type="qcurve" smooth="yes"/>
      <point x="500.0" y="712.0" type="line"/>
      <point x="729.0" y="1094.0" type="line" smooth="yes"/>
      <point x="745.0" y="1120.0"/>
      <point x="782.0" y="1120.0" type="qcurve" smooth="yes"/>
      <point x="881.0" y="1120.0" type="line" smooth="yes"/>
      <point x="946.0" y="1120.0"/>
      <point x="907.0" y="1061.0" type="qcurve" smooth="yes"/>
      <point x="595.0" y="589.0" type="line"/>
      <point x="897.0" y="132.0" type="line"/>
      <point x="1025.0" y="132.0" type="line" smooth="yes"/>
      <point x="1070.0" y="132.0"/>
      <point x="1070.0" y="87.0" type="qcurve" smooth="yes"/>
      <point x="1070.0" y="-265.0" type="line" smooth="yes"/>
      <point x="1070.0" y="-310.0"/>
      <point x="1030.0" y="-310.0" type="qcurve" smooth="yes"/>
      <point x="956.0" y="-310.0" type="line" smooth="yes"/>
      <point x="916.0" y="-310.0"/>
      <point x="916.0" y="-265.0" type="qcurve" smooth="yes"/>
      <point x="916.0" y="0.0" type="line"/>
      <point x="821.0" y="0.0" type="line" smooth="yes"/>
      <point x="784.0" y="0.0"/>
      <point x="768.0" y="26.0" type="qcurve" smooth="yes"/>
      <point x="500.0" y="467.0" type="line"/>
      <point x="232.0" y="26.0" type="line" smooth="yes"/>
      <point x="216.0" y="0.0"/>
      <point x="179.0" y="0.0" type="qcurve" smooth="yes"/>
    </contour>
  </outline>
</glyph>
